G04 #@! TF.GenerationSoftware,KiCad,Pcbnew,(6.99.0-1917-g23fb4c7433)*
G04 #@! TF.CreationDate,2022-06-18T14:57:07+10:00*
G04 #@! TF.ProjectId,JtagArm20Adapter,4a746167-4172-46d3-9230-416461707465,rev?*
G04 #@! TF.SameCoordinates,PX8404630PY68290a0*
G04 #@! TF.FileFunction,Legend,Bot*
G04 #@! TF.FilePolarity,Positive*
%FSLAX46Y46*%
G04 Gerber Fmt 4.6, Leading zero omitted, Abs format (unit mm)*
G04 Created by KiCad (PCBNEW (6.99.0-1917-g23fb4c7433)) date 2022-06-18 14:57:07*
%MOMM*%
%LPD*%
G01*
G04 APERTURE LIST*
%ADD10C,0.200000*%
G04 #@! TA.AperFunction,Profile*
%ADD11C,0.050000*%
G04 #@! TD*
G04 APERTURE END LIST*
D10*
X16523273Y4939048D02*
X15273273Y5355715D01*
X15273273Y5355715D02*
X16523273Y5772381D01*
X16523273Y6010477D02*
X16523273Y6724763D01*
X15273273Y6367620D02*
X16523273Y6367620D01*
X15273273Y7141430D02*
X16106607Y7141430D01*
X15868511Y7141430D02*
X15987559Y7200953D01*
X15987559Y7200953D02*
X16047083Y7260477D01*
X16047083Y7260477D02*
X16106607Y7379525D01*
X16106607Y7379525D02*
X16106607Y7498572D01*
X15332797Y8391430D02*
X15273273Y8272382D01*
X15273273Y8272382D02*
X15273273Y8034287D01*
X15273273Y8034287D02*
X15332797Y7915240D01*
X15332797Y7915240D02*
X15451845Y7855716D01*
X15451845Y7855716D02*
X15928035Y7855716D01*
X15928035Y7855716D02*
X16047083Y7915240D01*
X16047083Y7915240D02*
X16106607Y8034287D01*
X16106607Y8034287D02*
X16106607Y8272382D01*
X16106607Y8272382D02*
X16047083Y8391430D01*
X16047083Y8391430D02*
X15928035Y8450954D01*
X15928035Y8450954D02*
X15808988Y8450954D01*
X15808988Y8450954D02*
X15689940Y7855716D01*
X16106607Y8808097D02*
X16106607Y9284288D01*
X15273273Y8986669D02*
X16344702Y8986669D01*
X16344702Y8986669D02*
X16463750Y9046192D01*
X16463750Y9046192D02*
X16523273Y9165240D01*
X16523273Y9165240D02*
X16523273Y9284288D01*
X16523273Y10808097D02*
X15630416Y10808097D01*
X15630416Y10808097D02*
X15451845Y10748574D01*
X15451845Y10748574D02*
X15332797Y10629526D01*
X15332797Y10629526D02*
X15273273Y10450955D01*
X15273273Y10450955D02*
X15273273Y10331907D01*
X16106607Y11939050D02*
X15273273Y11939050D01*
X16106607Y11403336D02*
X15451845Y11403336D01*
X15451845Y11403336D02*
X15332797Y11462859D01*
X15332797Y11462859D02*
X15273273Y11581907D01*
X15273273Y11581907D02*
X15273273Y11760478D01*
X15273273Y11760478D02*
X15332797Y11879526D01*
X15332797Y11879526D02*
X15392321Y11939050D01*
X15273273Y12534288D02*
X16106607Y12534288D01*
X15987559Y12534288D02*
X16047083Y12593811D01*
X16047083Y12593811D02*
X16106607Y12712859D01*
X16106607Y12712859D02*
X16106607Y12891430D01*
X16106607Y12891430D02*
X16047083Y13010478D01*
X16047083Y13010478D02*
X15928035Y13070002D01*
X15928035Y13070002D02*
X15273273Y13070002D01*
X15928035Y13070002D02*
X16047083Y13129526D01*
X16047083Y13129526D02*
X16106607Y13248573D01*
X16106607Y13248573D02*
X16106607Y13427145D01*
X16106607Y13427145D02*
X16047083Y13546192D01*
X16047083Y13546192D02*
X15928035Y13605716D01*
X15928035Y13605716D02*
X15273273Y13605716D01*
X16106607Y14200955D02*
X14856607Y14200955D01*
X16047083Y14200955D02*
X16106607Y14320002D01*
X16106607Y14320002D02*
X16106607Y14558097D01*
X16106607Y14558097D02*
X16047083Y14677145D01*
X16047083Y14677145D02*
X15987559Y14736669D01*
X15987559Y14736669D02*
X15868511Y14796193D01*
X15868511Y14796193D02*
X15511369Y14796193D01*
X15511369Y14796193D02*
X15392321Y14736669D01*
X15392321Y14736669D02*
X15332797Y14677145D01*
X15332797Y14677145D02*
X15273273Y14558097D01*
X15273273Y14558097D02*
X15273273Y14320002D01*
X15273273Y14320002D02*
X15332797Y14200955D01*
X15332797Y15808097D02*
X15273273Y15689049D01*
X15273273Y15689049D02*
X15273273Y15450954D01*
X15273273Y15450954D02*
X15332797Y15331907D01*
X15332797Y15331907D02*
X15451845Y15272383D01*
X15451845Y15272383D02*
X15928035Y15272383D01*
X15928035Y15272383D02*
X16047083Y15331907D01*
X16047083Y15331907D02*
X16106607Y15450954D01*
X16106607Y15450954D02*
X16106607Y15689049D01*
X16106607Y15689049D02*
X16047083Y15808097D01*
X16047083Y15808097D02*
X15928035Y15867621D01*
X15928035Y15867621D02*
X15808988Y15867621D01*
X15808988Y15867621D02*
X15689940Y15272383D01*
X15273273Y16403336D02*
X16106607Y16403336D01*
X15868511Y16403336D02*
X15987559Y16462859D01*
X15987559Y16462859D02*
X16047083Y16522383D01*
X16047083Y16522383D02*
X16106607Y16641431D01*
X16106607Y16641431D02*
X16106607Y16760478D01*
X15392321Y17177146D02*
X15332797Y17236669D01*
X15332797Y17236669D02*
X15273273Y17177146D01*
X15273273Y17177146D02*
X15332797Y17117622D01*
X15332797Y17117622D02*
X15392321Y17177146D01*
X15392321Y17177146D02*
X15273273Y17177146D01*
X16047083Y17177146D02*
X15987559Y17236669D01*
X15987559Y17236669D02*
X15928035Y17177146D01*
X15928035Y17177146D02*
X15987559Y17117622D01*
X15987559Y17117622D02*
X16047083Y17177146D01*
X16047083Y17177146D02*
X15928035Y17177146D01*
X13248273Y5117620D02*
X14498273Y5117620D01*
X14498273Y5117620D02*
X14498273Y5415239D01*
X14498273Y5415239D02*
X14438750Y5593810D01*
X14438750Y5593810D02*
X14319702Y5712858D01*
X14319702Y5712858D02*
X14200654Y5772381D01*
X14200654Y5772381D02*
X13962559Y5831905D01*
X13962559Y5831905D02*
X13783988Y5831905D01*
X13783988Y5831905D02*
X13545892Y5772381D01*
X13545892Y5772381D02*
X13426845Y5712858D01*
X13426845Y5712858D02*
X13307797Y5593810D01*
X13307797Y5593810D02*
X13248273Y5415239D01*
X13248273Y5415239D02*
X13248273Y5117620D01*
X13903035Y6367620D02*
X13903035Y6784286D01*
X13248273Y6962858D02*
X13248273Y6367620D01*
X13248273Y6367620D02*
X14498273Y6367620D01*
X14498273Y6367620D02*
X14498273Y6962858D01*
X14498273Y7320000D02*
X13248273Y7736667D01*
X13248273Y7736667D02*
X14498273Y8153333D01*
X13367321Y8570001D02*
X13307797Y8629524D01*
X13307797Y8629524D02*
X13248273Y8570001D01*
X13248273Y8570001D02*
X13307797Y8510477D01*
X13307797Y8510477D02*
X13367321Y8570001D01*
X13367321Y8570001D02*
X13248273Y8570001D01*
X14022083Y8570001D02*
X13962559Y8629524D01*
X13962559Y8629524D02*
X13903035Y8570001D01*
X13903035Y8570001D02*
X13962559Y8510477D01*
X13962559Y8510477D02*
X14022083Y8570001D01*
X14022083Y8570001D02*
X13903035Y8570001D01*
X14081607Y9915239D02*
X12831607Y9915239D01*
X14022083Y9915239D02*
X14081607Y10034286D01*
X14081607Y10034286D02*
X14081607Y10272381D01*
X14081607Y10272381D02*
X14022083Y10391429D01*
X14022083Y10391429D02*
X13962559Y10450953D01*
X13962559Y10450953D02*
X13843511Y10510477D01*
X13843511Y10510477D02*
X13486369Y10510477D01*
X13486369Y10510477D02*
X13367321Y10450953D01*
X13367321Y10450953D02*
X13307797Y10391429D01*
X13307797Y10391429D02*
X13248273Y10272381D01*
X13248273Y10272381D02*
X13248273Y10034286D01*
X13248273Y10034286D02*
X13307797Y9915239D01*
X13248273Y11581905D02*
X13903035Y11581905D01*
X13903035Y11581905D02*
X14022083Y11522381D01*
X14022083Y11522381D02*
X14081607Y11403333D01*
X14081607Y11403333D02*
X14081607Y11165238D01*
X14081607Y11165238D02*
X14022083Y11046191D01*
X13307797Y11581905D02*
X13248273Y11462857D01*
X13248273Y11462857D02*
X13248273Y11165238D01*
X13248273Y11165238D02*
X13307797Y11046191D01*
X13307797Y11046191D02*
X13426845Y10986667D01*
X13426845Y10986667D02*
X13545892Y10986667D01*
X13545892Y10986667D02*
X13664940Y11046191D01*
X13664940Y11046191D02*
X13724464Y11165238D01*
X13724464Y11165238D02*
X13724464Y11462857D01*
X13724464Y11462857D02*
X13783988Y11581905D01*
X13307797Y12117619D02*
X13248273Y12236666D01*
X13248273Y12236666D02*
X13248273Y12474762D01*
X13248273Y12474762D02*
X13307797Y12593809D01*
X13307797Y12593809D02*
X13426845Y12653333D01*
X13426845Y12653333D02*
X13486369Y12653333D01*
X13486369Y12653333D02*
X13605416Y12593809D01*
X13605416Y12593809D02*
X13664940Y12474762D01*
X13664940Y12474762D02*
X13664940Y12296190D01*
X13664940Y12296190D02*
X13724464Y12177143D01*
X13724464Y12177143D02*
X13843511Y12117619D01*
X13843511Y12117619D02*
X13903035Y12117619D01*
X13903035Y12117619D02*
X14022083Y12177143D01*
X14022083Y12177143D02*
X14081607Y12296190D01*
X14081607Y12296190D02*
X14081607Y12474762D01*
X14081607Y12474762D02*
X14022083Y12593809D01*
X13307797Y13129524D02*
X13248273Y13248571D01*
X13248273Y13248571D02*
X13248273Y13486667D01*
X13248273Y13486667D02*
X13307797Y13605714D01*
X13307797Y13605714D02*
X13426845Y13665238D01*
X13426845Y13665238D02*
X13486369Y13665238D01*
X13486369Y13665238D02*
X13605416Y13605714D01*
X13605416Y13605714D02*
X13664940Y13486667D01*
X13664940Y13486667D02*
X13664940Y13308095D01*
X13664940Y13308095D02*
X13724464Y13189048D01*
X13724464Y13189048D02*
X13843511Y13129524D01*
X13843511Y13129524D02*
X13903035Y13129524D01*
X13903035Y13129524D02*
X14022083Y13189048D01*
X14022083Y13189048D02*
X14081607Y13308095D01*
X14081607Y13308095D02*
X14081607Y13486667D01*
X14081607Y13486667D02*
X14022083Y13605714D01*
X14081607Y14022381D02*
X14081607Y14498572D01*
X14498273Y14200953D02*
X13426845Y14200953D01*
X13426845Y14200953D02*
X13307797Y14260476D01*
X13307797Y14260476D02*
X13248273Y14379524D01*
X13248273Y14379524D02*
X13248273Y14498572D01*
X13248273Y14915239D02*
X14498273Y14915239D01*
X13248273Y15450953D02*
X13903035Y15450953D01*
X13903035Y15450953D02*
X14022083Y15391429D01*
X14022083Y15391429D02*
X14081607Y15272381D01*
X14081607Y15272381D02*
X14081607Y15093810D01*
X14081607Y15093810D02*
X14022083Y14974762D01*
X14022083Y14974762D02*
X13962559Y14915239D01*
X13248273Y16046191D02*
X14081607Y16046191D01*
X13843511Y16046191D02*
X13962559Y16105714D01*
X13962559Y16105714D02*
X14022083Y16165238D01*
X14022083Y16165238D02*
X14081607Y16284286D01*
X14081607Y16284286D02*
X14081607Y16403333D01*
X13248273Y16998572D02*
X13307797Y16879524D01*
X13307797Y16879524D02*
X13367321Y16820001D01*
X13367321Y16820001D02*
X13486369Y16760477D01*
X13486369Y16760477D02*
X13843511Y16760477D01*
X13843511Y16760477D02*
X13962559Y16820001D01*
X13962559Y16820001D02*
X14022083Y16879524D01*
X14022083Y16879524D02*
X14081607Y16998572D01*
X14081607Y16998572D02*
X14081607Y17177143D01*
X14081607Y17177143D02*
X14022083Y17296191D01*
X14022083Y17296191D02*
X13962559Y17355715D01*
X13962559Y17355715D02*
X13843511Y17415239D01*
X13843511Y17415239D02*
X13486369Y17415239D01*
X13486369Y17415239D02*
X13367321Y17355715D01*
X13367321Y17355715D02*
X13307797Y17296191D01*
X13307797Y17296191D02*
X13248273Y17177143D01*
X13248273Y17177143D02*
X13248273Y16998572D01*
X14081607Y18486667D02*
X13248273Y18486667D01*
X14081607Y17950953D02*
X13426845Y17950953D01*
X13426845Y17950953D02*
X13307797Y18010476D01*
X13307797Y18010476D02*
X13248273Y18129524D01*
X13248273Y18129524D02*
X13248273Y18308095D01*
X13248273Y18308095D02*
X13307797Y18427143D01*
X13307797Y18427143D02*
X13367321Y18486667D01*
X14081607Y19617619D02*
X13069702Y19617619D01*
X13069702Y19617619D02*
X12950654Y19558095D01*
X12950654Y19558095D02*
X12891130Y19498571D01*
X12891130Y19498571D02*
X12831607Y19379524D01*
X12831607Y19379524D02*
X12831607Y19200952D01*
X12831607Y19200952D02*
X12891130Y19081905D01*
X13307797Y19617619D02*
X13248273Y19498571D01*
X13248273Y19498571D02*
X13248273Y19260476D01*
X13248273Y19260476D02*
X13307797Y19141428D01*
X13307797Y19141428D02*
X13367321Y19081905D01*
X13367321Y19081905D02*
X13486369Y19022381D01*
X13486369Y19022381D02*
X13843511Y19022381D01*
X13843511Y19022381D02*
X13962559Y19081905D01*
X13962559Y19081905D02*
X14022083Y19141428D01*
X14022083Y19141428D02*
X14081607Y19260476D01*
X14081607Y19260476D02*
X14081607Y19498571D01*
X14081607Y19498571D02*
X14022083Y19617619D01*
X13248273Y20212857D02*
X14498273Y20212857D01*
X13248273Y20748571D02*
X13903035Y20748571D01*
X13903035Y20748571D02*
X14022083Y20689047D01*
X14022083Y20689047D02*
X14081607Y20569999D01*
X14081607Y20569999D02*
X14081607Y20391428D01*
X14081607Y20391428D02*
X14022083Y20272380D01*
X14022083Y20272380D02*
X13962559Y20212857D01*
X12772083Y22450951D02*
X12831607Y22391428D01*
X12831607Y22391428D02*
X13010178Y22272380D01*
X13010178Y22272380D02*
X13129226Y22212856D01*
X13129226Y22212856D02*
X13307797Y22153332D01*
X13307797Y22153332D02*
X13605416Y22093809D01*
X13605416Y22093809D02*
X13843511Y22093809D01*
X13843511Y22093809D02*
X14141130Y22153332D01*
X14141130Y22153332D02*
X14319702Y22212856D01*
X14319702Y22212856D02*
X14438750Y22272380D01*
X14438750Y22272380D02*
X14617321Y22391428D01*
X14617321Y22391428D02*
X14676845Y22450951D01*
X14081607Y22927142D02*
X13248273Y22927142D01*
X13962559Y22927142D02*
X14022083Y22986665D01*
X14022083Y22986665D02*
X14081607Y23105713D01*
X14081607Y23105713D02*
X14081607Y23284284D01*
X14081607Y23284284D02*
X14022083Y23403332D01*
X14022083Y23403332D02*
X13903035Y23462856D01*
X13903035Y23462856D02*
X13248273Y23462856D01*
X13248273Y24236665D02*
X13307797Y24117617D01*
X13307797Y24117617D02*
X13367321Y24058094D01*
X13367321Y24058094D02*
X13486369Y23998570D01*
X13486369Y23998570D02*
X13843511Y23998570D01*
X13843511Y23998570D02*
X13962559Y24058094D01*
X13962559Y24058094D02*
X14022083Y24117617D01*
X14022083Y24117617D02*
X14081607Y24236665D01*
X14081607Y24236665D02*
X14081607Y24415236D01*
X14081607Y24415236D02*
X14022083Y24534284D01*
X14022083Y24534284D02*
X13962559Y24593808D01*
X13962559Y24593808D02*
X13843511Y24653332D01*
X13843511Y24653332D02*
X13486369Y24653332D01*
X13486369Y24653332D02*
X13367321Y24593808D01*
X13367321Y24593808D02*
X13307797Y24534284D01*
X13307797Y24534284D02*
X13248273Y24415236D01*
X13248273Y24415236D02*
X13248273Y24236665D01*
X13248273Y25939046D02*
X14498273Y25939046D01*
X14498273Y25939046D02*
X14498273Y26415236D01*
X14498273Y26415236D02*
X14438750Y26534284D01*
X14438750Y26534284D02*
X14379226Y26593807D01*
X14379226Y26593807D02*
X14260178Y26653331D01*
X14260178Y26653331D02*
X14081607Y26653331D01*
X14081607Y26653331D02*
X13962559Y26593807D01*
X13962559Y26593807D02*
X13903035Y26534284D01*
X13903035Y26534284D02*
X13843511Y26415236D01*
X13843511Y26415236D02*
X13843511Y25939046D01*
X14498273Y27069998D02*
X13248273Y27367617D01*
X13248273Y27367617D02*
X14141130Y27605712D01*
X14141130Y27605712D02*
X13248273Y27843807D01*
X13248273Y27843807D02*
X14498273Y28141426D01*
X13248273Y29331902D02*
X13843511Y28915236D01*
X13248273Y28617617D02*
X14498273Y28617617D01*
X14498273Y28617617D02*
X14498273Y29093807D01*
X14498273Y29093807D02*
X14438750Y29212855D01*
X14438750Y29212855D02*
X14379226Y29272378D01*
X14379226Y29272378D02*
X14260178Y29331902D01*
X14260178Y29331902D02*
X14081607Y29331902D01*
X14081607Y29331902D02*
X13962559Y29272378D01*
X13962559Y29272378D02*
X13903035Y29212855D01*
X13903035Y29212855D02*
X13843511Y29093807D01*
X13843511Y29093807D02*
X13843511Y28617617D01*
X12772083Y29748569D02*
X12831607Y29808093D01*
X12831607Y29808093D02*
X13010178Y29927140D01*
X13010178Y29927140D02*
X13129226Y29986664D01*
X13129226Y29986664D02*
X13307797Y30046188D01*
X13307797Y30046188D02*
X13605416Y30105712D01*
X13605416Y30105712D02*
X13843511Y30105712D01*
X13843511Y30105712D02*
X14141130Y30046188D01*
X14141130Y30046188D02*
X14319702Y29986664D01*
X14319702Y29986664D02*
X14438750Y29927140D01*
X14438750Y29927140D02*
X14617321Y29808093D01*
X14617321Y29808093D02*
X14676845Y29748569D01*
X12473273Y4998572D02*
X12473273Y5772381D01*
X12473273Y5772381D02*
X11997083Y5355715D01*
X11997083Y5355715D02*
X11997083Y5534286D01*
X11997083Y5534286D02*
X11937559Y5653334D01*
X11937559Y5653334D02*
X11878035Y5712858D01*
X11878035Y5712858D02*
X11758988Y5772381D01*
X11758988Y5772381D02*
X11461369Y5772381D01*
X11461369Y5772381D02*
X11342321Y5712858D01*
X11342321Y5712858D02*
X11282797Y5653334D01*
X11282797Y5653334D02*
X11223273Y5534286D01*
X11223273Y5534286D02*
X11223273Y5177143D01*
X11223273Y5177143D02*
X11282797Y5058096D01*
X11282797Y5058096D02*
X11342321Y4998572D01*
X12473273Y6129524D02*
X11223273Y6546191D01*
X11223273Y6546191D02*
X12473273Y6962857D01*
X12473273Y7260477D02*
X12473273Y8034286D01*
X12473273Y8034286D02*
X11997083Y7617620D01*
X11997083Y7617620D02*
X11997083Y7796191D01*
X11997083Y7796191D02*
X11937559Y7915239D01*
X11937559Y7915239D02*
X11878035Y7974763D01*
X11878035Y7974763D02*
X11758988Y8034286D01*
X11758988Y8034286D02*
X11461369Y8034286D01*
X11461369Y8034286D02*
X11342321Y7974763D01*
X11342321Y7974763D02*
X11282797Y7915239D01*
X11282797Y7915239D02*
X11223273Y7796191D01*
X11223273Y7796191D02*
X11223273Y7439048D01*
X11223273Y7439048D02*
X11282797Y7320001D01*
X11282797Y7320001D02*
X11342321Y7260477D01*
X11342321Y8570001D02*
X11282797Y8629524D01*
X11282797Y8629524D02*
X11223273Y8570001D01*
X11223273Y8570001D02*
X11282797Y8510477D01*
X11282797Y8510477D02*
X11342321Y8570001D01*
X11342321Y8570001D02*
X11223273Y8570001D01*
X11997083Y8570001D02*
X11937559Y8629524D01*
X11937559Y8629524D02*
X11878035Y8570001D01*
X11878035Y8570001D02*
X11937559Y8510477D01*
X11937559Y8510477D02*
X11997083Y8570001D01*
X11997083Y8570001D02*
X11878035Y8570001D01*
X11282797Y9855715D02*
X11223273Y9974762D01*
X11223273Y9974762D02*
X11223273Y10212858D01*
X11223273Y10212858D02*
X11282797Y10331905D01*
X11282797Y10331905D02*
X11401845Y10391429D01*
X11401845Y10391429D02*
X11461369Y10391429D01*
X11461369Y10391429D02*
X11580416Y10331905D01*
X11580416Y10331905D02*
X11639940Y10212858D01*
X11639940Y10212858D02*
X11639940Y10034286D01*
X11639940Y10034286D02*
X11699464Y9915239D01*
X11699464Y9915239D02*
X11818511Y9855715D01*
X11818511Y9855715D02*
X11878035Y9855715D01*
X11878035Y9855715D02*
X11997083Y9915239D01*
X11997083Y9915239D02*
X12056607Y10034286D01*
X12056607Y10034286D02*
X12056607Y10212858D01*
X12056607Y10212858D02*
X11997083Y10331905D01*
X11282797Y11403334D02*
X11223273Y11284286D01*
X11223273Y11284286D02*
X11223273Y11046191D01*
X11223273Y11046191D02*
X11282797Y10927144D01*
X11282797Y10927144D02*
X11401845Y10867620D01*
X11401845Y10867620D02*
X11878035Y10867620D01*
X11878035Y10867620D02*
X11997083Y10927144D01*
X11997083Y10927144D02*
X12056607Y11046191D01*
X12056607Y11046191D02*
X12056607Y11284286D01*
X12056607Y11284286D02*
X11997083Y11403334D01*
X11997083Y11403334D02*
X11878035Y11462858D01*
X11878035Y11462858D02*
X11758988Y11462858D01*
X11758988Y11462858D02*
X11639940Y10867620D01*
X12056607Y11820001D02*
X12056607Y12296192D01*
X12473273Y11998573D02*
X11401845Y11998573D01*
X11401845Y11998573D02*
X11282797Y12058096D01*
X11282797Y12058096D02*
X11223273Y12177144D01*
X11223273Y12177144D02*
X11223273Y12296192D01*
X12473273Y13284287D02*
X11223273Y13700954D01*
X11223273Y13700954D02*
X12473273Y14117620D01*
X11342321Y15248573D02*
X11282797Y15189049D01*
X11282797Y15189049D02*
X11223273Y15010478D01*
X11223273Y15010478D02*
X11223273Y14891430D01*
X11223273Y14891430D02*
X11282797Y14712859D01*
X11282797Y14712859D02*
X11401845Y14593811D01*
X11401845Y14593811D02*
X11520892Y14534288D01*
X11520892Y14534288D02*
X11758988Y14474764D01*
X11758988Y14474764D02*
X11937559Y14474764D01*
X11937559Y14474764D02*
X12175654Y14534288D01*
X12175654Y14534288D02*
X12294702Y14593811D01*
X12294702Y14593811D02*
X12413750Y14712859D01*
X12413750Y14712859D02*
X12473273Y14891430D01*
X12473273Y14891430D02*
X12473273Y15010478D01*
X12473273Y15010478D02*
X12413750Y15189049D01*
X12413750Y15189049D02*
X12354226Y15248573D01*
X11342321Y16498573D02*
X11282797Y16439049D01*
X11282797Y16439049D02*
X11223273Y16260478D01*
X11223273Y16260478D02*
X11223273Y16141430D01*
X11223273Y16141430D02*
X11282797Y15962859D01*
X11282797Y15962859D02*
X11401845Y15843811D01*
X11401845Y15843811D02*
X11520892Y15784288D01*
X11520892Y15784288D02*
X11758988Y15724764D01*
X11758988Y15724764D02*
X11937559Y15724764D01*
X11937559Y15724764D02*
X12175654Y15784288D01*
X12175654Y15784288D02*
X12294702Y15843811D01*
X12294702Y15843811D02*
X12413750Y15962859D01*
X12413750Y15962859D02*
X12473273Y16141430D01*
X12473273Y16141430D02*
X12473273Y16260478D01*
X12473273Y16260478D02*
X12413750Y16439049D01*
X12413750Y16439049D02*
X12354226Y16498573D01*
X12056607Y17605716D02*
X12056607Y18081907D01*
X12473273Y17784288D02*
X11401845Y17784288D01*
X11401845Y17784288D02*
X11282797Y17843811D01*
X11282797Y17843811D02*
X11223273Y17962859D01*
X11223273Y17962859D02*
X11223273Y18081907D01*
X11223273Y18677145D02*
X11282797Y18558097D01*
X11282797Y18558097D02*
X11342321Y18498574D01*
X11342321Y18498574D02*
X11461369Y18439050D01*
X11461369Y18439050D02*
X11818511Y18439050D01*
X11818511Y18439050D02*
X11937559Y18498574D01*
X11937559Y18498574D02*
X11997083Y18558097D01*
X11997083Y18558097D02*
X12056607Y18677145D01*
X12056607Y18677145D02*
X12056607Y18855716D01*
X12056607Y18855716D02*
X11997083Y18974764D01*
X11997083Y18974764D02*
X11937559Y19034288D01*
X11937559Y19034288D02*
X11818511Y19093812D01*
X11818511Y19093812D02*
X11461369Y19093812D01*
X11461369Y19093812D02*
X11342321Y19034288D01*
X11342321Y19034288D02*
X11282797Y18974764D01*
X11282797Y18974764D02*
X11223273Y18855716D01*
X11223273Y18855716D02*
X11223273Y18677145D01*
X12473273Y20260478D02*
X12473273Y21034287D01*
X12473273Y21034287D02*
X11997083Y20617621D01*
X11997083Y20617621D02*
X11997083Y20796192D01*
X11997083Y20796192D02*
X11937559Y20915240D01*
X11937559Y20915240D02*
X11878035Y20974764D01*
X11878035Y20974764D02*
X11758988Y21034287D01*
X11758988Y21034287D02*
X11461369Y21034287D01*
X11461369Y21034287D02*
X11342321Y20974764D01*
X11342321Y20974764D02*
X11282797Y20915240D01*
X11282797Y20915240D02*
X11223273Y20796192D01*
X11223273Y20796192D02*
X11223273Y20439049D01*
X11223273Y20439049D02*
X11282797Y20320002D01*
X11282797Y20320002D02*
X11342321Y20260478D01*
X12056607Y21450954D02*
X11223273Y21748573D01*
X11223273Y21748573D02*
X12056607Y22046192D01*
X12473273Y22403335D02*
X12473273Y23177144D01*
X12473273Y23177144D02*
X11997083Y22760478D01*
X11997083Y22760478D02*
X11997083Y22939049D01*
X11997083Y22939049D02*
X11937559Y23058097D01*
X11937559Y23058097D02*
X11878035Y23117621D01*
X11878035Y23117621D02*
X11758988Y23177144D01*
X11758988Y23177144D02*
X11461369Y23177144D01*
X11461369Y23177144D02*
X11342321Y23117621D01*
X11342321Y23117621D02*
X11282797Y23058097D01*
X11282797Y23058097D02*
X11223273Y22939049D01*
X11223273Y22939049D02*
X11223273Y22581906D01*
X11223273Y22581906D02*
X11282797Y22462859D01*
X11282797Y22462859D02*
X11342321Y22403335D01*
X9198273Y5772381D02*
X9198273Y5058096D01*
X9198273Y5415239D02*
X10448273Y5415239D01*
X10448273Y5415239D02*
X10269702Y5296191D01*
X10269702Y5296191D02*
X10150654Y5177143D01*
X10150654Y5177143D02*
X10091130Y5058096D01*
X10448273Y6129524D02*
X9198273Y6546191D01*
X9198273Y6546191D02*
X10448273Y6962857D01*
X9912559Y7558096D02*
X9972083Y7439048D01*
X9972083Y7439048D02*
X10031607Y7379525D01*
X10031607Y7379525D02*
X10150654Y7320001D01*
X10150654Y7320001D02*
X10210178Y7320001D01*
X10210178Y7320001D02*
X10329226Y7379525D01*
X10329226Y7379525D02*
X10388750Y7439048D01*
X10388750Y7439048D02*
X10448273Y7558096D01*
X10448273Y7558096D02*
X10448273Y7796191D01*
X10448273Y7796191D02*
X10388750Y7915239D01*
X10388750Y7915239D02*
X10329226Y7974763D01*
X10329226Y7974763D02*
X10210178Y8034286D01*
X10210178Y8034286D02*
X10150654Y8034286D01*
X10150654Y8034286D02*
X10031607Y7974763D01*
X10031607Y7974763D02*
X9972083Y7915239D01*
X9972083Y7915239D02*
X9912559Y7796191D01*
X9912559Y7796191D02*
X9912559Y7558096D01*
X9912559Y7558096D02*
X9853035Y7439048D01*
X9853035Y7439048D02*
X9793511Y7379525D01*
X9793511Y7379525D02*
X9674464Y7320001D01*
X9674464Y7320001D02*
X9436369Y7320001D01*
X9436369Y7320001D02*
X9317321Y7379525D01*
X9317321Y7379525D02*
X9257797Y7439048D01*
X9257797Y7439048D02*
X9198273Y7558096D01*
X9198273Y7558096D02*
X9198273Y7796191D01*
X9198273Y7796191D02*
X9257797Y7915239D01*
X9257797Y7915239D02*
X9317321Y7974763D01*
X9317321Y7974763D02*
X9436369Y8034286D01*
X9436369Y8034286D02*
X9674464Y8034286D01*
X9674464Y8034286D02*
X9793511Y7974763D01*
X9793511Y7974763D02*
X9853035Y7915239D01*
X9853035Y7915239D02*
X9912559Y7796191D01*
X9317321Y8570001D02*
X9257797Y8629524D01*
X9257797Y8629524D02*
X9198273Y8570001D01*
X9198273Y8570001D02*
X9257797Y8510477D01*
X9257797Y8510477D02*
X9317321Y8570001D01*
X9317321Y8570001D02*
X9198273Y8570001D01*
X9972083Y8570001D02*
X9912559Y8629524D01*
X9912559Y8629524D02*
X9853035Y8570001D01*
X9853035Y8570001D02*
X9912559Y8510477D01*
X9912559Y8510477D02*
X9972083Y8570001D01*
X9972083Y8570001D02*
X9853035Y8570001D01*
X9257797Y9855715D02*
X9198273Y9974762D01*
X9198273Y9974762D02*
X9198273Y10212858D01*
X9198273Y10212858D02*
X9257797Y10331905D01*
X9257797Y10331905D02*
X9376845Y10391429D01*
X9376845Y10391429D02*
X9436369Y10391429D01*
X9436369Y10391429D02*
X9555416Y10331905D01*
X9555416Y10331905D02*
X9614940Y10212858D01*
X9614940Y10212858D02*
X9614940Y10034286D01*
X9614940Y10034286D02*
X9674464Y9915239D01*
X9674464Y9915239D02*
X9793511Y9855715D01*
X9793511Y9855715D02*
X9853035Y9855715D01*
X9853035Y9855715D02*
X9972083Y9915239D01*
X9972083Y9915239D02*
X10031607Y10034286D01*
X10031607Y10034286D02*
X10031607Y10212858D01*
X10031607Y10212858D02*
X9972083Y10331905D01*
X9257797Y11403334D02*
X9198273Y11284286D01*
X9198273Y11284286D02*
X9198273Y11046191D01*
X9198273Y11046191D02*
X9257797Y10927144D01*
X9257797Y10927144D02*
X9376845Y10867620D01*
X9376845Y10867620D02*
X9853035Y10867620D01*
X9853035Y10867620D02*
X9972083Y10927144D01*
X9972083Y10927144D02*
X10031607Y11046191D01*
X10031607Y11046191D02*
X10031607Y11284286D01*
X10031607Y11284286D02*
X9972083Y11403334D01*
X9972083Y11403334D02*
X9853035Y11462858D01*
X9853035Y11462858D02*
X9733988Y11462858D01*
X9733988Y11462858D02*
X9614940Y10867620D01*
X10031607Y11820001D02*
X10031607Y12296192D01*
X10448273Y11998573D02*
X9376845Y11998573D01*
X9376845Y11998573D02*
X9257797Y12058096D01*
X9257797Y12058096D02*
X9198273Y12177144D01*
X9198273Y12177144D02*
X9198273Y12296192D01*
X10448273Y13284287D02*
X9198273Y13700954D01*
X9198273Y13700954D02*
X10448273Y14117620D01*
X9317321Y15248573D02*
X9257797Y15189049D01*
X9257797Y15189049D02*
X9198273Y15010478D01*
X9198273Y15010478D02*
X9198273Y14891430D01*
X9198273Y14891430D02*
X9257797Y14712859D01*
X9257797Y14712859D02*
X9376845Y14593811D01*
X9376845Y14593811D02*
X9495892Y14534288D01*
X9495892Y14534288D02*
X9733988Y14474764D01*
X9733988Y14474764D02*
X9912559Y14474764D01*
X9912559Y14474764D02*
X10150654Y14534288D01*
X10150654Y14534288D02*
X10269702Y14593811D01*
X10269702Y14593811D02*
X10388750Y14712859D01*
X10388750Y14712859D02*
X10448273Y14891430D01*
X10448273Y14891430D02*
X10448273Y15010478D01*
X10448273Y15010478D02*
X10388750Y15189049D01*
X10388750Y15189049D02*
X10329226Y15248573D01*
X9317321Y16498573D02*
X9257797Y16439049D01*
X9257797Y16439049D02*
X9198273Y16260478D01*
X9198273Y16260478D02*
X9198273Y16141430D01*
X9198273Y16141430D02*
X9257797Y15962859D01*
X9257797Y15962859D02*
X9376845Y15843811D01*
X9376845Y15843811D02*
X9495892Y15784288D01*
X9495892Y15784288D02*
X9733988Y15724764D01*
X9733988Y15724764D02*
X9912559Y15724764D01*
X9912559Y15724764D02*
X10150654Y15784288D01*
X10150654Y15784288D02*
X10269702Y15843811D01*
X10269702Y15843811D02*
X10388750Y15962859D01*
X10388750Y15962859D02*
X10448273Y16141430D01*
X10448273Y16141430D02*
X10448273Y16260478D01*
X10448273Y16260478D02*
X10388750Y16439049D01*
X10388750Y16439049D02*
X10329226Y16498573D01*
X10031607Y17605716D02*
X10031607Y18081907D01*
X10448273Y17784288D02*
X9376845Y17784288D01*
X9376845Y17784288D02*
X9257797Y17843811D01*
X9257797Y17843811D02*
X9198273Y17962859D01*
X9198273Y17962859D02*
X9198273Y18081907D01*
X9198273Y18677145D02*
X9257797Y18558097D01*
X9257797Y18558097D02*
X9317321Y18498574D01*
X9317321Y18498574D02*
X9436369Y18439050D01*
X9436369Y18439050D02*
X9793511Y18439050D01*
X9793511Y18439050D02*
X9912559Y18498574D01*
X9912559Y18498574D02*
X9972083Y18558097D01*
X9972083Y18558097D02*
X10031607Y18677145D01*
X10031607Y18677145D02*
X10031607Y18855716D01*
X10031607Y18855716D02*
X9972083Y18974764D01*
X9972083Y18974764D02*
X9912559Y19034288D01*
X9912559Y19034288D02*
X9793511Y19093812D01*
X9793511Y19093812D02*
X9436369Y19093812D01*
X9436369Y19093812D02*
X9317321Y19034288D01*
X9317321Y19034288D02*
X9257797Y18974764D01*
X9257797Y18974764D02*
X9198273Y18855716D01*
X9198273Y18855716D02*
X9198273Y18677145D01*
X9198273Y21034287D02*
X9198273Y20320002D01*
X9198273Y20677145D02*
X10448273Y20677145D01*
X10448273Y20677145D02*
X10269702Y20558097D01*
X10269702Y20558097D02*
X10150654Y20439049D01*
X10150654Y20439049D02*
X10091130Y20320002D01*
X10448273Y21391430D02*
X9198273Y21808097D01*
X9198273Y21808097D02*
X10448273Y22224763D01*
X9912559Y22820002D02*
X9972083Y22700954D01*
X9972083Y22700954D02*
X10031607Y22641431D01*
X10031607Y22641431D02*
X10150654Y22581907D01*
X10150654Y22581907D02*
X10210178Y22581907D01*
X10210178Y22581907D02*
X10329226Y22641431D01*
X10329226Y22641431D02*
X10388750Y22700954D01*
X10388750Y22700954D02*
X10448273Y22820002D01*
X10448273Y22820002D02*
X10448273Y23058097D01*
X10448273Y23058097D02*
X10388750Y23177145D01*
X10388750Y23177145D02*
X10329226Y23236669D01*
X10329226Y23236669D02*
X10210178Y23296192D01*
X10210178Y23296192D02*
X10150654Y23296192D01*
X10150654Y23296192D02*
X10031607Y23236669D01*
X10031607Y23236669D02*
X9972083Y23177145D01*
X9972083Y23177145D02*
X9912559Y23058097D01*
X9912559Y23058097D02*
X9912559Y22820002D01*
X9912559Y22820002D02*
X9853035Y22700954D01*
X9853035Y22700954D02*
X9793511Y22641431D01*
X9793511Y22641431D02*
X9674464Y22581907D01*
X9674464Y22581907D02*
X9436369Y22581907D01*
X9436369Y22581907D02*
X9317321Y22641431D01*
X9317321Y22641431D02*
X9257797Y22700954D01*
X9257797Y22700954D02*
X9198273Y22820002D01*
X9198273Y22820002D02*
X9198273Y23058097D01*
X9198273Y23058097D02*
X9257797Y23177145D01*
X9257797Y23177145D02*
X9317321Y23236669D01*
X9317321Y23236669D02*
X9436369Y23296192D01*
X9436369Y23296192D02*
X9674464Y23296192D01*
X9674464Y23296192D02*
X9793511Y23236669D01*
X9793511Y23236669D02*
X9853035Y23177145D01*
X9853035Y23177145D02*
X9912559Y23058097D01*
X5148273Y5831905D02*
X5743511Y5415239D01*
X5148273Y5117620D02*
X6398273Y5117620D01*
X6398273Y5117620D02*
X6398273Y5593810D01*
X6398273Y5593810D02*
X6338750Y5712858D01*
X6338750Y5712858D02*
X6279226Y5772381D01*
X6279226Y5772381D02*
X6160178Y5831905D01*
X6160178Y5831905D02*
X5981607Y5831905D01*
X5981607Y5831905D02*
X5862559Y5772381D01*
X5862559Y5772381D02*
X5803035Y5712858D01*
X5803035Y5712858D02*
X5743511Y5593810D01*
X5743511Y5593810D02*
X5743511Y5117620D01*
X5803035Y6367620D02*
X5803035Y6784286D01*
X5148273Y6962858D02*
X5148273Y6367620D01*
X5148273Y6367620D02*
X6398273Y6367620D01*
X6398273Y6367620D02*
X6398273Y6962858D01*
X6398273Y7320000D02*
X5148273Y7736667D01*
X5148273Y7736667D02*
X6398273Y8153333D01*
X6398273Y9558096D02*
X6398273Y9677143D01*
X6398273Y9677143D02*
X6338750Y9796191D01*
X6338750Y9796191D02*
X6279226Y9855715D01*
X6279226Y9855715D02*
X6160178Y9915239D01*
X6160178Y9915239D02*
X5922083Y9974762D01*
X5922083Y9974762D02*
X5624464Y9974762D01*
X5624464Y9974762D02*
X5386369Y9915239D01*
X5386369Y9915239D02*
X5267321Y9855715D01*
X5267321Y9855715D02*
X5207797Y9796191D01*
X5207797Y9796191D02*
X5148273Y9677143D01*
X5148273Y9677143D02*
X5148273Y9558096D01*
X5148273Y9558096D02*
X5207797Y9439048D01*
X5207797Y9439048D02*
X5267321Y9379524D01*
X5267321Y9379524D02*
X5386369Y9320001D01*
X5386369Y9320001D02*
X5624464Y9260477D01*
X5624464Y9260477D02*
X5922083Y9260477D01*
X5922083Y9260477D02*
X6160178Y9320001D01*
X6160178Y9320001D02*
X6279226Y9379524D01*
X6279226Y9379524D02*
X6338750Y9439048D01*
X6338750Y9439048D02*
X6398273Y9558096D01*
X5267321Y10510477D02*
X5207797Y10570000D01*
X5207797Y10570000D02*
X5148273Y10510477D01*
X5148273Y10510477D02*
X5207797Y10450953D01*
X5207797Y10450953D02*
X5267321Y10510477D01*
X5267321Y10510477D02*
X5148273Y10510477D01*
X6279226Y11046191D02*
X6338750Y11105715D01*
X6338750Y11105715D02*
X6398273Y11224762D01*
X6398273Y11224762D02*
X6398273Y11522381D01*
X6398273Y11522381D02*
X6338750Y11641429D01*
X6338750Y11641429D02*
X6279226Y11700953D01*
X6279226Y11700953D02*
X6160178Y11760476D01*
X6160178Y11760476D02*
X6041130Y11760476D01*
X6041130Y11760476D02*
X5862559Y11700953D01*
X5862559Y11700953D02*
X5148273Y10986667D01*
X5148273Y10986667D02*
X5148273Y11760476D01*
D11*
X0Y0D02*
X0Y30480000D01*
X29570000Y30480000D02*
X29570000Y0D01*
X0Y30480000D02*
X29570000Y30480000D01*
X29570000Y0D02*
X0Y0D01*
M02*
