G04 #@! TF.GenerationSoftware,KiCad,Pcbnew,(6.99.0-820-g3733ca4500)*
G04 #@! TF.CreationDate,2022-03-15T16:29:12+11:00*
G04 #@! TF.ProjectId,JtagArm20Adapter,4a746167-4172-46d3-9230-416461707465,rev?*
G04 #@! TF.SameCoordinates,Original*
G04 #@! TF.FileFunction,Paste,Top*
G04 #@! TF.FilePolarity,Positive*
%FSLAX46Y46*%
G04 Gerber Fmt 4.6, Leading zero omitted, Abs format (unit mm)*
G04 Created by KiCad (PCBNEW (6.99.0-820-g3733ca4500)) date 2022-03-15 16:29:12*
%MOMM*%
%LPD*%
G01*
G04 APERTURE LIST*
G04 #@! TA.AperFunction,Profile*
%ADD10C,0.050000*%
G04 #@! TD*
%ADD11R,2.400000X0.740000*%
%ADD12R,3.150000X1.000000*%
G04 APERTURE END LIST*
D10*
X138430000Y-109220000D02*
X138430000Y-78740000D01*
X161290000Y-78740000D02*
X161290000Y-109220000D01*
X138430000Y-78740000D02*
X161290000Y-78740000D01*
X161290000Y-109220000D02*
X138430000Y-109220000D01*
D11*
X159429999Y-107949999D03*
X155529999Y-107949999D03*
X159429999Y-106679999D03*
X155529999Y-106679999D03*
X159429999Y-105409999D03*
X155529999Y-105409999D03*
X159429999Y-104139999D03*
X155529999Y-104139999D03*
X159429999Y-102869999D03*
X155529999Y-102869999D03*
X159429999Y-90804999D03*
X155529999Y-90804999D03*
X159429999Y-89534999D03*
X155529999Y-89534999D03*
X159429999Y-88264999D03*
X155529999Y-88264999D03*
X159429999Y-86994999D03*
X155529999Y-86994999D03*
X159429999Y-85724999D03*
X155529999Y-85724999D03*
X159429999Y-84454999D03*
X155529999Y-84454999D03*
X159429999Y-83184999D03*
X155529999Y-83184999D03*
X159429999Y-81914999D03*
X155529999Y-81914999D03*
X159429999Y-80644999D03*
X155529999Y-80644999D03*
X159429999Y-79374999D03*
X155529999Y-79374999D03*
D12*
X146064999Y-81025999D03*
X151114999Y-81025999D03*
X146064999Y-83565999D03*
X151114999Y-83565999D03*
X146064999Y-86105999D03*
X151114999Y-86105999D03*
M02*
