M48
; DRILL file {KiCad (6.99.0-820-g3733ca4500)} date Tuesday, 15 March 2022 at 04:29:17 pm
; FORMAT={-:-/ absolute / metric / decimal}
; #@! TF.CreationDate,2022-03-15T16:29:17+11:00
; #@! TF.GenerationSoftware,Kicad,Pcbnew,(6.99.0-820-g3733ca4500)
; #@! TF.FileFunction,Plated,1,2,PTH
FMAT,2
METRIC
; #@! TA.AperFunction,Plated,PTH,ViaDrill
T1C0.200
; #@! TA.AperFunction,Plated,PTH,ViaDrill
T2C0.250
; #@! TA.AperFunction,Plated,PTH,ViaDrill
T3C0.400
; #@! TA.AperFunction,Plated,PTH,ComponentDrill
T4C1.000
%
G90
G05
T1
X143.002Y-86.487
X146.177Y-88.801
X146.812Y-96.52
X151.257Y-90.932
X151.257Y-107.95
X151.892Y-89.535
X151.892Y-95.25
X151.892Y-106.68
X152.527Y-88.392
X152.527Y-104.14
X153.67Y-85.725
X153.67Y-102.87
X157.861Y-85.725
X159.385Y-96.52
T2
X145.288Y-91.567
X150.495Y-87.122
X150.495Y-90.043
X151.13Y-82.042
X151.892Y-84.582
T3
X139.192Y-79.502
X139.192Y-81.026
X139.192Y-107.061
X139.192Y-108.458
X141.224Y-79.502
X141.224Y-108.458
X143.256Y-79.502
X143.256Y-108.458
X144.653Y-96.901
X144.907Y-93.091
X145.288Y-79.502
X145.288Y-100.965
X145.288Y-108.458
X146.05Y-106.299
X147.32Y-79.502
X147.32Y-108.458
X148.59Y-80.899
X148.59Y-83.947
X148.717Y-86.233
X149.352Y-79.502
X149.352Y-108.458
X151.384Y-79.502
X153.416Y-79.502
X153.416Y-82.296
X155.067Y-97.79
X155.067Y-101.092
X155.194Y-93.853
X157.48Y-80.01
X157.48Y-81.28
X157.48Y-88.9
X157.48Y-91.44
X157.48Y-92.71
X157.48Y-107.95
X160.528Y-93.98
X160.528Y-96.012
X160.528Y-97.536
X160.528Y-99.568
X160.528Y-101.6
T4
X139.7Y-82.55
X139.7Y-85.09
X139.7Y-87.63
X139.7Y-90.17
X139.7Y-92.71
X139.7Y-95.25
X139.7Y-97.79
X139.7Y-100.33
X139.7Y-102.87
X139.7Y-105.41
X142.24Y-82.55
X142.24Y-85.09
X142.24Y-87.63
X142.24Y-90.17
X142.24Y-92.71
X142.24Y-95.25
X142.24Y-97.79
X142.24Y-100.33
X142.24Y-102.87
X142.24Y-105.41
X148.59Y-92.71
X148.59Y-95.25
X148.59Y-97.79
X148.59Y-100.33
X148.59Y-102.87
X148.59Y-105.41
T0
M30
