G04 #@! TF.GenerationSoftware,KiCad,Pcbnew,(6.99.0-820-g3733ca4500)*
G04 #@! TF.CreationDate,2022-03-15T16:29:12+11:00*
G04 #@! TF.ProjectId,JtagArm20Adapter,4a746167-4172-46d3-9230-416461707465,rev?*
G04 #@! TF.SameCoordinates,Original*
G04 #@! TF.FileFunction,Copper,L2,Bot*
G04 #@! TF.FilePolarity,Positive*
%FSLAX46Y46*%
G04 Gerber Fmt 4.6, Leading zero omitted, Abs format (unit mm)*
G04 Created by KiCad (PCBNEW (6.99.0-820-g3733ca4500)) date 2022-03-15 16:29:12*
%MOMM*%
%LPD*%
G01*
G04 APERTURE LIST*
G04 #@! TA.AperFunction,Profile*
%ADD10C,0.050000*%
G04 #@! TD*
G04 #@! TA.AperFunction,ComponentPad*
%ADD11R,1.700000X1.700000*%
G04 #@! TD*
G04 #@! TA.AperFunction,ComponentPad*
%ADD12O,1.700000X1.700000*%
G04 #@! TD*
G04 #@! TA.AperFunction,ViaPad*
%ADD13C,0.450000*%
G04 #@! TD*
G04 #@! TA.AperFunction,ViaPad*
%ADD14C,1.000000*%
G04 #@! TD*
G04 #@! TA.AperFunction,ViaPad*
%ADD15C,0.900000*%
G04 #@! TD*
G04 #@! TA.AperFunction,Conductor*
%ADD16C,0.200000*%
G04 #@! TD*
G04 #@! TA.AperFunction,Conductor*
%ADD17C,0.508000*%
G04 #@! TD*
G04 APERTURE END LIST*
D10*
X138430000Y-109220000D02*
X138430000Y-78740000D01*
X161290000Y-78740000D02*
X161290000Y-109220000D01*
X138430000Y-78740000D02*
X161290000Y-78740000D01*
X161290000Y-109220000D02*
X138430000Y-109220000D01*
D11*
X142239999Y-82549999D03*
D12*
X139699999Y-82549999D03*
X142239999Y-85089999D03*
X139699999Y-85089999D03*
X142239999Y-87629999D03*
X139699999Y-87629999D03*
X142239999Y-90169999D03*
X139699999Y-90169999D03*
X142239999Y-92709999D03*
X139699999Y-92709999D03*
X142239999Y-95249999D03*
X139699999Y-95249999D03*
X142239999Y-97789999D03*
X139699999Y-97789999D03*
X142239999Y-100329999D03*
X139699999Y-100329999D03*
X142239999Y-102869999D03*
X139699999Y-102869999D03*
X142239999Y-105409999D03*
X139699999Y-105409999D03*
D11*
X148589999Y-92709999D03*
D12*
X148589999Y-95249999D03*
X148589999Y-97789999D03*
X148589999Y-100329999D03*
X148589999Y-102869999D03*
X148589999Y-105409999D03*
D13*
X146812000Y-96520000D03*
D14*
X148590000Y-80899000D03*
X153416000Y-79502000D03*
X141224000Y-108458000D03*
X147320000Y-108458000D03*
X146050000Y-106299000D03*
X139192000Y-108458000D03*
X160528000Y-101600000D03*
X147320000Y-79502000D03*
X148590000Y-83947000D03*
X148717000Y-86233000D03*
X144653000Y-96901000D03*
X155067000Y-97790000D03*
X143256000Y-79502000D03*
X160528000Y-93980000D03*
X141224000Y-79502000D03*
X145288000Y-79502000D03*
X149352000Y-108458000D03*
X139192000Y-81026000D03*
X139192000Y-79502000D03*
X157480000Y-91440000D03*
X155194000Y-93853000D03*
X145288000Y-108458000D03*
X149352000Y-79502000D03*
X144907000Y-93091000D03*
X157480000Y-80010000D03*
X157480000Y-88900000D03*
X151384000Y-79502000D03*
X160528000Y-99568000D03*
X157480000Y-81280000D03*
X139192000Y-107061000D03*
X155067000Y-101092000D03*
X143256000Y-108458000D03*
X160528000Y-96012000D03*
X145288000Y-100965000D03*
X160528000Y-97536000D03*
X153416000Y-82296000D03*
D13*
X152527000Y-104140000D03*
X152527000Y-88392000D03*
X150495000Y-87122000D03*
X150495000Y-90043000D03*
X151892000Y-84582000D03*
X151892000Y-95250000D03*
X151892000Y-106680000D03*
X151892000Y-89535000D03*
X151257000Y-90932000D03*
X151130000Y-82042000D03*
X151257000Y-107950000D03*
D15*
X157480000Y-107950000D03*
D13*
X145288000Y-91567000D03*
X143002000Y-86487000D03*
D15*
X157480000Y-92710000D03*
D13*
X146177233Y-88800833D03*
X153670000Y-102870000D03*
X153670000Y-85725000D03*
X157861000Y-85725000D03*
X159385000Y-96520000D03*
D16*
X146177000Y-85090000D02*
X142240000Y-85090000D01*
X146812000Y-85725000D02*
X146177000Y-85090000D01*
X146812000Y-96520000D02*
X146812000Y-85725000D01*
X152527000Y-104140000D02*
X152527000Y-88392000D01*
X150495000Y-90043000D02*
X150495000Y-87122000D01*
X151892000Y-95250000D02*
X151892000Y-106680000D01*
X151892000Y-89535000D02*
X151892000Y-84582000D01*
X151892000Y-89535000D02*
X151892000Y-95250000D01*
X151257000Y-82169000D02*
X151130000Y-82042000D01*
X148590000Y-100330000D02*
X149792081Y-100330000D01*
X151257000Y-90932000D02*
X151257000Y-100330000D01*
X149792081Y-100330000D02*
X151257000Y-100330000D01*
X151257000Y-100330000D02*
X151257000Y-107950000D01*
X151257000Y-90932000D02*
X151257000Y-82169000D01*
D17*
X157480000Y-107950000D02*
X157480000Y-92710000D01*
D16*
X145288000Y-88773000D02*
X145288000Y-91567000D01*
X143002000Y-86487000D02*
X145288000Y-88773000D01*
X146177233Y-90804767D02*
X146177000Y-90805000D01*
X143442081Y-105410000D02*
X142240000Y-105410000D01*
X146177000Y-90805000D02*
X146177000Y-102675081D01*
X146177000Y-102675081D02*
X143442081Y-105410000D01*
X146177233Y-88800833D02*
X146177233Y-90804767D01*
X153670000Y-85725000D02*
X153670000Y-102870000D01*
X159385000Y-87249000D02*
X157861000Y-85725000D01*
X159385000Y-96520000D02*
X159385000Y-87249000D01*
G04 #@! TA.AperFunction,Conductor*
G36*
X161147648Y-78882352D02*
G01*
X161162000Y-78917000D01*
X161162000Y-109043000D01*
X161147648Y-109077648D01*
X161113000Y-109092000D01*
X138607000Y-109092000D01*
X138572352Y-109077648D01*
X138558000Y-109043000D01*
X138558000Y-106300108D01*
X138572352Y-106265460D01*
X138607000Y-106251108D01*
X138643050Y-106266921D01*
X138775724Y-106411043D01*
X138778699Y-106413782D01*
X138953099Y-106549522D01*
X138956484Y-106551734D01*
X139150847Y-106656918D01*
X139154542Y-106658539D01*
X139363572Y-106730299D01*
X139367484Y-106731290D01*
X139436388Y-106742788D01*
X139443654Y-106741107D01*
X139446000Y-106737349D01*
X139446000Y-106734645D01*
X139954000Y-106734645D01*
X139956855Y-106741537D01*
X139960948Y-106743233D01*
X140032516Y-106731290D01*
X140036428Y-106730299D01*
X140245458Y-106658539D01*
X140249153Y-106656918D01*
X140443516Y-106551734D01*
X140446901Y-106549522D01*
X140621301Y-106413782D01*
X140624270Y-106411049D01*
X140773956Y-106248446D01*
X140776432Y-106245265D01*
X140897313Y-106060244D01*
X140899230Y-106056701D01*
X140988011Y-105854302D01*
X140989317Y-105850498D01*
X141034152Y-105673447D01*
X141033076Y-105666067D01*
X141030305Y-105664000D01*
X139963747Y-105664000D01*
X139956855Y-105666855D01*
X139954000Y-105673747D01*
X139954000Y-106734645D01*
X139446000Y-106734645D01*
X139446000Y-105410000D01*
X141234659Y-105410000D01*
X141234895Y-105412396D01*
X141252711Y-105593284D01*
X141253976Y-105606132D01*
X141254674Y-105608433D01*
X141310485Y-105792418D01*
X141310487Y-105792423D01*
X141311186Y-105794727D01*
X141312322Y-105796853D01*
X141312324Y-105796857D01*
X141402954Y-105966414D01*
X141402957Y-105966419D01*
X141404090Y-105968538D01*
X141529117Y-106120883D01*
X141681462Y-106245910D01*
X141683581Y-106247043D01*
X141683586Y-106247046D01*
X141853143Y-106337676D01*
X141853147Y-106337678D01*
X141855273Y-106338814D01*
X141857577Y-106339513D01*
X141857582Y-106339515D01*
X142041567Y-106395326D01*
X142043868Y-106396024D01*
X142046256Y-106396259D01*
X142046260Y-106396260D01*
X142237604Y-106415105D01*
X142240000Y-106415341D01*
X142242396Y-106415105D01*
X142433740Y-106396260D01*
X142433744Y-106396259D01*
X142436132Y-106396024D01*
X142438433Y-106395326D01*
X142622418Y-106339515D01*
X142622423Y-106339513D01*
X142624727Y-106338814D01*
X142626853Y-106337678D01*
X142626857Y-106337676D01*
X142796414Y-106247046D01*
X142796419Y-106247043D01*
X142798538Y-106245910D01*
X142950883Y-106120883D01*
X143075910Y-105968538D01*
X143077043Y-105966419D01*
X143077046Y-105966414D01*
X143167676Y-105796857D01*
X143167678Y-105796853D01*
X143168814Y-105794727D01*
X143169514Y-105792419D01*
X143169515Y-105792417D01*
X143198983Y-105695276D01*
X143222775Y-105666286D01*
X143245873Y-105660500D01*
X143412584Y-105660500D01*
X143422141Y-105661442D01*
X143442081Y-105665408D01*
X143446817Y-105664466D01*
X143535087Y-105646908D01*
X143535088Y-105646908D01*
X143539822Y-105645966D01*
X143569617Y-105626057D01*
X143622682Y-105590601D01*
X143633980Y-105573692D01*
X143640074Y-105566267D01*
X143796341Y-105410000D01*
X147584659Y-105410000D01*
X147584895Y-105412396D01*
X147602711Y-105593284D01*
X147603976Y-105606132D01*
X147604674Y-105608433D01*
X147660485Y-105792418D01*
X147660487Y-105792423D01*
X147661186Y-105794727D01*
X147662322Y-105796853D01*
X147662324Y-105796857D01*
X147752954Y-105966414D01*
X147752957Y-105966419D01*
X147754090Y-105968538D01*
X147879117Y-106120883D01*
X148031462Y-106245910D01*
X148033581Y-106247043D01*
X148033586Y-106247046D01*
X148203143Y-106337676D01*
X148203147Y-106337678D01*
X148205273Y-106338814D01*
X148207577Y-106339513D01*
X148207582Y-106339515D01*
X148391567Y-106395326D01*
X148393868Y-106396024D01*
X148396256Y-106396259D01*
X148396260Y-106396260D01*
X148587604Y-106415105D01*
X148590000Y-106415341D01*
X148592396Y-106415105D01*
X148783740Y-106396260D01*
X148783744Y-106396259D01*
X148786132Y-106396024D01*
X148788433Y-106395326D01*
X148972418Y-106339515D01*
X148972423Y-106339513D01*
X148974727Y-106338814D01*
X148976853Y-106337678D01*
X148976857Y-106337676D01*
X149146414Y-106247046D01*
X149146419Y-106247043D01*
X149148538Y-106245910D01*
X149300883Y-106120883D01*
X149425910Y-105968538D01*
X149427043Y-105966419D01*
X149427046Y-105966414D01*
X149517676Y-105796857D01*
X149517678Y-105796853D01*
X149518814Y-105794727D01*
X149519513Y-105792423D01*
X149519515Y-105792418D01*
X149575326Y-105608433D01*
X149576024Y-105606132D01*
X149577290Y-105593284D01*
X149595105Y-105412396D01*
X149595341Y-105410000D01*
X149576024Y-105213868D01*
X149555178Y-105145148D01*
X149519515Y-105027582D01*
X149519513Y-105027577D01*
X149518814Y-105025273D01*
X149517678Y-105023147D01*
X149517676Y-105023143D01*
X149427046Y-104853586D01*
X149427043Y-104853581D01*
X149425910Y-104851462D01*
X149300883Y-104699117D01*
X149148538Y-104574090D01*
X149146419Y-104572957D01*
X149146414Y-104572954D01*
X148976857Y-104482324D01*
X148976853Y-104482322D01*
X148974727Y-104481186D01*
X148972423Y-104480487D01*
X148972418Y-104480485D01*
X148788433Y-104424674D01*
X148786132Y-104423976D01*
X148783744Y-104423741D01*
X148783740Y-104423740D01*
X148592396Y-104404895D01*
X148590000Y-104404659D01*
X148587604Y-104404895D01*
X148396260Y-104423740D01*
X148396256Y-104423741D01*
X148393868Y-104423976D01*
X148391567Y-104424674D01*
X148207582Y-104480485D01*
X148207577Y-104480487D01*
X148205273Y-104481186D01*
X148203147Y-104482322D01*
X148203143Y-104482324D01*
X148033586Y-104572954D01*
X148033581Y-104572957D01*
X148031462Y-104574090D01*
X147879117Y-104699117D01*
X147754090Y-104851462D01*
X147752957Y-104853581D01*
X147752954Y-104853586D01*
X147662324Y-105023143D01*
X147662322Y-105023147D01*
X147661186Y-105025273D01*
X147660487Y-105027577D01*
X147660485Y-105027582D01*
X147624822Y-105145148D01*
X147603976Y-105213868D01*
X147584659Y-105410000D01*
X143796341Y-105410000D01*
X146333270Y-102873072D01*
X146337013Y-102870000D01*
X147584659Y-102870000D01*
X147603976Y-103066132D01*
X147604674Y-103068433D01*
X147660485Y-103252418D01*
X147660487Y-103252423D01*
X147661186Y-103254727D01*
X147662322Y-103256853D01*
X147662324Y-103256857D01*
X147752954Y-103426414D01*
X147752957Y-103426419D01*
X147754090Y-103428538D01*
X147879117Y-103580883D01*
X148031462Y-103705910D01*
X148033581Y-103707043D01*
X148033586Y-103707046D01*
X148203143Y-103797676D01*
X148203147Y-103797678D01*
X148205273Y-103798814D01*
X148207577Y-103799513D01*
X148207582Y-103799515D01*
X148391567Y-103855326D01*
X148393868Y-103856024D01*
X148396256Y-103856259D01*
X148396260Y-103856260D01*
X148587604Y-103875105D01*
X148590000Y-103875341D01*
X148592396Y-103875105D01*
X148783740Y-103856260D01*
X148783744Y-103856259D01*
X148786132Y-103856024D01*
X148788433Y-103855326D01*
X148972418Y-103799515D01*
X148972423Y-103799513D01*
X148974727Y-103798814D01*
X148976853Y-103797678D01*
X148976857Y-103797676D01*
X149146414Y-103707046D01*
X149146419Y-103707043D01*
X149148538Y-103705910D01*
X149300883Y-103580883D01*
X149425910Y-103428538D01*
X149427043Y-103426419D01*
X149427046Y-103426414D01*
X149517676Y-103256857D01*
X149517678Y-103256853D01*
X149518814Y-103254727D01*
X149519513Y-103252423D01*
X149519515Y-103252418D01*
X149575326Y-103068433D01*
X149576024Y-103066132D01*
X149595341Y-102870000D01*
X149576024Y-102673868D01*
X149549270Y-102585672D01*
X149519515Y-102487582D01*
X149519513Y-102487577D01*
X149518814Y-102485273D01*
X149517678Y-102483147D01*
X149517676Y-102483143D01*
X149427046Y-102313586D01*
X149427043Y-102313581D01*
X149425910Y-102311462D01*
X149300883Y-102159117D01*
X149148538Y-102034090D01*
X149146419Y-102032957D01*
X149146414Y-102032954D01*
X148976857Y-101942324D01*
X148976853Y-101942322D01*
X148974727Y-101941186D01*
X148972423Y-101940487D01*
X148972418Y-101940485D01*
X148788433Y-101884674D01*
X148786132Y-101883976D01*
X148783744Y-101883741D01*
X148783740Y-101883740D01*
X148592396Y-101864895D01*
X148590000Y-101864659D01*
X148587604Y-101864895D01*
X148396260Y-101883740D01*
X148396256Y-101883741D01*
X148393868Y-101883976D01*
X148391567Y-101884674D01*
X148207582Y-101940485D01*
X148207577Y-101940487D01*
X148205273Y-101941186D01*
X148203147Y-101942322D01*
X148203143Y-101942324D01*
X148033586Y-102032954D01*
X148033581Y-102032957D01*
X148031462Y-102034090D01*
X147879117Y-102159117D01*
X147754090Y-102311462D01*
X147752957Y-102313581D01*
X147752954Y-102313586D01*
X147662324Y-102483143D01*
X147662322Y-102483147D01*
X147661186Y-102485273D01*
X147660487Y-102487577D01*
X147660485Y-102487582D01*
X147630730Y-102585672D01*
X147603976Y-102673868D01*
X147584659Y-102870000D01*
X146337013Y-102870000D01*
X146340695Y-102866978D01*
X146353590Y-102858362D01*
X146357601Y-102855682D01*
X146412966Y-102772821D01*
X146432409Y-102675081D01*
X146428442Y-102655138D01*
X146427500Y-102645579D01*
X146427500Y-100330000D01*
X147584659Y-100330000D01*
X147603976Y-100526132D01*
X147604674Y-100528433D01*
X147660485Y-100712418D01*
X147660487Y-100712423D01*
X147661186Y-100714727D01*
X147662322Y-100716853D01*
X147662324Y-100716857D01*
X147752954Y-100886414D01*
X147752957Y-100886419D01*
X147754090Y-100888538D01*
X147879117Y-101040883D01*
X148031462Y-101165910D01*
X148033581Y-101167043D01*
X148033586Y-101167046D01*
X148203143Y-101257676D01*
X148203147Y-101257678D01*
X148205273Y-101258814D01*
X148207577Y-101259513D01*
X148207582Y-101259515D01*
X148391567Y-101315326D01*
X148393868Y-101316024D01*
X148396256Y-101316259D01*
X148396260Y-101316260D01*
X148587604Y-101335105D01*
X148590000Y-101335341D01*
X148592396Y-101335105D01*
X148783740Y-101316260D01*
X148783744Y-101316259D01*
X148786132Y-101316024D01*
X148788433Y-101315326D01*
X148972418Y-101259515D01*
X148972423Y-101259513D01*
X148974727Y-101258814D01*
X148976853Y-101257678D01*
X148976857Y-101257676D01*
X149146414Y-101167046D01*
X149146419Y-101167043D01*
X149148538Y-101165910D01*
X149300883Y-101040883D01*
X149425910Y-100888538D01*
X149427043Y-100886419D01*
X149427046Y-100886414D01*
X149517676Y-100716857D01*
X149517678Y-100716853D01*
X149518814Y-100714727D01*
X149519514Y-100712419D01*
X149519515Y-100712417D01*
X149548983Y-100615276D01*
X149572775Y-100586286D01*
X149595873Y-100580500D01*
X150957500Y-100580500D01*
X150992148Y-100594852D01*
X151006500Y-100629500D01*
X151006500Y-107649166D01*
X150992148Y-107683814D01*
X150949427Y-107726535D01*
X150895426Y-107832518D01*
X150876819Y-107950000D01*
X150895426Y-108067482D01*
X150949427Y-108173465D01*
X151033535Y-108257573D01*
X151036968Y-108259322D01*
X151036969Y-108259323D01*
X151086527Y-108284574D01*
X151139518Y-108311574D01*
X151143323Y-108312177D01*
X151143324Y-108312177D01*
X151253193Y-108329578D01*
X151257000Y-108330181D01*
X151260807Y-108329578D01*
X151370676Y-108312177D01*
X151370677Y-108312177D01*
X151374482Y-108311574D01*
X151427474Y-108284573D01*
X151477031Y-108259323D01*
X151477032Y-108259322D01*
X151480465Y-108257573D01*
X151564573Y-108173465D01*
X151618574Y-108067482D01*
X151637181Y-107950000D01*
X156824722Y-107950000D01*
X156825079Y-107952940D01*
X156838525Y-108063676D01*
X156843763Y-108106818D01*
X156899780Y-108254523D01*
X156901463Y-108256962D01*
X156901464Y-108256963D01*
X156952003Y-108330181D01*
X156989517Y-108384530D01*
X157107760Y-108489283D01*
X157247635Y-108562696D01*
X157250514Y-108563406D01*
X157250515Y-108563406D01*
X157398133Y-108599790D01*
X157398136Y-108599790D01*
X157401015Y-108600500D01*
X157558985Y-108600500D01*
X157561864Y-108599790D01*
X157561867Y-108599790D01*
X157709485Y-108563406D01*
X157709486Y-108563406D01*
X157712365Y-108562696D01*
X157852240Y-108489283D01*
X157970483Y-108384530D01*
X158007997Y-108330181D01*
X158058536Y-108256963D01*
X158058537Y-108256962D01*
X158060220Y-108254523D01*
X158116237Y-108106818D01*
X158121476Y-108063676D01*
X158134921Y-107952940D01*
X158135278Y-107950000D01*
X158133503Y-107935381D01*
X158116594Y-107796120D01*
X158116593Y-107796118D01*
X158116237Y-107793182D01*
X158060220Y-107645477D01*
X157970483Y-107515470D01*
X157951007Y-107498216D01*
X157934500Y-107461539D01*
X157934500Y-93198461D01*
X157951007Y-93161784D01*
X157968264Y-93146496D01*
X157968265Y-93146495D01*
X157970483Y-93144530D01*
X158003389Y-93096857D01*
X158058536Y-93016963D01*
X158058537Y-93016962D01*
X158060220Y-93014523D01*
X158116237Y-92866818D01*
X158135278Y-92710000D01*
X158116237Y-92553182D01*
X158060220Y-92405477D01*
X158004860Y-92325273D01*
X157972168Y-92277911D01*
X157972168Y-92277910D01*
X157970483Y-92275470D01*
X157963747Y-92269502D01*
X157854457Y-92172681D01*
X157852240Y-92170717D01*
X157712365Y-92097304D01*
X157709486Y-92096594D01*
X157709485Y-92096594D01*
X157561867Y-92060210D01*
X157561864Y-92060210D01*
X157558985Y-92059500D01*
X157401015Y-92059500D01*
X157398136Y-92060210D01*
X157398133Y-92060210D01*
X157250515Y-92096594D01*
X157250514Y-92096594D01*
X157247635Y-92097304D01*
X157107760Y-92170717D01*
X157105543Y-92172681D01*
X156996254Y-92269502D01*
X156989517Y-92275470D01*
X156987832Y-92277910D01*
X156987832Y-92277911D01*
X156955141Y-92325273D01*
X156899780Y-92405477D01*
X156843763Y-92553182D01*
X156824722Y-92710000D01*
X156843763Y-92866818D01*
X156899780Y-93014523D01*
X156901463Y-93016962D01*
X156901464Y-93016963D01*
X156956611Y-93096857D01*
X156989517Y-93144530D01*
X156991735Y-93146495D01*
X156991736Y-93146496D01*
X157008993Y-93161784D01*
X157025500Y-93198461D01*
X157025500Y-107461539D01*
X157008993Y-107498216D01*
X156989517Y-107515470D01*
X156899780Y-107645477D01*
X156843763Y-107793182D01*
X156843407Y-107796118D01*
X156843406Y-107796120D01*
X156826497Y-107935381D01*
X156824722Y-107950000D01*
X151637181Y-107950000D01*
X151618574Y-107832518D01*
X151564573Y-107726535D01*
X151521852Y-107683814D01*
X151507500Y-107649166D01*
X151507500Y-106944834D01*
X151521852Y-106910186D01*
X151556500Y-106895834D01*
X151591148Y-106910186D01*
X151668535Y-106987573D01*
X151671968Y-106989322D01*
X151671969Y-106989323D01*
X151721526Y-107014573D01*
X151774518Y-107041574D01*
X151778323Y-107042177D01*
X151778324Y-107042177D01*
X151888193Y-107059578D01*
X151892000Y-107060181D01*
X151895807Y-107059578D01*
X152005676Y-107042177D01*
X152005677Y-107042177D01*
X152009482Y-107041574D01*
X152062474Y-107014573D01*
X152112031Y-106989323D01*
X152112032Y-106989322D01*
X152115465Y-106987573D01*
X152199573Y-106903465D01*
X152253574Y-106797482D01*
X152272181Y-106680000D01*
X152253574Y-106562518D01*
X152199573Y-106456535D01*
X152156852Y-106413814D01*
X152142500Y-106379166D01*
X152142500Y-104404834D01*
X152156852Y-104370186D01*
X152191500Y-104355834D01*
X152226148Y-104370186D01*
X152303535Y-104447573D01*
X152306968Y-104449322D01*
X152306969Y-104449323D01*
X152356526Y-104474573D01*
X152409518Y-104501574D01*
X152413323Y-104502177D01*
X152413324Y-104502177D01*
X152523193Y-104519578D01*
X152527000Y-104520181D01*
X152530807Y-104519578D01*
X152640676Y-104502177D01*
X152640677Y-104502177D01*
X152644482Y-104501574D01*
X152697474Y-104474573D01*
X152747031Y-104449323D01*
X152747032Y-104449322D01*
X152750465Y-104447573D01*
X152834573Y-104363465D01*
X152888574Y-104257482D01*
X152907181Y-104140000D01*
X152888574Y-104022518D01*
X152834573Y-103916535D01*
X152791852Y-103873814D01*
X152777500Y-103839166D01*
X152777500Y-102870000D01*
X153289819Y-102870000D01*
X153308426Y-102987482D01*
X153310176Y-102990916D01*
X153349673Y-103068433D01*
X153362427Y-103093465D01*
X153446535Y-103177573D01*
X153449968Y-103179322D01*
X153449969Y-103179323D01*
X153499526Y-103204573D01*
X153552518Y-103231574D01*
X153556323Y-103232177D01*
X153556324Y-103232177D01*
X153666193Y-103249578D01*
X153670000Y-103250181D01*
X153673807Y-103249578D01*
X153783676Y-103232177D01*
X153783677Y-103232177D01*
X153787482Y-103231574D01*
X153840474Y-103204573D01*
X153890031Y-103179323D01*
X153890032Y-103179322D01*
X153893465Y-103177573D01*
X153977573Y-103093465D01*
X153990328Y-103068433D01*
X154029824Y-102990916D01*
X154031574Y-102987482D01*
X154050181Y-102870000D01*
X154031574Y-102752518D01*
X153991500Y-102673868D01*
X153979323Y-102649969D01*
X153979322Y-102649968D01*
X153977573Y-102646535D01*
X153934852Y-102603814D01*
X153920500Y-102569166D01*
X153920500Y-86025834D01*
X153934852Y-85991186D01*
X153977573Y-85948465D01*
X153989066Y-85925910D01*
X154029824Y-85845916D01*
X154031574Y-85842482D01*
X154050181Y-85725000D01*
X157480819Y-85725000D01*
X157499426Y-85842482D01*
X157501176Y-85845916D01*
X157541935Y-85925910D01*
X157553427Y-85948465D01*
X157637535Y-86032573D01*
X157640968Y-86034322D01*
X157640969Y-86034323D01*
X157683898Y-86056196D01*
X157743518Y-86086574D01*
X157747323Y-86087177D01*
X157747324Y-86087177D01*
X157838504Y-86101618D01*
X157861000Y-86105181D01*
X157864807Y-86104578D01*
X157866022Y-86104578D01*
X157900670Y-86118930D01*
X159120148Y-87338408D01*
X159134500Y-87373056D01*
X159134500Y-96219166D01*
X159120148Y-96253814D01*
X159077427Y-96296535D01*
X159023426Y-96402518D01*
X159004819Y-96520000D01*
X159023426Y-96637482D01*
X159077427Y-96743465D01*
X159161535Y-96827573D01*
X159164968Y-96829322D01*
X159164969Y-96829323D01*
X159214526Y-96854573D01*
X159267518Y-96881574D01*
X159271323Y-96882177D01*
X159271324Y-96882177D01*
X159381193Y-96899578D01*
X159385000Y-96900181D01*
X159388807Y-96899578D01*
X159498676Y-96882177D01*
X159498677Y-96882177D01*
X159502482Y-96881574D01*
X159555474Y-96854573D01*
X159605031Y-96829323D01*
X159605032Y-96829322D01*
X159608465Y-96827573D01*
X159692573Y-96743465D01*
X159746574Y-96637482D01*
X159765181Y-96520000D01*
X159746574Y-96402518D01*
X159692573Y-96296535D01*
X159649852Y-96253814D01*
X159635500Y-96219166D01*
X159635500Y-87278497D01*
X159636442Y-87268937D01*
X159639466Y-87253735D01*
X159640408Y-87249000D01*
X159639003Y-87241934D01*
X159635500Y-87224326D01*
X159621908Y-87155997D01*
X159620966Y-87151260D01*
X159618285Y-87147248D01*
X159618284Y-87147245D01*
X159568281Y-87072410D01*
X159565601Y-87068399D01*
X159548692Y-87057101D01*
X159541267Y-87051007D01*
X158254930Y-85764670D01*
X158240578Y-85730022D01*
X158240578Y-85728807D01*
X158241181Y-85725000D01*
X158229071Y-85648538D01*
X158223177Y-85611324D01*
X158223177Y-85611323D01*
X158222574Y-85607518D01*
X158184658Y-85533103D01*
X158170323Y-85504969D01*
X158170322Y-85504968D01*
X158168573Y-85501535D01*
X158084465Y-85417427D01*
X158081032Y-85415678D01*
X158081031Y-85415677D01*
X158001739Y-85375276D01*
X157978482Y-85363426D01*
X157974677Y-85362823D01*
X157974676Y-85362823D01*
X157870262Y-85346286D01*
X157861000Y-85344819D01*
X157851738Y-85346286D01*
X157747324Y-85362823D01*
X157747323Y-85362823D01*
X157743518Y-85363426D01*
X157720261Y-85375276D01*
X157640969Y-85415677D01*
X157640968Y-85415678D01*
X157637535Y-85417427D01*
X157553427Y-85501535D01*
X157551678Y-85504968D01*
X157551677Y-85504969D01*
X157537342Y-85533103D01*
X157499426Y-85607518D01*
X157498823Y-85611323D01*
X157498823Y-85611324D01*
X157492929Y-85648538D01*
X157480819Y-85725000D01*
X154050181Y-85725000D01*
X154038071Y-85648538D01*
X154032177Y-85611324D01*
X154032177Y-85611323D01*
X154031574Y-85607518D01*
X153993658Y-85533103D01*
X153979323Y-85504969D01*
X153979322Y-85504968D01*
X153977573Y-85501535D01*
X153893465Y-85417427D01*
X153890032Y-85415678D01*
X153890031Y-85415677D01*
X153810739Y-85375276D01*
X153787482Y-85363426D01*
X153783677Y-85362823D01*
X153783676Y-85362823D01*
X153679262Y-85346286D01*
X153670000Y-85344819D01*
X153660738Y-85346286D01*
X153556324Y-85362823D01*
X153556323Y-85362823D01*
X153552518Y-85363426D01*
X153529261Y-85375276D01*
X153449969Y-85415677D01*
X153449968Y-85415678D01*
X153446535Y-85417427D01*
X153362427Y-85501535D01*
X153360678Y-85504968D01*
X153360677Y-85504969D01*
X153346342Y-85533103D01*
X153308426Y-85607518D01*
X153307823Y-85611323D01*
X153307823Y-85611324D01*
X153301929Y-85648538D01*
X153289819Y-85725000D01*
X153308426Y-85842482D01*
X153310176Y-85845916D01*
X153350935Y-85925910D01*
X153362427Y-85948465D01*
X153405148Y-85991186D01*
X153419500Y-86025834D01*
X153419500Y-102569166D01*
X153405148Y-102603814D01*
X153362427Y-102646535D01*
X153360678Y-102649968D01*
X153360677Y-102649969D01*
X153348500Y-102673868D01*
X153308426Y-102752518D01*
X153289819Y-102870000D01*
X152777500Y-102870000D01*
X152777500Y-88692834D01*
X152791852Y-88658186D01*
X152834573Y-88615465D01*
X152888574Y-88509482D01*
X152891421Y-88491510D01*
X152906578Y-88395807D01*
X152907181Y-88392000D01*
X152888574Y-88274518D01*
X152834573Y-88168535D01*
X152750465Y-88084427D01*
X152747032Y-88082678D01*
X152747031Y-88082677D01*
X152697473Y-88057426D01*
X152644482Y-88030426D01*
X152640677Y-88029823D01*
X152640676Y-88029823D01*
X152530807Y-88012422D01*
X152527000Y-88011819D01*
X152523193Y-88012422D01*
X152413324Y-88029823D01*
X152413323Y-88029823D01*
X152409518Y-88030426D01*
X152356526Y-88057427D01*
X152306969Y-88082677D01*
X152306968Y-88082678D01*
X152303535Y-88084427D01*
X152226148Y-88161814D01*
X152191500Y-88176166D01*
X152156852Y-88161814D01*
X152142500Y-88127166D01*
X152142500Y-84911118D01*
X152156852Y-84876470D01*
X152215955Y-84817367D01*
X152272832Y-84705740D01*
X152282342Y-84645698D01*
X152291827Y-84585807D01*
X152292430Y-84582000D01*
X152272832Y-84458260D01*
X152233456Y-84380980D01*
X152217705Y-84350067D01*
X152217704Y-84350066D01*
X152215955Y-84346633D01*
X152127367Y-84258045D01*
X152123934Y-84256296D01*
X152123933Y-84256295D01*
X152071554Y-84229607D01*
X152015740Y-84201168D01*
X152011935Y-84200565D01*
X152011934Y-84200565D01*
X151895807Y-84182173D01*
X151892000Y-84181570D01*
X151888193Y-84182173D01*
X151772066Y-84200565D01*
X151772065Y-84200565D01*
X151768260Y-84201168D01*
X151712446Y-84229607D01*
X151660067Y-84256295D01*
X151660066Y-84256296D01*
X151656633Y-84258045D01*
X151591148Y-84323530D01*
X151556500Y-84337882D01*
X151521852Y-84323530D01*
X151507500Y-84288882D01*
X151507500Y-82198497D01*
X151508442Y-82188937D01*
X151511466Y-82173735D01*
X151512408Y-82169000D01*
X151511541Y-82164642D01*
X151512069Y-82157929D01*
X151529827Y-82045807D01*
X151530430Y-82042000D01*
X151510832Y-81918260D01*
X151471456Y-81840980D01*
X151455705Y-81810067D01*
X151455704Y-81810066D01*
X151453955Y-81806633D01*
X151365367Y-81718045D01*
X151361934Y-81716296D01*
X151361933Y-81716295D01*
X151286551Y-81677886D01*
X151253740Y-81661168D01*
X151249935Y-81660565D01*
X151249934Y-81660565D01*
X151133807Y-81642173D01*
X151130000Y-81641570D01*
X151126193Y-81642173D01*
X151010066Y-81660565D01*
X151010065Y-81660565D01*
X151006260Y-81661168D01*
X150973449Y-81677886D01*
X150898067Y-81716295D01*
X150898066Y-81716296D01*
X150894633Y-81718045D01*
X150806045Y-81806633D01*
X150804296Y-81810066D01*
X150804295Y-81810067D01*
X150788544Y-81840980D01*
X150749168Y-81918260D01*
X150729570Y-82042000D01*
X150749168Y-82165740D01*
X150806045Y-82277367D01*
X150894633Y-82365955D01*
X150898067Y-82367704D01*
X150898070Y-82367707D01*
X150979745Y-82409322D01*
X151004102Y-82437839D01*
X151006500Y-82452981D01*
X151006500Y-90631166D01*
X150992148Y-90665814D01*
X150949427Y-90708535D01*
X150895426Y-90814518D01*
X150894823Y-90818323D01*
X150894823Y-90818324D01*
X150892876Y-90830616D01*
X150876819Y-90932000D01*
X150895426Y-91049482D01*
X150949427Y-91155465D01*
X150992148Y-91198186D01*
X151006500Y-91232834D01*
X151006500Y-100030500D01*
X150992148Y-100065148D01*
X150957500Y-100079500D01*
X149595873Y-100079500D01*
X149561225Y-100065148D01*
X149548983Y-100044724D01*
X149519515Y-99947583D01*
X149519514Y-99947581D01*
X149518814Y-99945273D01*
X149517678Y-99943147D01*
X149517676Y-99943143D01*
X149427046Y-99773586D01*
X149427043Y-99773581D01*
X149425910Y-99771462D01*
X149300883Y-99619117D01*
X149148538Y-99494090D01*
X149146419Y-99492957D01*
X149146414Y-99492954D01*
X148976857Y-99402324D01*
X148976853Y-99402322D01*
X148974727Y-99401186D01*
X148972423Y-99400487D01*
X148972418Y-99400485D01*
X148788433Y-99344674D01*
X148786132Y-99343976D01*
X148783744Y-99343741D01*
X148783740Y-99343740D01*
X148592396Y-99324895D01*
X148590000Y-99324659D01*
X148587604Y-99324895D01*
X148396260Y-99343740D01*
X148396256Y-99343741D01*
X148393868Y-99343976D01*
X148391567Y-99344674D01*
X148207582Y-99400485D01*
X148207577Y-99400487D01*
X148205273Y-99401186D01*
X148203147Y-99402322D01*
X148203143Y-99402324D01*
X148033586Y-99492954D01*
X148033581Y-99492957D01*
X148031462Y-99494090D01*
X147879117Y-99619117D01*
X147754090Y-99771462D01*
X147752957Y-99773581D01*
X147752954Y-99773586D01*
X147662324Y-99943143D01*
X147662322Y-99943147D01*
X147661186Y-99945273D01*
X147660487Y-99947577D01*
X147660485Y-99947582D01*
X147624822Y-100065148D01*
X147603976Y-100133868D01*
X147584659Y-100330000D01*
X146427500Y-100330000D01*
X146427500Y-98050049D01*
X147254988Y-98050049D01*
X147300683Y-98230498D01*
X147301989Y-98234302D01*
X147390770Y-98436701D01*
X147392687Y-98440244D01*
X147513568Y-98625265D01*
X147516044Y-98628446D01*
X147665730Y-98791049D01*
X147668699Y-98793782D01*
X147843099Y-98929522D01*
X147846484Y-98931734D01*
X148040847Y-99036918D01*
X148044542Y-99038539D01*
X148253572Y-99110299D01*
X148257484Y-99111290D01*
X148326388Y-99122788D01*
X148333654Y-99121107D01*
X148336000Y-99117349D01*
X148336000Y-99114645D01*
X148844000Y-99114645D01*
X148846855Y-99121537D01*
X148850948Y-99123233D01*
X148922516Y-99111290D01*
X148926428Y-99110299D01*
X149135458Y-99038539D01*
X149139153Y-99036918D01*
X149333516Y-98931734D01*
X149336901Y-98929522D01*
X149511301Y-98793782D01*
X149514270Y-98791049D01*
X149663956Y-98628446D01*
X149666432Y-98625265D01*
X149787313Y-98440244D01*
X149789230Y-98436701D01*
X149878011Y-98234302D01*
X149879317Y-98230498D01*
X149924152Y-98053447D01*
X149923076Y-98046067D01*
X149920305Y-98044000D01*
X148853747Y-98044000D01*
X148846855Y-98046855D01*
X148844000Y-98053747D01*
X148844000Y-99114645D01*
X148336000Y-99114645D01*
X148336000Y-98053747D01*
X148333145Y-98046855D01*
X148326253Y-98044000D01*
X147263203Y-98044000D01*
X147256311Y-98046855D01*
X147254988Y-98050049D01*
X146427500Y-98050049D01*
X146427500Y-97526553D01*
X147255848Y-97526553D01*
X147256924Y-97533933D01*
X147259695Y-97536000D01*
X148326253Y-97536000D01*
X148333145Y-97533145D01*
X148336000Y-97526253D01*
X148844000Y-97526253D01*
X148846855Y-97533145D01*
X148853747Y-97536000D01*
X149916797Y-97536000D01*
X149923689Y-97533145D01*
X149925012Y-97529951D01*
X149879317Y-97349502D01*
X149878011Y-97345698D01*
X149789230Y-97143299D01*
X149787313Y-97139756D01*
X149666432Y-96954735D01*
X149663956Y-96951554D01*
X149514270Y-96788951D01*
X149511301Y-96786218D01*
X149336901Y-96650478D01*
X149333516Y-96648266D01*
X149139153Y-96543082D01*
X149135458Y-96541461D01*
X148926428Y-96469701D01*
X148922516Y-96468710D01*
X148853612Y-96457212D01*
X148846346Y-96458893D01*
X148844000Y-96462651D01*
X148844000Y-97526253D01*
X148336000Y-97526253D01*
X148336000Y-96465355D01*
X148333145Y-96458463D01*
X148329052Y-96456767D01*
X148257484Y-96468710D01*
X148253572Y-96469701D01*
X148044542Y-96541461D01*
X148040847Y-96543082D01*
X147846484Y-96648266D01*
X147843099Y-96650478D01*
X147668699Y-96786218D01*
X147665730Y-96788951D01*
X147516044Y-96951554D01*
X147513568Y-96954735D01*
X147392687Y-97139756D01*
X147390770Y-97143299D01*
X147301989Y-97345698D01*
X147300683Y-97349502D01*
X147255848Y-97526553D01*
X146427500Y-97526553D01*
X146427500Y-96784834D01*
X146441852Y-96750186D01*
X146476500Y-96735834D01*
X146511148Y-96750186D01*
X146588535Y-96827573D01*
X146591968Y-96829322D01*
X146591969Y-96829323D01*
X146641526Y-96854573D01*
X146694518Y-96881574D01*
X146698323Y-96882177D01*
X146698324Y-96882177D01*
X146808193Y-96899578D01*
X146812000Y-96900181D01*
X146815807Y-96899578D01*
X146925676Y-96882177D01*
X146925677Y-96882177D01*
X146929482Y-96881574D01*
X146982474Y-96854573D01*
X147032031Y-96829323D01*
X147032032Y-96829322D01*
X147035465Y-96827573D01*
X147119573Y-96743465D01*
X147173574Y-96637482D01*
X147192181Y-96520000D01*
X147173574Y-96402518D01*
X147119573Y-96296535D01*
X147076852Y-96253814D01*
X147062500Y-96219166D01*
X147062500Y-95250000D01*
X147584659Y-95250000D01*
X147603976Y-95446132D01*
X147604674Y-95448433D01*
X147660485Y-95632418D01*
X147660487Y-95632423D01*
X147661186Y-95634727D01*
X147662322Y-95636853D01*
X147662324Y-95636857D01*
X147752954Y-95806414D01*
X147752957Y-95806419D01*
X147754090Y-95808538D01*
X147879117Y-95960883D01*
X148031462Y-96085910D01*
X148033581Y-96087043D01*
X148033586Y-96087046D01*
X148203143Y-96177676D01*
X148203147Y-96177678D01*
X148205273Y-96178814D01*
X148207577Y-96179513D01*
X148207582Y-96179515D01*
X148391567Y-96235326D01*
X148393868Y-96236024D01*
X148396256Y-96236259D01*
X148396260Y-96236260D01*
X148587604Y-96255105D01*
X148590000Y-96255341D01*
X148592396Y-96255105D01*
X148783740Y-96236260D01*
X148783744Y-96236259D01*
X148786132Y-96236024D01*
X148788433Y-96235326D01*
X148972418Y-96179515D01*
X148972423Y-96179513D01*
X148974727Y-96178814D01*
X148976853Y-96177678D01*
X148976857Y-96177676D01*
X149146414Y-96087046D01*
X149146419Y-96087043D01*
X149148538Y-96085910D01*
X149300883Y-95960883D01*
X149425910Y-95808538D01*
X149427043Y-95806419D01*
X149427046Y-95806414D01*
X149517676Y-95636857D01*
X149517678Y-95636853D01*
X149518814Y-95634727D01*
X149519513Y-95632423D01*
X149519515Y-95632418D01*
X149575326Y-95448433D01*
X149576024Y-95446132D01*
X149595341Y-95250000D01*
X149576024Y-95053868D01*
X149555513Y-94986253D01*
X149519515Y-94867582D01*
X149519513Y-94867577D01*
X149518814Y-94865273D01*
X149517678Y-94863147D01*
X149517676Y-94863143D01*
X149427046Y-94693586D01*
X149427043Y-94693581D01*
X149425910Y-94691462D01*
X149300883Y-94539117D01*
X149148538Y-94414090D01*
X149146419Y-94412957D01*
X149146414Y-94412954D01*
X148976857Y-94322324D01*
X148976853Y-94322322D01*
X148974727Y-94321186D01*
X148972423Y-94320487D01*
X148972418Y-94320485D01*
X148788433Y-94264674D01*
X148786132Y-94263976D01*
X148783744Y-94263741D01*
X148783740Y-94263740D01*
X148592396Y-94244895D01*
X148590000Y-94244659D01*
X148587604Y-94244895D01*
X148396260Y-94263740D01*
X148396256Y-94263741D01*
X148393868Y-94263976D01*
X148391567Y-94264674D01*
X148207582Y-94320485D01*
X148207577Y-94320487D01*
X148205273Y-94321186D01*
X148203147Y-94322322D01*
X148203143Y-94322324D01*
X148033586Y-94412954D01*
X148033581Y-94412957D01*
X148031462Y-94414090D01*
X147879117Y-94539117D01*
X147754090Y-94691462D01*
X147752957Y-94693581D01*
X147752954Y-94693586D01*
X147662324Y-94863143D01*
X147662322Y-94863147D01*
X147661186Y-94865273D01*
X147660487Y-94867577D01*
X147660485Y-94867582D01*
X147624487Y-94986253D01*
X147603976Y-95053868D01*
X147584659Y-95250000D01*
X147062500Y-95250000D01*
X147062500Y-93579748D01*
X147539500Y-93579748D01*
X147551133Y-93638231D01*
X147595448Y-93704552D01*
X147661769Y-93748867D01*
X147720252Y-93760500D01*
X149459748Y-93760500D01*
X149518231Y-93748867D01*
X149584552Y-93704552D01*
X149628867Y-93638231D01*
X149640500Y-93579748D01*
X149640500Y-91840252D01*
X149628867Y-91781769D01*
X149584552Y-91715448D01*
X149518231Y-91671133D01*
X149459748Y-91659500D01*
X147720252Y-91659500D01*
X147661769Y-91671133D01*
X147595448Y-91715448D01*
X147551133Y-91781769D01*
X147539500Y-91840252D01*
X147539500Y-93579748D01*
X147062500Y-93579748D01*
X147062500Y-90043000D01*
X150094570Y-90043000D01*
X150114168Y-90166740D01*
X150171045Y-90278367D01*
X150259633Y-90366955D01*
X150263066Y-90368704D01*
X150263067Y-90368705D01*
X150315446Y-90395393D01*
X150371260Y-90423832D01*
X150375065Y-90424435D01*
X150375066Y-90424435D01*
X150491193Y-90442827D01*
X150495000Y-90443430D01*
X150498807Y-90442827D01*
X150614934Y-90424435D01*
X150614935Y-90424435D01*
X150618740Y-90423832D01*
X150674553Y-90395394D01*
X150726933Y-90368705D01*
X150726934Y-90368704D01*
X150730367Y-90366955D01*
X150818955Y-90278367D01*
X150875832Y-90166740D01*
X150895430Y-90043000D01*
X150884481Y-89973868D01*
X150876435Y-89923066D01*
X150876435Y-89923065D01*
X150875832Y-89919260D01*
X150818955Y-89807633D01*
X150759852Y-89748530D01*
X150745500Y-89713882D01*
X150745500Y-87451118D01*
X150759852Y-87416470D01*
X150818955Y-87357367D01*
X150821303Y-87352760D01*
X150874082Y-87249174D01*
X150875832Y-87245740D01*
X150885342Y-87185698D01*
X150894827Y-87125807D01*
X150895430Y-87122000D01*
X150875832Y-86998260D01*
X150836456Y-86920980D01*
X150820705Y-86890067D01*
X150820704Y-86890066D01*
X150818955Y-86886633D01*
X150730367Y-86798045D01*
X150726934Y-86796296D01*
X150726933Y-86796295D01*
X150674554Y-86769607D01*
X150618740Y-86741168D01*
X150614935Y-86740565D01*
X150614934Y-86740565D01*
X150498807Y-86722173D01*
X150495000Y-86721570D01*
X150491193Y-86722173D01*
X150375066Y-86740565D01*
X150375065Y-86740565D01*
X150371260Y-86741168D01*
X150315447Y-86769606D01*
X150263067Y-86796295D01*
X150263066Y-86796296D01*
X150259633Y-86798045D01*
X150171045Y-86886633D01*
X150169296Y-86890066D01*
X150169295Y-86890067D01*
X150153544Y-86920980D01*
X150114168Y-86998260D01*
X150094570Y-87122000D01*
X150095173Y-87125807D01*
X150104659Y-87185698D01*
X150114168Y-87245740D01*
X150115918Y-87249174D01*
X150168698Y-87352760D01*
X150171045Y-87357367D01*
X150230148Y-87416470D01*
X150244500Y-87451118D01*
X150244500Y-89713882D01*
X150230148Y-89748530D01*
X150171045Y-89807633D01*
X150114168Y-89919260D01*
X150113565Y-89923065D01*
X150113565Y-89923066D01*
X150105519Y-89973868D01*
X150094570Y-90043000D01*
X147062500Y-90043000D01*
X147062500Y-85754502D01*
X147063442Y-85744942D01*
X147066467Y-85729735D01*
X147067409Y-85725000D01*
X147047966Y-85627260D01*
X147006578Y-85565317D01*
X147006577Y-85565316D01*
X146992601Y-85544399D01*
X146975695Y-85533103D01*
X146968270Y-85527009D01*
X146374993Y-84933733D01*
X146368899Y-84926308D01*
X146360284Y-84913414D01*
X146360283Y-84913413D01*
X146357601Y-84909399D01*
X146304536Y-84873943D01*
X146274741Y-84854034D01*
X146270007Y-84853092D01*
X146270006Y-84853092D01*
X146181736Y-84835534D01*
X146177000Y-84834592D01*
X146157060Y-84838558D01*
X146147503Y-84839500D01*
X143245873Y-84839500D01*
X143211225Y-84825148D01*
X143198983Y-84804724D01*
X143169515Y-84707583D01*
X143169514Y-84707581D01*
X143168814Y-84705273D01*
X143167678Y-84703147D01*
X143167676Y-84703143D01*
X143077046Y-84533586D01*
X143077043Y-84533581D01*
X143075910Y-84531462D01*
X142950883Y-84379117D01*
X142798538Y-84254090D01*
X142796419Y-84252957D01*
X142796414Y-84252954D01*
X142626857Y-84162324D01*
X142626853Y-84162322D01*
X142624727Y-84161186D01*
X142622423Y-84160487D01*
X142622418Y-84160485D01*
X142438433Y-84104674D01*
X142436132Y-84103976D01*
X142433744Y-84103741D01*
X142433740Y-84103740D01*
X142242396Y-84084895D01*
X142240000Y-84084659D01*
X142237604Y-84084895D01*
X142046260Y-84103740D01*
X142046256Y-84103741D01*
X142043868Y-84103976D01*
X142041567Y-84104674D01*
X141857582Y-84160485D01*
X141857577Y-84160487D01*
X141855273Y-84161186D01*
X141853147Y-84162322D01*
X141853143Y-84162324D01*
X141683586Y-84252954D01*
X141683581Y-84252957D01*
X141681462Y-84254090D01*
X141529117Y-84379117D01*
X141404090Y-84531462D01*
X141402957Y-84533581D01*
X141402954Y-84533586D01*
X141312324Y-84703143D01*
X141312322Y-84703147D01*
X141311186Y-84705273D01*
X141310487Y-84707577D01*
X141310485Y-84707582D01*
X141260020Y-84873943D01*
X141253976Y-84893868D01*
X141253741Y-84896256D01*
X141253740Y-84896260D01*
X141235702Y-85079408D01*
X141234659Y-85090000D01*
X141253976Y-85286132D01*
X141254674Y-85288433D01*
X141310485Y-85472418D01*
X141310487Y-85472423D01*
X141311186Y-85474727D01*
X141312322Y-85476853D01*
X141312324Y-85476857D01*
X141402954Y-85646414D01*
X141402957Y-85646419D01*
X141404090Y-85648538D01*
X141405619Y-85650401D01*
X141485206Y-85747377D01*
X141529117Y-85800883D01*
X141681462Y-85925910D01*
X141683581Y-85927043D01*
X141683586Y-85927046D01*
X141853143Y-86017676D01*
X141853147Y-86017678D01*
X141855273Y-86018814D01*
X141857577Y-86019513D01*
X141857582Y-86019515D01*
X142041567Y-86075326D01*
X142043868Y-86076024D01*
X142046256Y-86076259D01*
X142046260Y-86076260D01*
X142237604Y-86095105D01*
X142240000Y-86095341D01*
X142242396Y-86095105D01*
X142433740Y-86076260D01*
X142433744Y-86076259D01*
X142436132Y-86076024D01*
X142438433Y-86075326D01*
X142622418Y-86019515D01*
X142622423Y-86019513D01*
X142624727Y-86018814D01*
X142626853Y-86017678D01*
X142626857Y-86017676D01*
X142796414Y-85927046D01*
X142796419Y-85927043D01*
X142798538Y-85925910D01*
X142950883Y-85800883D01*
X142994795Y-85747377D01*
X143074381Y-85650401D01*
X143075910Y-85648538D01*
X143077043Y-85646419D01*
X143077046Y-85646414D01*
X143167676Y-85476857D01*
X143167678Y-85476853D01*
X143168814Y-85474727D01*
X143169514Y-85472419D01*
X143169515Y-85472417D01*
X143198983Y-85375276D01*
X143222775Y-85346286D01*
X143245873Y-85340500D01*
X146052944Y-85340500D01*
X146087592Y-85354852D01*
X146547148Y-85814409D01*
X146561500Y-85849057D01*
X146561500Y-88535766D01*
X146547148Y-88570414D01*
X146512500Y-88584766D01*
X146477852Y-88570414D01*
X146400698Y-88493260D01*
X146397265Y-88491511D01*
X146397264Y-88491510D01*
X146344020Y-88464381D01*
X146294715Y-88439259D01*
X146290910Y-88438656D01*
X146290909Y-88438656D01*
X146181040Y-88421255D01*
X146177233Y-88420652D01*
X146173426Y-88421255D01*
X146063557Y-88438656D01*
X146063556Y-88438656D01*
X146059751Y-88439259D01*
X146010446Y-88464381D01*
X145957202Y-88491510D01*
X145957201Y-88491511D01*
X145953768Y-88493260D01*
X145869660Y-88577368D01*
X145867911Y-88580801D01*
X145867910Y-88580802D01*
X145848860Y-88618191D01*
X145815659Y-88683351D01*
X145797052Y-88800833D01*
X145797655Y-88804640D01*
X145814973Y-88913981D01*
X145815659Y-88918315D01*
X145817409Y-88921749D01*
X145865891Y-89016900D01*
X145869660Y-89024298D01*
X145912381Y-89067019D01*
X145926733Y-89101667D01*
X145926733Y-90774331D01*
X145925791Y-90783890D01*
X145921592Y-90805000D01*
X145924243Y-90818324D01*
X145925558Y-90824937D01*
X145926500Y-90834497D01*
X145926500Y-102551024D01*
X145912148Y-102585672D01*
X143352673Y-105145148D01*
X143318025Y-105159500D01*
X143245873Y-105159500D01*
X143211225Y-105145148D01*
X143198983Y-105124724D01*
X143169515Y-105027583D01*
X143169514Y-105027581D01*
X143168814Y-105025273D01*
X143167678Y-105023147D01*
X143167676Y-105023143D01*
X143077046Y-104853586D01*
X143077043Y-104853581D01*
X143075910Y-104851462D01*
X142950883Y-104699117D01*
X142798538Y-104574090D01*
X142796419Y-104572957D01*
X142796414Y-104572954D01*
X142626857Y-104482324D01*
X142626853Y-104482322D01*
X142624727Y-104481186D01*
X142622423Y-104480487D01*
X142622418Y-104480485D01*
X142438433Y-104424674D01*
X142436132Y-104423976D01*
X142433744Y-104423741D01*
X142433740Y-104423740D01*
X142242396Y-104404895D01*
X142240000Y-104404659D01*
X142237604Y-104404895D01*
X142046260Y-104423740D01*
X142046256Y-104423741D01*
X142043868Y-104423976D01*
X142041567Y-104424674D01*
X141857582Y-104480485D01*
X141857577Y-104480487D01*
X141855273Y-104481186D01*
X141853147Y-104482322D01*
X141853143Y-104482324D01*
X141683586Y-104572954D01*
X141683581Y-104572957D01*
X141681462Y-104574090D01*
X141529117Y-104699117D01*
X141404090Y-104851462D01*
X141402957Y-104853581D01*
X141402954Y-104853586D01*
X141312324Y-105023143D01*
X141312322Y-105023147D01*
X141311186Y-105025273D01*
X141310487Y-105027577D01*
X141310485Y-105027582D01*
X141274822Y-105145148D01*
X141253976Y-105213868D01*
X141234659Y-105410000D01*
X139446000Y-105410000D01*
X139446000Y-105146253D01*
X139954000Y-105146253D01*
X139956855Y-105153145D01*
X139963747Y-105156000D01*
X141026797Y-105156000D01*
X141033689Y-105153145D01*
X141035012Y-105149951D01*
X140989317Y-104969502D01*
X140988011Y-104965698D01*
X140899230Y-104763299D01*
X140897313Y-104759756D01*
X140776432Y-104574735D01*
X140773956Y-104571554D01*
X140624270Y-104408951D01*
X140621301Y-104406218D01*
X140446901Y-104270478D01*
X140443516Y-104268266D01*
X140286132Y-104183094D01*
X140262490Y-104153981D01*
X140266359Y-104116679D01*
X140286132Y-104096906D01*
X140443516Y-104011734D01*
X140446901Y-104009522D01*
X140621301Y-103873782D01*
X140624270Y-103871049D01*
X140773956Y-103708446D01*
X140776432Y-103705265D01*
X140897313Y-103520244D01*
X140899230Y-103516701D01*
X140988011Y-103314302D01*
X140989317Y-103310498D01*
X141034152Y-103133447D01*
X141033076Y-103126067D01*
X141030305Y-103124000D01*
X139963747Y-103124000D01*
X139956855Y-103126855D01*
X139954000Y-103133747D01*
X139954000Y-105146253D01*
X139446000Y-105146253D01*
X139446000Y-102870000D01*
X141234659Y-102870000D01*
X141253976Y-103066132D01*
X141254674Y-103068433D01*
X141310485Y-103252418D01*
X141310487Y-103252423D01*
X141311186Y-103254727D01*
X141312322Y-103256853D01*
X141312324Y-103256857D01*
X141402954Y-103426414D01*
X141402957Y-103426419D01*
X141404090Y-103428538D01*
X141529117Y-103580883D01*
X141681462Y-103705910D01*
X141683581Y-103707043D01*
X141683586Y-103707046D01*
X141853143Y-103797676D01*
X141853147Y-103797678D01*
X141855273Y-103798814D01*
X141857577Y-103799513D01*
X141857582Y-103799515D01*
X142041567Y-103855326D01*
X142043868Y-103856024D01*
X142046256Y-103856259D01*
X142046260Y-103856260D01*
X142237604Y-103875105D01*
X142240000Y-103875341D01*
X142242396Y-103875105D01*
X142433740Y-103856260D01*
X142433744Y-103856259D01*
X142436132Y-103856024D01*
X142438433Y-103855326D01*
X142622418Y-103799515D01*
X142622423Y-103799513D01*
X142624727Y-103798814D01*
X142626853Y-103797678D01*
X142626857Y-103797676D01*
X142796414Y-103707046D01*
X142796419Y-103707043D01*
X142798538Y-103705910D01*
X142950883Y-103580883D01*
X143075910Y-103428538D01*
X143077043Y-103426419D01*
X143077046Y-103426414D01*
X143167676Y-103256857D01*
X143167678Y-103256853D01*
X143168814Y-103254727D01*
X143169513Y-103252423D01*
X143169515Y-103252418D01*
X143225326Y-103068433D01*
X143226024Y-103066132D01*
X143245341Y-102870000D01*
X143226024Y-102673868D01*
X143199270Y-102585672D01*
X143169515Y-102487582D01*
X143169513Y-102487577D01*
X143168814Y-102485273D01*
X143167678Y-102483147D01*
X143167676Y-102483143D01*
X143077046Y-102313586D01*
X143077043Y-102313581D01*
X143075910Y-102311462D01*
X142950883Y-102159117D01*
X142798538Y-102034090D01*
X142796419Y-102032957D01*
X142796414Y-102032954D01*
X142626857Y-101942324D01*
X142626853Y-101942322D01*
X142624727Y-101941186D01*
X142622423Y-101940487D01*
X142622418Y-101940485D01*
X142438433Y-101884674D01*
X142436132Y-101883976D01*
X142433744Y-101883741D01*
X142433740Y-101883740D01*
X142242396Y-101864895D01*
X142240000Y-101864659D01*
X142237604Y-101864895D01*
X142046260Y-101883740D01*
X142046256Y-101883741D01*
X142043868Y-101883976D01*
X142041567Y-101884674D01*
X141857582Y-101940485D01*
X141857577Y-101940487D01*
X141855273Y-101941186D01*
X141853147Y-101942322D01*
X141853143Y-101942324D01*
X141683586Y-102032954D01*
X141683581Y-102032957D01*
X141681462Y-102034090D01*
X141529117Y-102159117D01*
X141404090Y-102311462D01*
X141402957Y-102313581D01*
X141402954Y-102313586D01*
X141312324Y-102483143D01*
X141312322Y-102483147D01*
X141311186Y-102485273D01*
X141310487Y-102487577D01*
X141310485Y-102487582D01*
X141280730Y-102585672D01*
X141253976Y-102673868D01*
X141234659Y-102870000D01*
X139446000Y-102870000D01*
X139446000Y-102606253D01*
X139954000Y-102606253D01*
X139956855Y-102613145D01*
X139963747Y-102616000D01*
X141026797Y-102616000D01*
X141033689Y-102613145D01*
X141035012Y-102609951D01*
X140989317Y-102429502D01*
X140988011Y-102425698D01*
X140899230Y-102223299D01*
X140897313Y-102219756D01*
X140776432Y-102034735D01*
X140773956Y-102031554D01*
X140624270Y-101868951D01*
X140621301Y-101866218D01*
X140446901Y-101730478D01*
X140443516Y-101728266D01*
X140286132Y-101643094D01*
X140262490Y-101613981D01*
X140266359Y-101576679D01*
X140286132Y-101556906D01*
X140443516Y-101471734D01*
X140446901Y-101469522D01*
X140621301Y-101333782D01*
X140624270Y-101331049D01*
X140773956Y-101168446D01*
X140776432Y-101165265D01*
X140897313Y-100980244D01*
X140899230Y-100976701D01*
X140988011Y-100774302D01*
X140989317Y-100770498D01*
X141034152Y-100593447D01*
X141033076Y-100586067D01*
X141030305Y-100584000D01*
X139963747Y-100584000D01*
X139956855Y-100586855D01*
X139954000Y-100593747D01*
X139954000Y-102606253D01*
X139446000Y-102606253D01*
X139446000Y-100330000D01*
X141234659Y-100330000D01*
X141253976Y-100526132D01*
X141254674Y-100528433D01*
X141310485Y-100712418D01*
X141310487Y-100712423D01*
X141311186Y-100714727D01*
X141312322Y-100716853D01*
X141312324Y-100716857D01*
X141402954Y-100886414D01*
X141402957Y-100886419D01*
X141404090Y-100888538D01*
X141529117Y-101040883D01*
X141681462Y-101165910D01*
X141683581Y-101167043D01*
X141683586Y-101167046D01*
X141853143Y-101257676D01*
X141853147Y-101257678D01*
X141855273Y-101258814D01*
X141857577Y-101259513D01*
X141857582Y-101259515D01*
X142041567Y-101315326D01*
X142043868Y-101316024D01*
X142046256Y-101316259D01*
X142046260Y-101316260D01*
X142237604Y-101335105D01*
X142240000Y-101335341D01*
X142242396Y-101335105D01*
X142433740Y-101316260D01*
X142433744Y-101316259D01*
X142436132Y-101316024D01*
X142438433Y-101315326D01*
X142622418Y-101259515D01*
X142622423Y-101259513D01*
X142624727Y-101258814D01*
X142626853Y-101257678D01*
X142626857Y-101257676D01*
X142796414Y-101167046D01*
X142796419Y-101167043D01*
X142798538Y-101165910D01*
X142950883Y-101040883D01*
X143075910Y-100888538D01*
X143077043Y-100886419D01*
X143077046Y-100886414D01*
X143167676Y-100716857D01*
X143167678Y-100716853D01*
X143168814Y-100714727D01*
X143169513Y-100712423D01*
X143169515Y-100712418D01*
X143225326Y-100528433D01*
X143226024Y-100526132D01*
X143245341Y-100330000D01*
X143226024Y-100133868D01*
X143205178Y-100065148D01*
X143169515Y-99947582D01*
X143169513Y-99947577D01*
X143168814Y-99945273D01*
X143167678Y-99943147D01*
X143167676Y-99943143D01*
X143077046Y-99773586D01*
X143077043Y-99773581D01*
X143075910Y-99771462D01*
X142950883Y-99619117D01*
X142798538Y-99494090D01*
X142796419Y-99492957D01*
X142796414Y-99492954D01*
X142626857Y-99402324D01*
X142626853Y-99402322D01*
X142624727Y-99401186D01*
X142622423Y-99400487D01*
X142622418Y-99400485D01*
X142438433Y-99344674D01*
X142436132Y-99343976D01*
X142433744Y-99343741D01*
X142433740Y-99343740D01*
X142242396Y-99324895D01*
X142240000Y-99324659D01*
X142237604Y-99324895D01*
X142046260Y-99343740D01*
X142046256Y-99343741D01*
X142043868Y-99343976D01*
X142041567Y-99344674D01*
X141857582Y-99400485D01*
X141857577Y-99400487D01*
X141855273Y-99401186D01*
X141853147Y-99402322D01*
X141853143Y-99402324D01*
X141683586Y-99492954D01*
X141683581Y-99492957D01*
X141681462Y-99494090D01*
X141529117Y-99619117D01*
X141404090Y-99771462D01*
X141402957Y-99773581D01*
X141402954Y-99773586D01*
X141312324Y-99943143D01*
X141312322Y-99943147D01*
X141311186Y-99945273D01*
X141310487Y-99947577D01*
X141310485Y-99947582D01*
X141274822Y-100065148D01*
X141253976Y-100133868D01*
X141234659Y-100330000D01*
X139446000Y-100330000D01*
X139446000Y-100066253D01*
X139954000Y-100066253D01*
X139956855Y-100073145D01*
X139963747Y-100076000D01*
X141026797Y-100076000D01*
X141033689Y-100073145D01*
X141035012Y-100069951D01*
X140989317Y-99889502D01*
X140988011Y-99885698D01*
X140899230Y-99683299D01*
X140897313Y-99679756D01*
X140776432Y-99494735D01*
X140773956Y-99491554D01*
X140624270Y-99328951D01*
X140621301Y-99326218D01*
X140446901Y-99190478D01*
X140443516Y-99188266D01*
X140286132Y-99103094D01*
X140262490Y-99073981D01*
X140266359Y-99036679D01*
X140286132Y-99016906D01*
X140443516Y-98931734D01*
X140446901Y-98929522D01*
X140621301Y-98793782D01*
X140624270Y-98791049D01*
X140773956Y-98628446D01*
X140776432Y-98625265D01*
X140897313Y-98440244D01*
X140899230Y-98436701D01*
X140988011Y-98234302D01*
X140989317Y-98230498D01*
X141034152Y-98053447D01*
X141033076Y-98046067D01*
X141030305Y-98044000D01*
X139963747Y-98044000D01*
X139956855Y-98046855D01*
X139954000Y-98053747D01*
X139954000Y-100066253D01*
X139446000Y-100066253D01*
X139446000Y-97790000D01*
X141234659Y-97790000D01*
X141253976Y-97986132D01*
X141254674Y-97988433D01*
X141310485Y-98172418D01*
X141310487Y-98172423D01*
X141311186Y-98174727D01*
X141312322Y-98176853D01*
X141312324Y-98176857D01*
X141402954Y-98346414D01*
X141402957Y-98346419D01*
X141404090Y-98348538D01*
X141529117Y-98500883D01*
X141681462Y-98625910D01*
X141683581Y-98627043D01*
X141683586Y-98627046D01*
X141853143Y-98717676D01*
X141853147Y-98717678D01*
X141855273Y-98718814D01*
X141857577Y-98719513D01*
X141857582Y-98719515D01*
X142041567Y-98775326D01*
X142043868Y-98776024D01*
X142046256Y-98776259D01*
X142046260Y-98776260D01*
X142237604Y-98795105D01*
X142240000Y-98795341D01*
X142242396Y-98795105D01*
X142433740Y-98776260D01*
X142433744Y-98776259D01*
X142436132Y-98776024D01*
X142438433Y-98775326D01*
X142622418Y-98719515D01*
X142622423Y-98719513D01*
X142624727Y-98718814D01*
X142626853Y-98717678D01*
X142626857Y-98717676D01*
X142796414Y-98627046D01*
X142796419Y-98627043D01*
X142798538Y-98625910D01*
X142950883Y-98500883D01*
X143075910Y-98348538D01*
X143077043Y-98346419D01*
X143077046Y-98346414D01*
X143167676Y-98176857D01*
X143167678Y-98176853D01*
X143168814Y-98174727D01*
X143169513Y-98172423D01*
X143169515Y-98172418D01*
X143225326Y-97988433D01*
X143226024Y-97986132D01*
X143245341Y-97790000D01*
X143226024Y-97593868D01*
X143205513Y-97526253D01*
X143169515Y-97407582D01*
X143169513Y-97407577D01*
X143168814Y-97405273D01*
X143167678Y-97403147D01*
X143167676Y-97403143D01*
X143077046Y-97233586D01*
X143077043Y-97233581D01*
X143075910Y-97231462D01*
X142950883Y-97079117D01*
X142798538Y-96954090D01*
X142796419Y-96952957D01*
X142796414Y-96952954D01*
X142626857Y-96862324D01*
X142626853Y-96862322D01*
X142624727Y-96861186D01*
X142622423Y-96860487D01*
X142622418Y-96860485D01*
X142438433Y-96804674D01*
X142436132Y-96803976D01*
X142433744Y-96803741D01*
X142433740Y-96803740D01*
X142242396Y-96784895D01*
X142240000Y-96784659D01*
X142237604Y-96784895D01*
X142046260Y-96803740D01*
X142046256Y-96803741D01*
X142043868Y-96803976D01*
X142041567Y-96804674D01*
X141857582Y-96860485D01*
X141857577Y-96860487D01*
X141855273Y-96861186D01*
X141853147Y-96862322D01*
X141853143Y-96862324D01*
X141683586Y-96952954D01*
X141683581Y-96952957D01*
X141681462Y-96954090D01*
X141529117Y-97079117D01*
X141404090Y-97231462D01*
X141402957Y-97233581D01*
X141402954Y-97233586D01*
X141312324Y-97403143D01*
X141312322Y-97403147D01*
X141311186Y-97405273D01*
X141310487Y-97407577D01*
X141310485Y-97407582D01*
X141274487Y-97526253D01*
X141253976Y-97593868D01*
X141234659Y-97790000D01*
X139446000Y-97790000D01*
X139446000Y-97526253D01*
X139954000Y-97526253D01*
X139956855Y-97533145D01*
X139963747Y-97536000D01*
X141026797Y-97536000D01*
X141033689Y-97533145D01*
X141035012Y-97529951D01*
X140989317Y-97349502D01*
X140988011Y-97345698D01*
X140899230Y-97143299D01*
X140897313Y-97139756D01*
X140776432Y-96954735D01*
X140773956Y-96951554D01*
X140624270Y-96788951D01*
X140621301Y-96786218D01*
X140446901Y-96650478D01*
X140443516Y-96648266D01*
X140286132Y-96563094D01*
X140262490Y-96533981D01*
X140266359Y-96496679D01*
X140286132Y-96476906D01*
X140443516Y-96391734D01*
X140446901Y-96389522D01*
X140621301Y-96253782D01*
X140624270Y-96251049D01*
X140773956Y-96088446D01*
X140776432Y-96085265D01*
X140897313Y-95900244D01*
X140899230Y-95896701D01*
X140988011Y-95694302D01*
X140989317Y-95690498D01*
X141034152Y-95513447D01*
X141033076Y-95506067D01*
X141030305Y-95504000D01*
X139963747Y-95504000D01*
X139956855Y-95506855D01*
X139954000Y-95513747D01*
X139954000Y-97526253D01*
X139446000Y-97526253D01*
X139446000Y-95250000D01*
X141234659Y-95250000D01*
X141253976Y-95446132D01*
X141254674Y-95448433D01*
X141310485Y-95632418D01*
X141310487Y-95632423D01*
X141311186Y-95634727D01*
X141312322Y-95636853D01*
X141312324Y-95636857D01*
X141402954Y-95806414D01*
X141402957Y-95806419D01*
X141404090Y-95808538D01*
X141529117Y-95960883D01*
X141681462Y-96085910D01*
X141683581Y-96087043D01*
X141683586Y-96087046D01*
X141853143Y-96177676D01*
X141853147Y-96177678D01*
X141855273Y-96178814D01*
X141857577Y-96179513D01*
X141857582Y-96179515D01*
X142041567Y-96235326D01*
X142043868Y-96236024D01*
X142046256Y-96236259D01*
X142046260Y-96236260D01*
X142237604Y-96255105D01*
X142240000Y-96255341D01*
X142242396Y-96255105D01*
X142433740Y-96236260D01*
X142433744Y-96236259D01*
X142436132Y-96236024D01*
X142438433Y-96235326D01*
X142622418Y-96179515D01*
X142622423Y-96179513D01*
X142624727Y-96178814D01*
X142626853Y-96177678D01*
X142626857Y-96177676D01*
X142796414Y-96087046D01*
X142796419Y-96087043D01*
X142798538Y-96085910D01*
X142950883Y-95960883D01*
X143075910Y-95808538D01*
X143077043Y-95806419D01*
X143077046Y-95806414D01*
X143167676Y-95636857D01*
X143167678Y-95636853D01*
X143168814Y-95634727D01*
X143169513Y-95632423D01*
X143169515Y-95632418D01*
X143225326Y-95448433D01*
X143226024Y-95446132D01*
X143245341Y-95250000D01*
X143226024Y-95053868D01*
X143205513Y-94986253D01*
X143169515Y-94867582D01*
X143169513Y-94867577D01*
X143168814Y-94865273D01*
X143167678Y-94863147D01*
X143167676Y-94863143D01*
X143077046Y-94693586D01*
X143077043Y-94693581D01*
X143075910Y-94691462D01*
X142950883Y-94539117D01*
X142798538Y-94414090D01*
X142796419Y-94412957D01*
X142796414Y-94412954D01*
X142626857Y-94322324D01*
X142626853Y-94322322D01*
X142624727Y-94321186D01*
X142622423Y-94320487D01*
X142622418Y-94320485D01*
X142438433Y-94264674D01*
X142436132Y-94263976D01*
X142433744Y-94263741D01*
X142433740Y-94263740D01*
X142242396Y-94244895D01*
X142240000Y-94244659D01*
X142237604Y-94244895D01*
X142046260Y-94263740D01*
X142046256Y-94263741D01*
X142043868Y-94263976D01*
X142041567Y-94264674D01*
X141857582Y-94320485D01*
X141857577Y-94320487D01*
X141855273Y-94321186D01*
X141853147Y-94322322D01*
X141853143Y-94322324D01*
X141683586Y-94412954D01*
X141683581Y-94412957D01*
X141681462Y-94414090D01*
X141529117Y-94539117D01*
X141404090Y-94691462D01*
X141402957Y-94693581D01*
X141402954Y-94693586D01*
X141312324Y-94863143D01*
X141312322Y-94863147D01*
X141311186Y-94865273D01*
X141310487Y-94867577D01*
X141310485Y-94867582D01*
X141274487Y-94986253D01*
X141253976Y-95053868D01*
X141234659Y-95250000D01*
X139446000Y-95250000D01*
X139446000Y-94986253D01*
X139954000Y-94986253D01*
X139956855Y-94993145D01*
X139963747Y-94996000D01*
X141026797Y-94996000D01*
X141033689Y-94993145D01*
X141035012Y-94989951D01*
X140989317Y-94809502D01*
X140988011Y-94805698D01*
X140899230Y-94603299D01*
X140897313Y-94599756D01*
X140776432Y-94414735D01*
X140773956Y-94411554D01*
X140624270Y-94248951D01*
X140621301Y-94246218D01*
X140446901Y-94110478D01*
X140443516Y-94108266D01*
X140286132Y-94023094D01*
X140262490Y-93993981D01*
X140266359Y-93956679D01*
X140286132Y-93936906D01*
X140443516Y-93851734D01*
X140446901Y-93849522D01*
X140621301Y-93713782D01*
X140624270Y-93711049D01*
X140773956Y-93548446D01*
X140776432Y-93545265D01*
X140897313Y-93360244D01*
X140899230Y-93356701D01*
X140988011Y-93154302D01*
X140989317Y-93150498D01*
X141034152Y-92973447D01*
X141033076Y-92966067D01*
X141030305Y-92964000D01*
X139963747Y-92964000D01*
X139956855Y-92966855D01*
X139954000Y-92973747D01*
X139954000Y-94986253D01*
X139446000Y-94986253D01*
X139446000Y-92710000D01*
X141234659Y-92710000D01*
X141234895Y-92712396D01*
X141249815Y-92863880D01*
X141253976Y-92906132D01*
X141254674Y-92908433D01*
X141310485Y-93092418D01*
X141310487Y-93092423D01*
X141311186Y-93094727D01*
X141312322Y-93096853D01*
X141312324Y-93096857D01*
X141402954Y-93266414D01*
X141402957Y-93266419D01*
X141404090Y-93268538D01*
X141529117Y-93420883D01*
X141681462Y-93545910D01*
X141683581Y-93547043D01*
X141683586Y-93547046D01*
X141853143Y-93637676D01*
X141853147Y-93637678D01*
X141855273Y-93638814D01*
X141857577Y-93639513D01*
X141857582Y-93639515D01*
X142041567Y-93695326D01*
X142043868Y-93696024D01*
X142046256Y-93696259D01*
X142046260Y-93696260D01*
X142237604Y-93715105D01*
X142240000Y-93715341D01*
X142242396Y-93715105D01*
X142433740Y-93696260D01*
X142433744Y-93696259D01*
X142436132Y-93696024D01*
X142438433Y-93695326D01*
X142622418Y-93639515D01*
X142622423Y-93639513D01*
X142624727Y-93638814D01*
X142626853Y-93637678D01*
X142626857Y-93637676D01*
X142796414Y-93547046D01*
X142796419Y-93547043D01*
X142798538Y-93545910D01*
X142950883Y-93420883D01*
X143075910Y-93268538D01*
X143077043Y-93266419D01*
X143077046Y-93266414D01*
X143167676Y-93096857D01*
X143167678Y-93096853D01*
X143168814Y-93094727D01*
X143169513Y-93092423D01*
X143169515Y-93092418D01*
X143225326Y-92908433D01*
X143226024Y-92906132D01*
X143230186Y-92863880D01*
X143245105Y-92712396D01*
X143245341Y-92710000D01*
X143244298Y-92699408D01*
X143226260Y-92516260D01*
X143226259Y-92516256D01*
X143226024Y-92513868D01*
X143192404Y-92403037D01*
X143169515Y-92327582D01*
X143169513Y-92327577D01*
X143168814Y-92325273D01*
X143167678Y-92323147D01*
X143167676Y-92323143D01*
X143077046Y-92153586D01*
X143077043Y-92153581D01*
X143075910Y-92151462D01*
X142950883Y-91999117D01*
X142798538Y-91874090D01*
X142796419Y-91872957D01*
X142796414Y-91872954D01*
X142626857Y-91782324D01*
X142626853Y-91782322D01*
X142624727Y-91781186D01*
X142622423Y-91780487D01*
X142622418Y-91780485D01*
X142438433Y-91724674D01*
X142436132Y-91723976D01*
X142433744Y-91723741D01*
X142433740Y-91723740D01*
X142242396Y-91704895D01*
X142240000Y-91704659D01*
X142237604Y-91704895D01*
X142046260Y-91723740D01*
X142046256Y-91723741D01*
X142043868Y-91723976D01*
X142041567Y-91724674D01*
X141857582Y-91780485D01*
X141857577Y-91780487D01*
X141855273Y-91781186D01*
X141853147Y-91782322D01*
X141853143Y-91782324D01*
X141683586Y-91872954D01*
X141683581Y-91872957D01*
X141681462Y-91874090D01*
X141529117Y-91999117D01*
X141404090Y-92151462D01*
X141402957Y-92153581D01*
X141402954Y-92153586D01*
X141312324Y-92323143D01*
X141312322Y-92323147D01*
X141311186Y-92325273D01*
X141310487Y-92327577D01*
X141310485Y-92327582D01*
X141287596Y-92403037D01*
X141253976Y-92513868D01*
X141253741Y-92516256D01*
X141253740Y-92516260D01*
X141235702Y-92699408D01*
X141234659Y-92710000D01*
X139446000Y-92710000D01*
X139446000Y-92446253D01*
X139954000Y-92446253D01*
X139956855Y-92453145D01*
X139963747Y-92456000D01*
X141026797Y-92456000D01*
X141033689Y-92453145D01*
X141035012Y-92449951D01*
X140989317Y-92269502D01*
X140988011Y-92265698D01*
X140899230Y-92063299D01*
X140897313Y-92059756D01*
X140776432Y-91874735D01*
X140773956Y-91871554D01*
X140624270Y-91708951D01*
X140621301Y-91706218D01*
X140446901Y-91570478D01*
X140443516Y-91568266D01*
X140286132Y-91483094D01*
X140262490Y-91453981D01*
X140266359Y-91416679D01*
X140286132Y-91396906D01*
X140443516Y-91311734D01*
X140446901Y-91309522D01*
X140621301Y-91173782D01*
X140624270Y-91171049D01*
X140773956Y-91008446D01*
X140776432Y-91005265D01*
X140897313Y-90820244D01*
X140899230Y-90816701D01*
X140988011Y-90614302D01*
X140989317Y-90610498D01*
X141034152Y-90433447D01*
X141033076Y-90426067D01*
X141030305Y-90424000D01*
X139963747Y-90424000D01*
X139956855Y-90426855D01*
X139954000Y-90433747D01*
X139954000Y-92446253D01*
X139446000Y-92446253D01*
X139446000Y-90170000D01*
X141234659Y-90170000D01*
X141234895Y-90172396D01*
X141245601Y-90281093D01*
X141253976Y-90366132D01*
X141254674Y-90368433D01*
X141310485Y-90552418D01*
X141310487Y-90552423D01*
X141311186Y-90554727D01*
X141312322Y-90556853D01*
X141312324Y-90556857D01*
X141402954Y-90726414D01*
X141402957Y-90726419D01*
X141404090Y-90728538D01*
X141405619Y-90730401D01*
X141491824Y-90835441D01*
X141529117Y-90880883D01*
X141681462Y-91005910D01*
X141683581Y-91007043D01*
X141683586Y-91007046D01*
X141853143Y-91097676D01*
X141853147Y-91097678D01*
X141855273Y-91098814D01*
X141857577Y-91099513D01*
X141857582Y-91099515D01*
X142016869Y-91147834D01*
X142043868Y-91156024D01*
X142046256Y-91156259D01*
X142046260Y-91156260D01*
X142237604Y-91175105D01*
X142240000Y-91175341D01*
X142242396Y-91175105D01*
X142433740Y-91156260D01*
X142433744Y-91156259D01*
X142436132Y-91156024D01*
X142463131Y-91147834D01*
X142622418Y-91099515D01*
X142622423Y-91099513D01*
X142624727Y-91098814D01*
X142626853Y-91097678D01*
X142626857Y-91097676D01*
X142796414Y-91007046D01*
X142796419Y-91007043D01*
X142798538Y-91005910D01*
X142950883Y-90880883D01*
X142988177Y-90835441D01*
X143074381Y-90730401D01*
X143075910Y-90728538D01*
X143077043Y-90726419D01*
X143077046Y-90726414D01*
X143167676Y-90556857D01*
X143167678Y-90556853D01*
X143168814Y-90554727D01*
X143169513Y-90552423D01*
X143169515Y-90552418D01*
X143225326Y-90368433D01*
X143226024Y-90366132D01*
X143234400Y-90281093D01*
X143245105Y-90172396D01*
X143245341Y-90170000D01*
X143226024Y-89973868D01*
X143174770Y-89804907D01*
X143169515Y-89787582D01*
X143169513Y-89787577D01*
X143168814Y-89785273D01*
X143167678Y-89783147D01*
X143167676Y-89783143D01*
X143077046Y-89613586D01*
X143077043Y-89613581D01*
X143075910Y-89611462D01*
X142950883Y-89459117D01*
X142798538Y-89334090D01*
X142796419Y-89332957D01*
X142796414Y-89332954D01*
X142626857Y-89242324D01*
X142626853Y-89242322D01*
X142624727Y-89241186D01*
X142622423Y-89240487D01*
X142622418Y-89240485D01*
X142438433Y-89184674D01*
X142436132Y-89183976D01*
X142433744Y-89183741D01*
X142433740Y-89183740D01*
X142242396Y-89164895D01*
X142240000Y-89164659D01*
X142237604Y-89164895D01*
X142046260Y-89183740D01*
X142046256Y-89183741D01*
X142043868Y-89183976D01*
X142041567Y-89184674D01*
X141857582Y-89240485D01*
X141857577Y-89240487D01*
X141855273Y-89241186D01*
X141853147Y-89242322D01*
X141853143Y-89242324D01*
X141683586Y-89332954D01*
X141683581Y-89332957D01*
X141681462Y-89334090D01*
X141529117Y-89459117D01*
X141404090Y-89611462D01*
X141402957Y-89613581D01*
X141402954Y-89613586D01*
X141312324Y-89783143D01*
X141312322Y-89783147D01*
X141311186Y-89785273D01*
X141310487Y-89787577D01*
X141310485Y-89787582D01*
X141305230Y-89804907D01*
X141253976Y-89973868D01*
X141234659Y-90170000D01*
X139446000Y-90170000D01*
X139446000Y-89906253D01*
X139954000Y-89906253D01*
X139956855Y-89913145D01*
X139963747Y-89916000D01*
X141026797Y-89916000D01*
X141033689Y-89913145D01*
X141035012Y-89909951D01*
X140989317Y-89729502D01*
X140988011Y-89725698D01*
X140899230Y-89523299D01*
X140897313Y-89519756D01*
X140776432Y-89334735D01*
X140773956Y-89331554D01*
X140624270Y-89168951D01*
X140621301Y-89166218D01*
X140446901Y-89030478D01*
X140443516Y-89028266D01*
X140286132Y-88943094D01*
X140262490Y-88913981D01*
X140266359Y-88876679D01*
X140286132Y-88856906D01*
X140443516Y-88771734D01*
X140446901Y-88769522D01*
X140621301Y-88633782D01*
X140624270Y-88631049D01*
X140773956Y-88468446D01*
X140776432Y-88465265D01*
X140897313Y-88280244D01*
X140899230Y-88276701D01*
X140988011Y-88074302D01*
X140989317Y-88070498D01*
X141034152Y-87893447D01*
X141033076Y-87886067D01*
X141030305Y-87884000D01*
X139963747Y-87884000D01*
X139956855Y-87886855D01*
X139954000Y-87893747D01*
X139954000Y-89906253D01*
X139446000Y-89906253D01*
X139446000Y-87630000D01*
X141234659Y-87630000D01*
X141253976Y-87826132D01*
X141254674Y-87828433D01*
X141310485Y-88012418D01*
X141310487Y-88012422D01*
X141311186Y-88014727D01*
X141312322Y-88016853D01*
X141312324Y-88016857D01*
X141402954Y-88186414D01*
X141402957Y-88186419D01*
X141404090Y-88188538D01*
X141529117Y-88340883D01*
X141681462Y-88465910D01*
X141683581Y-88467043D01*
X141683586Y-88467046D01*
X141853143Y-88557676D01*
X141853147Y-88557678D01*
X141855273Y-88558814D01*
X141857577Y-88559513D01*
X141857582Y-88559515D01*
X142016869Y-88607834D01*
X142043868Y-88616024D01*
X142046256Y-88616259D01*
X142046260Y-88616260D01*
X142237604Y-88635105D01*
X142240000Y-88635341D01*
X142242396Y-88635105D01*
X142433740Y-88616260D01*
X142433744Y-88616259D01*
X142436132Y-88616024D01*
X142463131Y-88607834D01*
X142622418Y-88559515D01*
X142622423Y-88559513D01*
X142624727Y-88558814D01*
X142626853Y-88557678D01*
X142626857Y-88557676D01*
X142796414Y-88467046D01*
X142796419Y-88467043D01*
X142798538Y-88465910D01*
X142950883Y-88340883D01*
X143075910Y-88188538D01*
X143077043Y-88186419D01*
X143077046Y-88186414D01*
X143167676Y-88016857D01*
X143167678Y-88016853D01*
X143168814Y-88014727D01*
X143169513Y-88012422D01*
X143169515Y-88012418D01*
X143225326Y-87828433D01*
X143226024Y-87826132D01*
X143245341Y-87630000D01*
X143226024Y-87433868D01*
X143205513Y-87366253D01*
X143169515Y-87247582D01*
X143169513Y-87247577D01*
X143168814Y-87245273D01*
X143133355Y-87178934D01*
X143129679Y-87141612D01*
X143153471Y-87112622D01*
X143190793Y-87108946D01*
X143211217Y-87121188D01*
X144973148Y-88883119D01*
X144987500Y-88917767D01*
X144987500Y-91245456D01*
X144973148Y-91280104D01*
X144939472Y-91313780D01*
X144878281Y-91433874D01*
X144857196Y-91567000D01*
X144857799Y-91570807D01*
X144871847Y-91659500D01*
X144878281Y-91700126D01*
X144939472Y-91820220D01*
X145034780Y-91915528D01*
X145038213Y-91917277D01*
X145038214Y-91917278D01*
X145094827Y-91946124D01*
X145154874Y-91976719D01*
X145158679Y-91977322D01*
X145158680Y-91977322D01*
X145284193Y-91997201D01*
X145288000Y-91997804D01*
X145291807Y-91997201D01*
X145417320Y-91977322D01*
X145417321Y-91977322D01*
X145421126Y-91976719D01*
X145481173Y-91946124D01*
X145537786Y-91917278D01*
X145537787Y-91917277D01*
X145541220Y-91915528D01*
X145636528Y-91820220D01*
X145697719Y-91700126D01*
X145704154Y-91659500D01*
X145718201Y-91570807D01*
X145718804Y-91567000D01*
X145697719Y-91433874D01*
X145636528Y-91313780D01*
X145602852Y-91280104D01*
X145588500Y-91245456D01*
X145588500Y-88828892D01*
X145588970Y-88822122D01*
X145589330Y-88819540D01*
X145590773Y-88815235D01*
X145588552Y-88767190D01*
X145588500Y-88764927D01*
X145588500Y-88745156D01*
X145587841Y-88741629D01*
X145587059Y-88734890D01*
X145585795Y-88707540D01*
X145585794Y-88707537D01*
X145585585Y-88703008D01*
X145579272Y-88688710D01*
X145575931Y-88677921D01*
X145573895Y-88667027D01*
X145573894Y-88667025D01*
X145573061Y-88662567D01*
X145566851Y-88652537D01*
X145556262Y-88635435D01*
X145553098Y-88629432D01*
X145542039Y-88604386D01*
X145542038Y-88604385D01*
X145540206Y-88600235D01*
X145529159Y-88589188D01*
X145522146Y-88580335D01*
X145516308Y-88570906D01*
X145516307Y-88570905D01*
X145513919Y-88567048D01*
X145510300Y-88564315D01*
X145510298Y-88564313D01*
X145488449Y-88547814D01*
X145483330Y-88543359D01*
X143445160Y-86505189D01*
X143431411Y-86478206D01*
X143412322Y-86357680D01*
X143412322Y-86357679D01*
X143411719Y-86353874D01*
X143350528Y-86233780D01*
X143255220Y-86138472D01*
X143251787Y-86136723D01*
X143251786Y-86136722D01*
X143182927Y-86101637D01*
X143135126Y-86077281D01*
X143131321Y-86076678D01*
X143131320Y-86076678D01*
X143005807Y-86056799D01*
X143002000Y-86056196D01*
X142998193Y-86056799D01*
X142872680Y-86076678D01*
X142872679Y-86076678D01*
X142868874Y-86077281D01*
X142821073Y-86101637D01*
X142752214Y-86136722D01*
X142752213Y-86136723D01*
X142748780Y-86138472D01*
X142653472Y-86233780D01*
X142592281Y-86353874D01*
X142571196Y-86487000D01*
X142571799Y-86490807D01*
X142591893Y-86617675D01*
X142583138Y-86654141D01*
X142551161Y-86673737D01*
X142529272Y-86672230D01*
X142438433Y-86644674D01*
X142436132Y-86643976D01*
X142433744Y-86643741D01*
X142433740Y-86643740D01*
X142242396Y-86624895D01*
X142240000Y-86624659D01*
X142237604Y-86624895D01*
X142046260Y-86643740D01*
X142046256Y-86643741D01*
X142043868Y-86643976D01*
X142041567Y-86644674D01*
X141857582Y-86700485D01*
X141857577Y-86700487D01*
X141855273Y-86701186D01*
X141853147Y-86702322D01*
X141853143Y-86702324D01*
X141683586Y-86792954D01*
X141683581Y-86792957D01*
X141681462Y-86794090D01*
X141529117Y-86919117D01*
X141404090Y-87071462D01*
X141402957Y-87073581D01*
X141402954Y-87073586D01*
X141312324Y-87243143D01*
X141312324Y-87243144D01*
X141311186Y-87245273D01*
X141310487Y-87247577D01*
X141310485Y-87247582D01*
X141274487Y-87366253D01*
X141253976Y-87433868D01*
X141234659Y-87630000D01*
X139446000Y-87630000D01*
X139446000Y-87366253D01*
X139954000Y-87366253D01*
X139956855Y-87373145D01*
X139963747Y-87376000D01*
X141026797Y-87376000D01*
X141033689Y-87373145D01*
X141035012Y-87369951D01*
X140989317Y-87189502D01*
X140988011Y-87185698D01*
X140899230Y-86983299D01*
X140897313Y-86979756D01*
X140776432Y-86794735D01*
X140773956Y-86791554D01*
X140624270Y-86628951D01*
X140621301Y-86626218D01*
X140446901Y-86490478D01*
X140443516Y-86488266D01*
X140286132Y-86403094D01*
X140262490Y-86373981D01*
X140266359Y-86336679D01*
X140286132Y-86316906D01*
X140443516Y-86231734D01*
X140446901Y-86229522D01*
X140621301Y-86093782D01*
X140624270Y-86091049D01*
X140773956Y-85928446D01*
X140776432Y-85925265D01*
X140897313Y-85740244D01*
X140899230Y-85736701D01*
X140988011Y-85534302D01*
X140989317Y-85530498D01*
X141034152Y-85353447D01*
X141033076Y-85346067D01*
X141030305Y-85344000D01*
X139963747Y-85344000D01*
X139956855Y-85346855D01*
X139954000Y-85353747D01*
X139954000Y-87366253D01*
X139446000Y-87366253D01*
X139446000Y-84826253D01*
X139954000Y-84826253D01*
X139956855Y-84833145D01*
X139963747Y-84836000D01*
X141026797Y-84836000D01*
X141033689Y-84833145D01*
X141035012Y-84829951D01*
X140989317Y-84649502D01*
X140988011Y-84645698D01*
X140899230Y-84443299D01*
X140897313Y-84439756D01*
X140776432Y-84254735D01*
X140773956Y-84251554D01*
X140624270Y-84088951D01*
X140621301Y-84086218D01*
X140446901Y-83950478D01*
X140443516Y-83948266D01*
X140249153Y-83843082D01*
X140245458Y-83841461D01*
X140036428Y-83769701D01*
X140032516Y-83768710D01*
X139963612Y-83757212D01*
X139956346Y-83758893D01*
X139954000Y-83762651D01*
X139954000Y-84826253D01*
X139446000Y-84826253D01*
X139446000Y-83765355D01*
X139443145Y-83758463D01*
X139439052Y-83756767D01*
X139367484Y-83768710D01*
X139363572Y-83769701D01*
X139154542Y-83841461D01*
X139150847Y-83843082D01*
X138956484Y-83948266D01*
X138953099Y-83950478D01*
X138778699Y-84086218D01*
X138775724Y-84088957D01*
X138643050Y-84233079D01*
X138609025Y-84248850D01*
X138573813Y-84235942D01*
X138558000Y-84199892D01*
X138558000Y-82550000D01*
X138694659Y-82550000D01*
X138713976Y-82746132D01*
X138714674Y-82748433D01*
X138770485Y-82932418D01*
X138770487Y-82932423D01*
X138771186Y-82934727D01*
X138772322Y-82936853D01*
X138772324Y-82936857D01*
X138862954Y-83106414D01*
X138862957Y-83106419D01*
X138864090Y-83108538D01*
X138989117Y-83260883D01*
X139141462Y-83385910D01*
X139143581Y-83387043D01*
X139143586Y-83387046D01*
X139313143Y-83477676D01*
X139313147Y-83477678D01*
X139315273Y-83478814D01*
X139317577Y-83479513D01*
X139317582Y-83479515D01*
X139501567Y-83535326D01*
X139503868Y-83536024D01*
X139506256Y-83536259D01*
X139506260Y-83536260D01*
X139697604Y-83555105D01*
X139700000Y-83555341D01*
X139702396Y-83555105D01*
X139893740Y-83536260D01*
X139893744Y-83536259D01*
X139896132Y-83536024D01*
X139898433Y-83535326D01*
X140082418Y-83479515D01*
X140082423Y-83479513D01*
X140084727Y-83478814D01*
X140086853Y-83477678D01*
X140086857Y-83477676D01*
X140195233Y-83419748D01*
X141189500Y-83419748D01*
X141201133Y-83478231D01*
X141245448Y-83544552D01*
X141311769Y-83588867D01*
X141370252Y-83600500D01*
X143109748Y-83600500D01*
X143168231Y-83588867D01*
X143234552Y-83544552D01*
X143278867Y-83478231D01*
X143290500Y-83419748D01*
X143290500Y-81680252D01*
X143278867Y-81621769D01*
X143234552Y-81555448D01*
X143168231Y-81511133D01*
X143109748Y-81499500D01*
X141370252Y-81499500D01*
X141311769Y-81511133D01*
X141245448Y-81555448D01*
X141201133Y-81621769D01*
X141189500Y-81680252D01*
X141189500Y-83419748D01*
X140195233Y-83419748D01*
X140256414Y-83387046D01*
X140256419Y-83387043D01*
X140258538Y-83385910D01*
X140410883Y-83260883D01*
X140535910Y-83108538D01*
X140537043Y-83106419D01*
X140537046Y-83106414D01*
X140627676Y-82936857D01*
X140627678Y-82936853D01*
X140628814Y-82934727D01*
X140629513Y-82932423D01*
X140629515Y-82932418D01*
X140685326Y-82748433D01*
X140686024Y-82746132D01*
X140705341Y-82550000D01*
X140695786Y-82452981D01*
X140686260Y-82356260D01*
X140686259Y-82356256D01*
X140686024Y-82353868D01*
X140685326Y-82351567D01*
X140629515Y-82167582D01*
X140629513Y-82167577D01*
X140628814Y-82165273D01*
X140627676Y-82163144D01*
X140627676Y-82163143D01*
X140537046Y-81993586D01*
X140537043Y-81993581D01*
X140535910Y-81991462D01*
X140410883Y-81839117D01*
X140258538Y-81714090D01*
X140256419Y-81712957D01*
X140256414Y-81712954D01*
X140086857Y-81622324D01*
X140086853Y-81622322D01*
X140084727Y-81621186D01*
X140082423Y-81620487D01*
X140082418Y-81620485D01*
X139898433Y-81564674D01*
X139896132Y-81563976D01*
X139893744Y-81563741D01*
X139893740Y-81563740D01*
X139702396Y-81544895D01*
X139700000Y-81544659D01*
X139697604Y-81544895D01*
X139506260Y-81563740D01*
X139506256Y-81563741D01*
X139503868Y-81563976D01*
X139501567Y-81564674D01*
X139317582Y-81620485D01*
X139317577Y-81620487D01*
X139315273Y-81621186D01*
X139313147Y-81622322D01*
X139313143Y-81622324D01*
X139143586Y-81712954D01*
X139143581Y-81712957D01*
X139141462Y-81714090D01*
X138989117Y-81839117D01*
X138864090Y-81991462D01*
X138862957Y-81993581D01*
X138862954Y-81993586D01*
X138772324Y-82163143D01*
X138772324Y-82163144D01*
X138771186Y-82165273D01*
X138770487Y-82167577D01*
X138770485Y-82167582D01*
X138714674Y-82351567D01*
X138713976Y-82353868D01*
X138713741Y-82356256D01*
X138713740Y-82356260D01*
X138704214Y-82452981D01*
X138694659Y-82550000D01*
X138558000Y-82550000D01*
X138558000Y-78917000D01*
X138572352Y-78882352D01*
X138607000Y-78868000D01*
X161113000Y-78868000D01*
X161147648Y-78882352D01*
G37*
G04 #@! TD.AperFunction*
M02*
