G04 #@! TF.GenerationSoftware,KiCad,Pcbnew,(6.99.0-820-g3733ca4500)*
G04 #@! TF.CreationDate,2022-03-15T16:29:12+11:00*
G04 #@! TF.ProjectId,JtagArm20Adapter,4a746167-4172-46d3-9230-416461707465,rev?*
G04 #@! TF.SameCoordinates,Original*
G04 #@! TF.FileFunction,Copper,L1,Top*
G04 #@! TF.FilePolarity,Positive*
%FSLAX46Y46*%
G04 Gerber Fmt 4.6, Leading zero omitted, Abs format (unit mm)*
G04 Created by KiCad (PCBNEW (6.99.0-820-g3733ca4500)) date 2022-03-15 16:29:12*
%MOMM*%
%LPD*%
G01*
G04 APERTURE LIST*
G04 Aperture macros list*
%AMFreePoly0*
4,1,6,1.000000,0.000000,0.500000,-0.750000,-0.500000,-0.750000,-0.500000,0.750000,0.500000,0.750000,1.000000,0.000000,1.000000,0.000000,$1*%
%AMFreePoly1*
4,1,6,0.500000,-0.750000,-0.650000,-0.750000,-0.150000,0.000000,-0.650000,0.750000,0.500000,0.750000,0.500000,-0.750000,0.500000,-0.750000,$1*%
G04 Aperture macros list end*
G04 #@! TA.AperFunction,Profile*
%ADD10C,0.050000*%
G04 #@! TD*
G04 #@! TA.AperFunction,SMDPad,CuDef*
%ADD11R,2.400000X0.740000*%
G04 #@! TD*
G04 #@! TA.AperFunction,ComponentPad*
%ADD12R,1.700000X1.700000*%
G04 #@! TD*
G04 #@! TA.AperFunction,ComponentPad*
%ADD13O,1.700000X1.700000*%
G04 #@! TD*
G04 #@! TA.AperFunction,SMDPad,CuDef*
%ADD14FreePoly0,180.000000*%
G04 #@! TD*
G04 #@! TA.AperFunction,SMDPad,CuDef*
%ADD15FreePoly1,180.000000*%
G04 #@! TD*
G04 #@! TA.AperFunction,SMDPad,CuDef*
%ADD16R,3.150000X1.000000*%
G04 #@! TD*
G04 #@! TA.AperFunction,ViaPad*
%ADD17C,0.450000*%
G04 #@! TD*
G04 #@! TA.AperFunction,ViaPad*
%ADD18C,1.000000*%
G04 #@! TD*
G04 #@! TA.AperFunction,ViaPad*
%ADD19C,0.900000*%
G04 #@! TD*
G04 #@! TA.AperFunction,Conductor*
%ADD20C,0.200000*%
G04 #@! TD*
G04 #@! TA.AperFunction,Conductor*
%ADD21C,0.508000*%
G04 #@! TD*
G04 APERTURE END LIST*
D10*
X138430000Y-109220000D02*
X138430000Y-78740000D01*
X161290000Y-78740000D02*
X161290000Y-109220000D01*
X138430000Y-78740000D02*
X161290000Y-78740000D01*
X161290000Y-109220000D02*
X138430000Y-109220000D01*
D11*
X159429999Y-107949999D03*
X155529999Y-107949999D03*
X159429999Y-106679999D03*
X155529999Y-106679999D03*
X159429999Y-105409999D03*
X155529999Y-105409999D03*
X159429999Y-104139999D03*
X155529999Y-104139999D03*
X159429999Y-102869999D03*
X155529999Y-102869999D03*
X159429999Y-90804999D03*
X155529999Y-90804999D03*
X159429999Y-89534999D03*
X155529999Y-89534999D03*
X159429999Y-88264999D03*
X155529999Y-88264999D03*
X159429999Y-86994999D03*
X155529999Y-86994999D03*
X159429999Y-85724999D03*
X155529999Y-85724999D03*
X159429999Y-84454999D03*
X155529999Y-84454999D03*
X159429999Y-83184999D03*
X155529999Y-83184999D03*
X159429999Y-81914999D03*
X155529999Y-81914999D03*
X159429999Y-80644999D03*
X155529999Y-80644999D03*
X159429999Y-79374999D03*
X155529999Y-79374999D03*
D12*
X142239999Y-82549999D03*
D13*
X139699999Y-82549999D03*
X142239999Y-85089999D03*
X139699999Y-85089999D03*
X142239999Y-87629999D03*
X139699999Y-87629999D03*
X142239999Y-90169999D03*
X139699999Y-90169999D03*
X142239999Y-92709999D03*
X139699999Y-92709999D03*
X142239999Y-95249999D03*
X139699999Y-95249999D03*
X142239999Y-97789999D03*
X139699999Y-97789999D03*
X142239999Y-100329999D03*
X139699999Y-100329999D03*
X142239999Y-102869999D03*
X139699999Y-102869999D03*
X142239999Y-105409999D03*
X139699999Y-105409999D03*
D14*
X149061000Y-88646000D03*
D15*
X147611000Y-88646000D03*
D12*
X148589999Y-92709999D03*
D13*
X148589999Y-95249999D03*
X148589999Y-97789999D03*
X148589999Y-100329999D03*
X148589999Y-102869999D03*
X148589999Y-105409999D03*
D14*
X158205000Y-96520000D03*
D15*
X156755000Y-96520000D03*
D16*
X146064999Y-81025999D03*
X151114999Y-81025999D03*
X146064999Y-83565999D03*
X151114999Y-83565999D03*
X146064999Y-86105999D03*
X151114999Y-86105999D03*
D14*
X158205000Y-99187000D03*
D15*
X156755000Y-99187000D03*
D17*
X146812000Y-96520000D03*
D18*
X148590000Y-80899000D03*
X153416000Y-79502000D03*
X141224000Y-108458000D03*
X147320000Y-108458000D03*
X146050000Y-106299000D03*
X139192000Y-108458000D03*
X160528000Y-101600000D03*
X147320000Y-79502000D03*
X148590000Y-83947000D03*
X148717000Y-86233000D03*
X144653000Y-96901000D03*
X155067000Y-97790000D03*
X143256000Y-79502000D03*
X160528000Y-93980000D03*
X141224000Y-79502000D03*
X145288000Y-79502000D03*
X149352000Y-108458000D03*
X139192000Y-81026000D03*
X139192000Y-79502000D03*
X157480000Y-91440000D03*
X155194000Y-93853000D03*
X145288000Y-108458000D03*
X149352000Y-79502000D03*
X144907000Y-93091000D03*
X157480000Y-80010000D03*
X157480000Y-88900000D03*
X151384000Y-79502000D03*
X160528000Y-99568000D03*
X157480000Y-81280000D03*
X139192000Y-107061000D03*
X155067000Y-101092000D03*
X143256000Y-108458000D03*
X160528000Y-96012000D03*
X145288000Y-100965000D03*
X160528000Y-97536000D03*
X153416000Y-82296000D03*
D17*
X152527000Y-104140000D03*
X152527000Y-88392000D03*
X150495000Y-87122000D03*
X150495000Y-90043000D03*
X151892000Y-84582000D03*
X151892000Y-95250000D03*
X151892000Y-106680000D03*
X151892000Y-89535000D03*
X151257000Y-90932000D03*
X151130000Y-82042000D03*
X151257000Y-107950000D03*
D19*
X157480000Y-107950000D03*
D17*
X145288000Y-91567000D03*
X143002000Y-86487000D03*
D19*
X157480000Y-92710000D03*
D17*
X146177233Y-88800833D03*
X153670000Y-102870000D03*
X153670000Y-85725000D03*
X157861000Y-85725000D03*
X159385000Y-96520000D03*
D20*
X156755000Y-96520000D02*
X146812000Y-96520000D01*
X151384000Y-88392000D02*
X149860000Y-89916000D01*
X152527000Y-88392000D02*
X152527000Y-88265000D01*
X155530000Y-104140000D02*
X154130000Y-104140000D01*
X149860000Y-89916000D02*
X144526000Y-89916000D01*
X153797000Y-86995000D02*
X155530000Y-86995000D01*
X144526000Y-89916000D02*
X142240000Y-87630000D01*
X154130000Y-104140000D02*
X152527000Y-104140000D01*
X152527000Y-88265000D02*
X153797000Y-86995000D01*
X152527000Y-88392000D02*
X151384000Y-88392000D01*
X140970000Y-99060000D02*
X140970000Y-100965000D01*
X140970000Y-89535000D02*
X140970000Y-96520000D01*
X150495000Y-87122000D02*
X150495000Y-86726000D01*
X150495000Y-86726000D02*
X151115000Y-86106000D01*
X141605000Y-101600000D02*
X142748000Y-101600000D01*
X140970000Y-96520000D02*
X142240000Y-97790000D01*
X150241000Y-90297000D02*
X143921944Y-90297000D01*
X142240000Y-97790000D02*
X140970000Y-99060000D01*
X150495000Y-90043000D02*
X151477511Y-89060489D01*
X154130000Y-88265000D02*
X155530000Y-88265000D01*
X151477511Y-89060489D02*
X153334511Y-89060489D01*
X146558000Y-105410000D02*
X148590000Y-105410000D01*
X153334511Y-89060489D02*
X154130000Y-88265000D01*
X141434511Y-89070489D02*
X140970000Y-89535000D01*
X142695433Y-89070489D02*
X141434511Y-89070489D01*
X143921944Y-90297000D02*
X142695433Y-89070489D01*
X155530000Y-105410000D02*
X148590000Y-105410000D01*
X150495000Y-90043000D02*
X150241000Y-90297000D01*
X140970000Y-100965000D02*
X141605000Y-101600000D01*
X142748000Y-101600000D02*
X146558000Y-105410000D01*
X142240000Y-92710000D02*
X144780000Y-95250000D01*
X155530000Y-106680000D02*
X154130000Y-106680000D01*
X154130000Y-106680000D02*
X151892000Y-106680000D01*
X151892000Y-95250000D02*
X151573802Y-95250000D01*
X151892000Y-84582000D02*
X151892000Y-84343000D01*
X151892000Y-84343000D02*
X151115000Y-83566000D01*
X151892000Y-89535000D02*
X155530000Y-89535000D01*
X151573802Y-95250000D02*
X148590000Y-95250000D01*
X144780000Y-95250000D02*
X148590000Y-95250000D01*
X151257000Y-90932000D02*
X151384000Y-90805000D01*
X142240000Y-90170000D02*
X143002000Y-90932000D01*
X151384000Y-90805000D02*
X155530000Y-90805000D01*
X151130000Y-82042000D02*
X151130000Y-81041000D01*
X143002000Y-90932000D02*
X151257000Y-90932000D01*
X155530000Y-107950000D02*
X151257000Y-107950000D01*
X151130000Y-81041000D02*
X151115000Y-81026000D01*
X142240000Y-82550000D02*
X141090489Y-83699511D01*
X141090489Y-83699511D02*
X141090489Y-85566144D01*
X141090489Y-85566144D02*
X142004834Y-86480489D01*
D21*
X157480000Y-92710000D02*
X158403000Y-92710000D01*
X157353000Y-92710000D02*
X148590000Y-92710000D01*
X159430000Y-107950000D02*
X157480000Y-107950000D01*
X157353000Y-92710000D02*
X157480000Y-92710000D01*
D20*
X142004834Y-86480489D02*
X142995489Y-86480489D01*
D21*
X159430000Y-91683000D02*
X159430000Y-90805000D01*
X158403000Y-92710000D02*
X159430000Y-91683000D01*
D20*
X146431000Y-92710000D02*
X148590000Y-92710000D01*
X142240000Y-82550000D02*
X143764000Y-81026000D01*
X145288000Y-91567000D02*
X146431000Y-92710000D01*
X143764000Y-81026000D02*
X146065000Y-81026000D01*
X147456167Y-88800833D02*
X147611000Y-88646000D01*
X146177233Y-88800833D02*
X147456167Y-88800833D01*
X142240000Y-100330000D02*
X144780000Y-102870000D01*
X146065000Y-83566000D02*
X147589000Y-85090000D01*
X147589000Y-85090000D02*
X153035000Y-85090000D01*
X155530000Y-85725000D02*
X153670000Y-85725000D01*
X153670000Y-102870000D02*
X155530000Y-102870000D01*
X153035000Y-85090000D02*
X153670000Y-85725000D01*
X144780000Y-102870000D02*
X148590000Y-102870000D01*
X148590000Y-102870000D02*
X149792081Y-102870000D01*
X149792081Y-102870000D02*
X153670000Y-102870000D01*
X159385000Y-97028000D02*
X159385000Y-102825000D01*
X159385000Y-97028000D02*
X159385000Y-96520000D01*
X159385000Y-102825000D02*
X159430000Y-102870000D01*
X158205000Y-96520000D02*
X159385000Y-96520000D01*
X157861000Y-85725000D02*
X159430000Y-85725000D01*
X157480000Y-104139022D02*
X157480000Y-101600000D01*
X157480000Y-101600000D02*
X156755000Y-100875000D01*
X158750978Y-105410000D02*
X157480000Y-104139022D01*
X159430000Y-105410000D02*
X158750978Y-105410000D01*
X156755000Y-100875000D02*
X156755000Y-99187000D01*
X156956511Y-86375489D02*
X153781511Y-86375489D01*
X158030000Y-83185000D02*
X157226000Y-83989000D01*
X157226000Y-84455000D02*
X159430000Y-84455000D01*
X151130000Y-88011000D02*
X150495000Y-88646000D01*
X159430000Y-83185000D02*
X158030000Y-83185000D01*
X152146000Y-88011000D02*
X151130000Y-88011000D01*
X153781511Y-86375489D02*
X152146000Y-88011000D01*
X150495000Y-88646000D02*
X149061000Y-88646000D01*
X157226000Y-83989000D02*
X157226000Y-86106000D01*
X157226000Y-86106000D02*
X156956511Y-86375489D01*
G04 #@! TA.AperFunction,Conductor*
G36*
X154183512Y-78882352D02*
G01*
X154197864Y-78917000D01*
X154191688Y-78937361D01*
X154192761Y-78937806D01*
X154190914Y-78942265D01*
X154188233Y-78946278D01*
X154179500Y-78990180D01*
X154179500Y-79759820D01*
X154188233Y-79803722D01*
X154221496Y-79853504D01*
X154271278Y-79886767D01*
X154315180Y-79895500D01*
X156744820Y-79895500D01*
X156788722Y-79886767D01*
X156838504Y-79853504D01*
X156871767Y-79803722D01*
X156880500Y-79759820D01*
X156880500Y-78990180D01*
X156871767Y-78946278D01*
X156869086Y-78942265D01*
X156867239Y-78937806D01*
X156868974Y-78937087D01*
X156863078Y-78907439D01*
X156883915Y-78876257D01*
X156911136Y-78868000D01*
X157676955Y-78868000D01*
X157711603Y-78882352D01*
X157725955Y-78917000D01*
X157725674Y-78922238D01*
X157722141Y-78955095D01*
X157722000Y-78957730D01*
X157722000Y-79111253D01*
X157724855Y-79118145D01*
X157731747Y-79121000D01*
X159635000Y-79121000D01*
X159669648Y-79135352D01*
X159684000Y-79170000D01*
X159684000Y-82120000D01*
X159669648Y-82154648D01*
X159635000Y-82169000D01*
X157731747Y-82169000D01*
X157724855Y-82171855D01*
X157722000Y-82178747D01*
X157722000Y-82332270D01*
X157722141Y-82334905D01*
X157728178Y-82391048D01*
X157729574Y-82396961D01*
X157778330Y-82527679D01*
X157781655Y-82533769D01*
X157864997Y-82645100D01*
X157869900Y-82650003D01*
X157981231Y-82733345D01*
X157987321Y-82736670D01*
X158047624Y-82759162D01*
X158075072Y-82784717D01*
X158079500Y-82805073D01*
X158079500Y-82881533D01*
X158065148Y-82916181D01*
X158031874Y-82929964D01*
X158030000Y-82929591D01*
X158025265Y-82930533D01*
X157936993Y-82948092D01*
X157936991Y-82948093D01*
X157932260Y-82949034D01*
X157928251Y-82951713D01*
X157928248Y-82951714D01*
X157919596Y-82957496D01*
X157849399Y-83004399D01*
X157846717Y-83008413D01*
X157846716Y-83008414D01*
X157838103Y-83021305D01*
X157832009Y-83028730D01*
X157069733Y-83791007D01*
X157062308Y-83797101D01*
X157045399Y-83808399D01*
X157009943Y-83861464D01*
X156990034Y-83891259D01*
X156989092Y-83895993D01*
X156989092Y-83895994D01*
X156973612Y-83973816D01*
X156970592Y-83989000D01*
X156971534Y-83993735D01*
X156974558Y-84008937D01*
X156975500Y-84018497D01*
X156975500Y-84050274D01*
X156961148Y-84084922D01*
X156926500Y-84099274D01*
X156891852Y-84084922D01*
X156878442Y-84059834D01*
X156872708Y-84031011D01*
X156871767Y-84026278D01*
X156838504Y-83976496D01*
X156788722Y-83943233D01*
X156744820Y-83934500D01*
X154315180Y-83934500D01*
X154271278Y-83943233D01*
X154221496Y-83976496D01*
X154188233Y-84026278D01*
X154179500Y-84070180D01*
X154179500Y-84839820D01*
X154188233Y-84883722D01*
X154221496Y-84933504D01*
X154271278Y-84966767D01*
X154315180Y-84975500D01*
X156744820Y-84975500D01*
X156788722Y-84966767D01*
X156838504Y-84933504D01*
X156871767Y-84883722D01*
X156878442Y-84850166D01*
X156899277Y-84818984D01*
X156936060Y-84811668D01*
X156967242Y-84832503D01*
X156975500Y-84859726D01*
X156975500Y-85320274D01*
X156961148Y-85354922D01*
X156926500Y-85369274D01*
X156891852Y-85354922D01*
X156878442Y-85329834D01*
X156872708Y-85301011D01*
X156871767Y-85296278D01*
X156838504Y-85246496D01*
X156788722Y-85213233D01*
X156744820Y-85204500D01*
X154315180Y-85204500D01*
X154271278Y-85213233D01*
X154221496Y-85246496D01*
X154188233Y-85296278D01*
X154179500Y-85340180D01*
X154179500Y-85425500D01*
X154165148Y-85460148D01*
X154130500Y-85474500D01*
X153970834Y-85474500D01*
X153936186Y-85460148D01*
X153893465Y-85417427D01*
X153890032Y-85415678D01*
X153890031Y-85415677D01*
X153840473Y-85390426D01*
X153787482Y-85363426D01*
X153783677Y-85362823D01*
X153783676Y-85362823D01*
X153673807Y-85345422D01*
X153670000Y-85344819D01*
X153666193Y-85345422D01*
X153664979Y-85345422D01*
X153630331Y-85331070D01*
X153232993Y-84933733D01*
X153226899Y-84926308D01*
X153218284Y-84913414D01*
X153218283Y-84913413D01*
X153215601Y-84909399D01*
X153162536Y-84873943D01*
X153136752Y-84856714D01*
X153136751Y-84856714D01*
X153132741Y-84854034D01*
X153128007Y-84853092D01*
X153128006Y-84853092D01*
X153039736Y-84835534D01*
X153035000Y-84834592D01*
X153015060Y-84838558D01*
X153005503Y-84839500D01*
X152284638Y-84839500D01*
X152249990Y-84825148D01*
X152235638Y-84790500D01*
X152240979Y-84768254D01*
X152265642Y-84719852D01*
X152272832Y-84705740D01*
X152292430Y-84582000D01*
X152272832Y-84458260D01*
X152233456Y-84380980D01*
X152217705Y-84350067D01*
X152217704Y-84350066D01*
X152215955Y-84346633D01*
X152169470Y-84300148D01*
X152155118Y-84265500D01*
X152169470Y-84230852D01*
X152204118Y-84216500D01*
X152704820Y-84216500D01*
X152748722Y-84207767D01*
X152798504Y-84174504D01*
X152831767Y-84124722D01*
X152840500Y-84080820D01*
X152840500Y-83569820D01*
X154179500Y-83569820D01*
X154188233Y-83613722D01*
X154221496Y-83663504D01*
X154271278Y-83696767D01*
X154315180Y-83705500D01*
X156744820Y-83705500D01*
X156788722Y-83696767D01*
X156838504Y-83663504D01*
X156871767Y-83613722D01*
X156880500Y-83569820D01*
X156880500Y-82800180D01*
X156871767Y-82756278D01*
X156838504Y-82706496D01*
X156788722Y-82673233D01*
X156744820Y-82664500D01*
X154315180Y-82664500D01*
X154271278Y-82673233D01*
X154221496Y-82706496D01*
X154188233Y-82756278D01*
X154179500Y-82800180D01*
X154179500Y-83569820D01*
X152840500Y-83569820D01*
X152840500Y-83051180D01*
X152831767Y-83007278D01*
X152798504Y-82957496D01*
X152748722Y-82924233D01*
X152704820Y-82915500D01*
X149525180Y-82915500D01*
X149481278Y-82924233D01*
X149431496Y-82957496D01*
X149398233Y-83007278D01*
X149389500Y-83051180D01*
X149389500Y-84080820D01*
X149398233Y-84124722D01*
X149431496Y-84174504D01*
X149481278Y-84207767D01*
X149525180Y-84216500D01*
X151390944Y-84216500D01*
X151425592Y-84230852D01*
X151533869Y-84339129D01*
X151548221Y-84373777D01*
X151542881Y-84396021D01*
X151511168Y-84458260D01*
X151491570Y-84582000D01*
X151511168Y-84705740D01*
X151518359Y-84719852D01*
X151543021Y-84768254D01*
X151545964Y-84805642D01*
X151521608Y-84834159D01*
X151499362Y-84839500D01*
X147713056Y-84839500D01*
X147678408Y-84825148D01*
X147153408Y-84300148D01*
X147139056Y-84265500D01*
X147153408Y-84230852D01*
X147188056Y-84216500D01*
X147654820Y-84216500D01*
X147698722Y-84207767D01*
X147748504Y-84174504D01*
X147781767Y-84124722D01*
X147790500Y-84080820D01*
X147790500Y-83051180D01*
X147781767Y-83007278D01*
X147748504Y-82957496D01*
X147698722Y-82924233D01*
X147654820Y-82915500D01*
X144475180Y-82915500D01*
X144431278Y-82924233D01*
X144381496Y-82957496D01*
X144348233Y-83007278D01*
X144339500Y-83051180D01*
X144339500Y-84080820D01*
X144348233Y-84124722D01*
X144381496Y-84174504D01*
X144431278Y-84207767D01*
X144475180Y-84216500D01*
X146340944Y-84216500D01*
X146375592Y-84230852D01*
X147159092Y-85014352D01*
X147173444Y-85049000D01*
X147159092Y-85083648D01*
X147124444Y-85098000D01*
X146328747Y-85098000D01*
X146321855Y-85100855D01*
X146319000Y-85107747D01*
X146319000Y-85842253D01*
X146321855Y-85849145D01*
X146328747Y-85852000D01*
X148138253Y-85852000D01*
X148145145Y-85849145D01*
X148148000Y-85842253D01*
X148148000Y-85558730D01*
X148147859Y-85556095D01*
X148141822Y-85499952D01*
X148140425Y-85494038D01*
X148107822Y-85406624D01*
X148109161Y-85369144D01*
X148136609Y-85343589D01*
X148153733Y-85340500D01*
X152910944Y-85340500D01*
X152945592Y-85354852D01*
X153276070Y-85685331D01*
X153290422Y-85719979D01*
X153290422Y-85721193D01*
X153289819Y-85725000D01*
X153308426Y-85842482D01*
X153310176Y-85845916D01*
X153350935Y-85925910D01*
X153362427Y-85948465D01*
X153446535Y-86032573D01*
X153449968Y-86034322D01*
X153449969Y-86034323D01*
X153463743Y-86041341D01*
X153552518Y-86086574D01*
X153556323Y-86087177D01*
X153556324Y-86087177D01*
X153599026Y-86093940D01*
X153631003Y-86113535D01*
X153639758Y-86150002D01*
X153618583Y-86183079D01*
X153604923Y-86192206D01*
X153604921Y-86192208D01*
X153600910Y-86194888D01*
X153597833Y-86199493D01*
X153589614Y-86211794D01*
X153583520Y-86219219D01*
X152819441Y-86983299D01*
X152056592Y-87746148D01*
X152021944Y-87760500D01*
X151159502Y-87760500D01*
X151149942Y-87759558D01*
X151130000Y-87755591D01*
X151111867Y-87759198D01*
X151036993Y-87774092D01*
X151036991Y-87774093D01*
X151032260Y-87775034D01*
X150978609Y-87810882D01*
X150949399Y-87830399D01*
X150946719Y-87834410D01*
X150938103Y-87847305D01*
X150932009Y-87854730D01*
X150405592Y-88381148D01*
X150370944Y-88395500D01*
X149763448Y-88395500D01*
X149728800Y-88381148D01*
X149714448Y-88346500D01*
X149714448Y-87896000D01*
X149702767Y-87837278D01*
X149669504Y-87787496D01*
X149619722Y-87754233D01*
X149561000Y-87742552D01*
X148561000Y-87742552D01*
X148559800Y-87742671D01*
X148559796Y-87742671D01*
X148550484Y-87743593D01*
X148530906Y-87745532D01*
X148527562Y-87746921D01*
X148527563Y-87746921D01*
X148480070Y-87766651D01*
X148480069Y-87766652D01*
X148475615Y-87768502D01*
X148472209Y-87771916D01*
X148472208Y-87771916D01*
X148446678Y-87797500D01*
X148412045Y-87811888D01*
X148377381Y-87797573D01*
X148373383Y-87792706D01*
X148372184Y-87791507D01*
X148369504Y-87787496D01*
X148319722Y-87754233D01*
X148261000Y-87742552D01*
X147111000Y-87742552D01*
X147052278Y-87754233D01*
X147002496Y-87787496D01*
X146969233Y-87837278D01*
X146957552Y-87896000D01*
X146957552Y-88501333D01*
X146943200Y-88535981D01*
X146908552Y-88550333D01*
X146478067Y-88550333D01*
X146443419Y-88535981D01*
X146400698Y-88493260D01*
X146397265Y-88491511D01*
X146397264Y-88491510D01*
X146344020Y-88464381D01*
X146294715Y-88439259D01*
X146290910Y-88438656D01*
X146290909Y-88438656D01*
X146181040Y-88421255D01*
X146177233Y-88420652D01*
X146173426Y-88421255D01*
X146063557Y-88438656D01*
X146063556Y-88438656D01*
X146059751Y-88439259D01*
X146010446Y-88464381D01*
X145957202Y-88491510D01*
X145957201Y-88491511D01*
X145953768Y-88493260D01*
X145869660Y-88577368D01*
X145867911Y-88580801D01*
X145867910Y-88580802D01*
X145848860Y-88618191D01*
X145815659Y-88683351D01*
X145815056Y-88687156D01*
X145815056Y-88687157D01*
X145807303Y-88736112D01*
X145797052Y-88800833D01*
X145797655Y-88804640D01*
X145814973Y-88913981D01*
X145815659Y-88918315D01*
X145842659Y-88971306D01*
X145864908Y-89014971D01*
X145869660Y-89024298D01*
X145953768Y-89108406D01*
X145957201Y-89110155D01*
X145957202Y-89110156D01*
X145972067Y-89117730D01*
X146059751Y-89162407D01*
X146063556Y-89163010D01*
X146063557Y-89163010D01*
X146173426Y-89180411D01*
X146177233Y-89181014D01*
X146181040Y-89180411D01*
X146290909Y-89163010D01*
X146290910Y-89163010D01*
X146294715Y-89162407D01*
X146382399Y-89117730D01*
X146397264Y-89110156D01*
X146397265Y-89110155D01*
X146400698Y-89108406D01*
X146443419Y-89065685D01*
X146478067Y-89051333D01*
X146908552Y-89051333D01*
X146943200Y-89065685D01*
X146957552Y-89100333D01*
X146957552Y-89396000D01*
X146969233Y-89454722D01*
X147002496Y-89504504D01*
X147052278Y-89537767D01*
X147111000Y-89549448D01*
X148261000Y-89549448D01*
X148262180Y-89549332D01*
X148262188Y-89549332D01*
X148273311Y-89548242D01*
X148290779Y-89546531D01*
X148346118Y-89523676D01*
X148349533Y-89520269D01*
X148349535Y-89520267D01*
X148375025Y-89494830D01*
X148409688Y-89480514D01*
X148444321Y-89494902D01*
X148447530Y-89498448D01*
X148450197Y-89501701D01*
X148450201Y-89501705D01*
X148452496Y-89504504D01*
X148502278Y-89537767D01*
X148561000Y-89549448D01*
X149561000Y-89549448D01*
X149619722Y-89537767D01*
X149669504Y-89504504D01*
X149702767Y-89454722D01*
X149714448Y-89396000D01*
X149714448Y-88945500D01*
X149728800Y-88910852D01*
X149763448Y-88896500D01*
X150406944Y-88896500D01*
X150441592Y-88910852D01*
X150455944Y-88945500D01*
X150441592Y-88980148D01*
X149770592Y-89651148D01*
X149735944Y-89665500D01*
X144650056Y-89665500D01*
X144615408Y-89651148D01*
X143128389Y-88164129D01*
X143114037Y-88129481D01*
X143119823Y-88106382D01*
X143167681Y-88016847D01*
X143167682Y-88016846D01*
X143168814Y-88014727D01*
X143226024Y-87826132D01*
X143229435Y-87791507D01*
X143245105Y-87632396D01*
X143245341Y-87630000D01*
X143235492Y-87529997D01*
X143226260Y-87436260D01*
X143226259Y-87436256D01*
X143226024Y-87433868D01*
X143222071Y-87420838D01*
X143169515Y-87247582D01*
X143169513Y-87247577D01*
X143168814Y-87245273D01*
X143167678Y-87243147D01*
X143167676Y-87243143D01*
X143077046Y-87073586D01*
X143077043Y-87073581D01*
X143075910Y-87071462D01*
X143010060Y-86991224D01*
X142999173Y-86955336D01*
X143016852Y-86922262D01*
X143040271Y-86911743D01*
X143098270Y-86902556D01*
X143131320Y-86897322D01*
X143131321Y-86897322D01*
X143135126Y-86896719D01*
X143214812Y-86856117D01*
X143251786Y-86837278D01*
X143251787Y-86837277D01*
X143255220Y-86835528D01*
X143350528Y-86740220D01*
X143362266Y-86717184D01*
X143394831Y-86653270D01*
X143982000Y-86653270D01*
X143982141Y-86655905D01*
X143988178Y-86712048D01*
X143989574Y-86717961D01*
X144038330Y-86848679D01*
X144041655Y-86854769D01*
X144124997Y-86966100D01*
X144129900Y-86971003D01*
X144241231Y-87054345D01*
X144247321Y-87057670D01*
X144378039Y-87106426D01*
X144383952Y-87107822D01*
X144440095Y-87113859D01*
X144442730Y-87114000D01*
X145801253Y-87114000D01*
X145808145Y-87111145D01*
X145811000Y-87104253D01*
X146319000Y-87104253D01*
X146321855Y-87111145D01*
X146328747Y-87114000D01*
X147687270Y-87114000D01*
X147689905Y-87113859D01*
X147746048Y-87107822D01*
X147751961Y-87106426D01*
X147882679Y-87057670D01*
X147888769Y-87054345D01*
X148000100Y-86971003D01*
X148005003Y-86966100D01*
X148088345Y-86854769D01*
X148091670Y-86848679D01*
X148140426Y-86717961D01*
X148141822Y-86712048D01*
X148147859Y-86655905D01*
X148148000Y-86653270D01*
X148148000Y-86620820D01*
X149389500Y-86620820D01*
X149398233Y-86664722D01*
X149431496Y-86714504D01*
X149481278Y-86747767D01*
X149525180Y-86756500D01*
X150182882Y-86756500D01*
X150217530Y-86770852D01*
X150231882Y-86805500D01*
X150217530Y-86840148D01*
X150171045Y-86886633D01*
X150169296Y-86890066D01*
X150169295Y-86890067D01*
X150153544Y-86920980D01*
X150114168Y-86998260D01*
X150094570Y-87122000D01*
X150095173Y-87125807D01*
X150104659Y-87185698D01*
X150114168Y-87245740D01*
X150171045Y-87357367D01*
X150259633Y-87445955D01*
X150263066Y-87447704D01*
X150263067Y-87447705D01*
X150305829Y-87469493D01*
X150371260Y-87502832D01*
X150375065Y-87503435D01*
X150375066Y-87503435D01*
X150491193Y-87521827D01*
X150495000Y-87522430D01*
X150498807Y-87521827D01*
X150614934Y-87503435D01*
X150614935Y-87503435D01*
X150618740Y-87502832D01*
X150684171Y-87469493D01*
X150726933Y-87447705D01*
X150726934Y-87447704D01*
X150730367Y-87445955D01*
X150818955Y-87357367D01*
X150875832Y-87245740D01*
X150885342Y-87185698D01*
X150894827Y-87125807D01*
X150895430Y-87122000D01*
X150875832Y-86998260D01*
X150836456Y-86920980D01*
X150820705Y-86890067D01*
X150820704Y-86890066D01*
X150818955Y-86886633D01*
X150788439Y-86856117D01*
X150774087Y-86821469D01*
X150788439Y-86786821D01*
X150804408Y-86770852D01*
X150839056Y-86756500D01*
X152704820Y-86756500D01*
X152748722Y-86747767D01*
X152798504Y-86714504D01*
X152831767Y-86664722D01*
X152840500Y-86620820D01*
X152840500Y-85591180D01*
X152831767Y-85547278D01*
X152798504Y-85497496D01*
X152748722Y-85464233D01*
X152704820Y-85455500D01*
X149525180Y-85455500D01*
X149481278Y-85464233D01*
X149431496Y-85497496D01*
X149398233Y-85547278D01*
X149389500Y-85591180D01*
X149389500Y-86620820D01*
X148148000Y-86620820D01*
X148148000Y-86369747D01*
X148145145Y-86362855D01*
X148138253Y-86360000D01*
X146328747Y-86360000D01*
X146321855Y-86362855D01*
X146319000Y-86369747D01*
X146319000Y-87104253D01*
X145811000Y-87104253D01*
X145811000Y-86369747D01*
X145808145Y-86362855D01*
X145801253Y-86360000D01*
X143991747Y-86360000D01*
X143984855Y-86362855D01*
X143982000Y-86369747D01*
X143982000Y-86653270D01*
X143394831Y-86653270D01*
X143408615Y-86626218D01*
X143411719Y-86620126D01*
X143413093Y-86611455D01*
X143432201Y-86490807D01*
X143432804Y-86487000D01*
X143414233Y-86369747D01*
X143412322Y-86357680D01*
X143412322Y-86357679D01*
X143411719Y-86353874D01*
X143356260Y-86245029D01*
X143352278Y-86237214D01*
X143352277Y-86237213D01*
X143350528Y-86233780D01*
X143255220Y-86138472D01*
X143251787Y-86136723D01*
X143251786Y-86136722D01*
X143172533Y-86096341D01*
X143135126Y-86077281D01*
X143131321Y-86076678D01*
X143131320Y-86076678D01*
X143005807Y-86056799D01*
X143002000Y-86056196D01*
X142998193Y-86056799D01*
X142872680Y-86076678D01*
X142872679Y-86076678D01*
X142868874Y-86077281D01*
X142831467Y-86096341D01*
X142752214Y-86136722D01*
X142752213Y-86136723D01*
X142748780Y-86138472D01*
X142721615Y-86165637D01*
X142686967Y-86179989D01*
X142377974Y-86179989D01*
X142343326Y-86165637D01*
X142328974Y-86130989D01*
X142343326Y-86096341D01*
X142373171Y-86082225D01*
X142433740Y-86076260D01*
X142433744Y-86076259D01*
X142436132Y-86076024D01*
X142438433Y-86075326D01*
X142622418Y-86019515D01*
X142622423Y-86019513D01*
X142624727Y-86018814D01*
X142626853Y-86017678D01*
X142626857Y-86017676D01*
X142796414Y-85927046D01*
X142796419Y-85927043D01*
X142798538Y-85925910D01*
X142900474Y-85842253D01*
X143982000Y-85842253D01*
X143984855Y-85849145D01*
X143991747Y-85852000D01*
X145801253Y-85852000D01*
X145808145Y-85849145D01*
X145811000Y-85842253D01*
X145811000Y-85107747D01*
X145808145Y-85100855D01*
X145801253Y-85098000D01*
X144442730Y-85098000D01*
X144440095Y-85098141D01*
X144383952Y-85104178D01*
X144378039Y-85105574D01*
X144247321Y-85154330D01*
X144241231Y-85157655D01*
X144129900Y-85240997D01*
X144124997Y-85245900D01*
X144041655Y-85357231D01*
X144038330Y-85363321D01*
X143989574Y-85494039D01*
X143988178Y-85499952D01*
X143982141Y-85556095D01*
X143982000Y-85558730D01*
X143982000Y-85842253D01*
X142900474Y-85842253D01*
X142950883Y-85800883D01*
X143075910Y-85648538D01*
X143077043Y-85646419D01*
X143077046Y-85646414D01*
X143167676Y-85476857D01*
X143167678Y-85476853D01*
X143168814Y-85474727D01*
X143169513Y-85472423D01*
X143169515Y-85472418D01*
X143225326Y-85288433D01*
X143226024Y-85286132D01*
X143229987Y-85245900D01*
X143245105Y-85092396D01*
X143245341Y-85090000D01*
X143241303Y-85049000D01*
X143226260Y-84896260D01*
X143226259Y-84896256D01*
X143226024Y-84893868D01*
X143222946Y-84883722D01*
X143169515Y-84707582D01*
X143169513Y-84707577D01*
X143168814Y-84705273D01*
X143167678Y-84703147D01*
X143167676Y-84703143D01*
X143077046Y-84533586D01*
X143077043Y-84533581D01*
X143075910Y-84531462D01*
X142976623Y-84410481D01*
X142952412Y-84380980D01*
X142950883Y-84379117D01*
X142798538Y-84254090D01*
X142796419Y-84252957D01*
X142796414Y-84252954D01*
X142626857Y-84162324D01*
X142626853Y-84162322D01*
X142624727Y-84161186D01*
X142622423Y-84160487D01*
X142622418Y-84160485D01*
X142438433Y-84104674D01*
X142436132Y-84103976D01*
X142433744Y-84103741D01*
X142433740Y-84103740D01*
X142242396Y-84084895D01*
X142240000Y-84084659D01*
X142237604Y-84084895D01*
X142046260Y-84103740D01*
X142046256Y-84103741D01*
X142043868Y-84103976D01*
X142041567Y-84104674D01*
X141857582Y-84160485D01*
X141857577Y-84160487D01*
X141855273Y-84161186D01*
X141853147Y-84162322D01*
X141853143Y-84162324D01*
X141683586Y-84252954D01*
X141683581Y-84252957D01*
X141681462Y-84254090D01*
X141529117Y-84379117D01*
X141527588Y-84380980D01*
X141477866Y-84441566D01*
X141444792Y-84459245D01*
X141408904Y-84448358D01*
X141391225Y-84415284D01*
X141390989Y-84410481D01*
X141390989Y-83844278D01*
X141405341Y-83809630D01*
X141600119Y-83614852D01*
X141634767Y-83600500D01*
X143109748Y-83600500D01*
X143168231Y-83588867D01*
X143193196Y-83572186D01*
X143218405Y-83555341D01*
X143234552Y-83544552D01*
X143278867Y-83478231D01*
X143290500Y-83419748D01*
X143290500Y-81944767D01*
X143304852Y-81910119D01*
X143874119Y-81340852D01*
X143908767Y-81326500D01*
X144240500Y-81326500D01*
X144275148Y-81340852D01*
X144289500Y-81375500D01*
X144289500Y-81545748D01*
X144301133Y-81604231D01*
X144303815Y-81608245D01*
X144316017Y-81626506D01*
X144345448Y-81670552D01*
X144411769Y-81714867D01*
X144470252Y-81726500D01*
X147659748Y-81726500D01*
X147718231Y-81714867D01*
X147784552Y-81670552D01*
X147813983Y-81626506D01*
X147826185Y-81608245D01*
X147828867Y-81604231D01*
X147840500Y-81545748D01*
X147840500Y-81540820D01*
X149389500Y-81540820D01*
X149398233Y-81584722D01*
X149431496Y-81634504D01*
X149481278Y-81667767D01*
X149525180Y-81676500D01*
X150817882Y-81676500D01*
X150852530Y-81690852D01*
X150866882Y-81725500D01*
X150852530Y-81760148D01*
X150806045Y-81806633D01*
X150804296Y-81810066D01*
X150804295Y-81810067D01*
X150788544Y-81840980D01*
X150749168Y-81918260D01*
X150729570Y-82042000D01*
X150749168Y-82165740D01*
X150806045Y-82277367D01*
X150894633Y-82365955D01*
X150898066Y-82367704D01*
X150898067Y-82367705D01*
X150940829Y-82389493D01*
X151006260Y-82422832D01*
X151010065Y-82423435D01*
X151010066Y-82423435D01*
X151126193Y-82441827D01*
X151130000Y-82442430D01*
X151133807Y-82441827D01*
X151249934Y-82423435D01*
X151249935Y-82423435D01*
X151253740Y-82422832D01*
X151319171Y-82389493D01*
X151361933Y-82367705D01*
X151361934Y-82367704D01*
X151365367Y-82365955D01*
X151431502Y-82299820D01*
X154179500Y-82299820D01*
X154188233Y-82343722D01*
X154221496Y-82393504D01*
X154271278Y-82426767D01*
X154315180Y-82435500D01*
X156744820Y-82435500D01*
X156788722Y-82426767D01*
X156838504Y-82393504D01*
X156871767Y-82343722D01*
X156880500Y-82299820D01*
X156880500Y-81651253D01*
X157722000Y-81651253D01*
X157724855Y-81658145D01*
X157731747Y-81661000D01*
X159166253Y-81661000D01*
X159173145Y-81658145D01*
X159176000Y-81651253D01*
X159176000Y-80908747D01*
X159173145Y-80901855D01*
X159166253Y-80899000D01*
X157731747Y-80899000D01*
X157724855Y-80901855D01*
X157722000Y-80908747D01*
X157722000Y-81062270D01*
X157722141Y-81064905D01*
X157728178Y-81121048D01*
X157729574Y-81126961D01*
X157779554Y-81260962D01*
X157778226Y-81261457D01*
X157781702Y-81293807D01*
X157779538Y-81299032D01*
X157779554Y-81299038D01*
X157729574Y-81433039D01*
X157728178Y-81438952D01*
X157722141Y-81495095D01*
X157722000Y-81497730D01*
X157722000Y-81651253D01*
X156880500Y-81651253D01*
X156880500Y-81530180D01*
X156871767Y-81486278D01*
X156838504Y-81436496D01*
X156788722Y-81403233D01*
X156744820Y-81394500D01*
X154315180Y-81394500D01*
X154271278Y-81403233D01*
X154221496Y-81436496D01*
X154188233Y-81486278D01*
X154179500Y-81530180D01*
X154179500Y-82299820D01*
X151431502Y-82299820D01*
X151453955Y-82277367D01*
X151510832Y-82165740D01*
X151530430Y-82042000D01*
X151510832Y-81918260D01*
X151471456Y-81840980D01*
X151455705Y-81810067D01*
X151455704Y-81810066D01*
X151453955Y-81806633D01*
X151407470Y-81760148D01*
X151393118Y-81725500D01*
X151407470Y-81690852D01*
X151442118Y-81676500D01*
X152704820Y-81676500D01*
X152748722Y-81667767D01*
X152798504Y-81634504D01*
X152831767Y-81584722D01*
X152840500Y-81540820D01*
X152840500Y-81029820D01*
X154179500Y-81029820D01*
X154188233Y-81073722D01*
X154221496Y-81123504D01*
X154271278Y-81156767D01*
X154315180Y-81165500D01*
X156744820Y-81165500D01*
X156788722Y-81156767D01*
X156838504Y-81123504D01*
X156871767Y-81073722D01*
X156880500Y-81029820D01*
X156880500Y-80381253D01*
X157722000Y-80381253D01*
X157724855Y-80388145D01*
X157731747Y-80391000D01*
X159166253Y-80391000D01*
X159173145Y-80388145D01*
X159176000Y-80381253D01*
X159176000Y-79638747D01*
X159173145Y-79631855D01*
X159166253Y-79629000D01*
X157731747Y-79629000D01*
X157724855Y-79631855D01*
X157722000Y-79638747D01*
X157722000Y-79792270D01*
X157722141Y-79794905D01*
X157728178Y-79851048D01*
X157729574Y-79856961D01*
X157779554Y-79990962D01*
X157778226Y-79991457D01*
X157781702Y-80023807D01*
X157779538Y-80029032D01*
X157779554Y-80029038D01*
X157729574Y-80163039D01*
X157728178Y-80168952D01*
X157722141Y-80225095D01*
X157722000Y-80227730D01*
X157722000Y-80381253D01*
X156880500Y-80381253D01*
X156880500Y-80260180D01*
X156871767Y-80216278D01*
X156838504Y-80166496D01*
X156788722Y-80133233D01*
X156744820Y-80124500D01*
X154315180Y-80124500D01*
X154271278Y-80133233D01*
X154221496Y-80166496D01*
X154188233Y-80216278D01*
X154179500Y-80260180D01*
X154179500Y-81029820D01*
X152840500Y-81029820D01*
X152840500Y-80511180D01*
X152831767Y-80467278D01*
X152798504Y-80417496D01*
X152748722Y-80384233D01*
X152704820Y-80375500D01*
X149525180Y-80375500D01*
X149481278Y-80384233D01*
X149431496Y-80417496D01*
X149398233Y-80467278D01*
X149389500Y-80511180D01*
X149389500Y-81540820D01*
X147840500Y-81540820D01*
X147840500Y-80506252D01*
X147828867Y-80447769D01*
X147784552Y-80381448D01*
X147718231Y-80337133D01*
X147659748Y-80325500D01*
X144470252Y-80325500D01*
X144411769Y-80337133D01*
X144345448Y-80381448D01*
X144301133Y-80447769D01*
X144289500Y-80506252D01*
X144289500Y-80676500D01*
X144275148Y-80711148D01*
X144240500Y-80725500D01*
X143819892Y-80725500D01*
X143813122Y-80725030D01*
X143810540Y-80724670D01*
X143806235Y-80723227D01*
X143758190Y-80725448D01*
X143755927Y-80725500D01*
X143736156Y-80725500D01*
X143733932Y-80725916D01*
X143733929Y-80725916D01*
X143732629Y-80726159D01*
X143725890Y-80726941D01*
X143698540Y-80728205D01*
X143698537Y-80728206D01*
X143694008Y-80728415D01*
X143679711Y-80734728D01*
X143668921Y-80738069D01*
X143658027Y-80740105D01*
X143658025Y-80740106D01*
X143653567Y-80740939D01*
X143649712Y-80743326D01*
X143649709Y-80743327D01*
X143626437Y-80757737D01*
X143620433Y-80760901D01*
X143591234Y-80773794D01*
X143580185Y-80784843D01*
X143571332Y-80791856D01*
X143558048Y-80800081D01*
X143555315Y-80803700D01*
X143555313Y-80803702D01*
X143538817Y-80825547D01*
X143534362Y-80830666D01*
X142879880Y-81485148D01*
X142845232Y-81499500D01*
X141370252Y-81499500D01*
X141311769Y-81511133D01*
X141307755Y-81513815D01*
X141283264Y-81530180D01*
X141245448Y-81555448D01*
X141201133Y-81621769D01*
X141189500Y-81680252D01*
X141189500Y-83155233D01*
X141175148Y-83189881D01*
X140917527Y-83447502D01*
X140912408Y-83451957D01*
X140910327Y-83453528D01*
X140906261Y-83455553D01*
X140903202Y-83458908D01*
X140903200Y-83458910D01*
X140873858Y-83491097D01*
X140872295Y-83492734D01*
X140858315Y-83506714D01*
X140856291Y-83509669D01*
X140852076Y-83514991D01*
X140830573Y-83538578D01*
X140828934Y-83542808D01*
X140828933Y-83542810D01*
X140824925Y-83553156D01*
X140819663Y-83563139D01*
X140810833Y-83576030D01*
X140809793Y-83580450D01*
X140809792Y-83580453D01*
X140803526Y-83607094D01*
X140801521Y-83613569D01*
X140789989Y-83643338D01*
X140789989Y-83658965D01*
X140788687Y-83670184D01*
X140785110Y-83685392D01*
X140785738Y-83689892D01*
X140789519Y-83716998D01*
X140789989Y-83723768D01*
X140789989Y-84143393D01*
X140775637Y-84178041D01*
X140740989Y-84192393D01*
X140704939Y-84176580D01*
X140624276Y-84088957D01*
X140621301Y-84086218D01*
X140446901Y-83950478D01*
X140443516Y-83948266D01*
X140249153Y-83843082D01*
X140245458Y-83841461D01*
X140036428Y-83769701D01*
X140032516Y-83768710D01*
X139963612Y-83757212D01*
X139956346Y-83758893D01*
X139954000Y-83762651D01*
X139954000Y-87366253D01*
X139956855Y-87373145D01*
X139963747Y-87376000D01*
X141026797Y-87376000D01*
X141033689Y-87373145D01*
X141035012Y-87369951D01*
X140989317Y-87189502D01*
X140988011Y-87185698D01*
X140899230Y-86983299D01*
X140897313Y-86979756D01*
X140776432Y-86794735D01*
X140773956Y-86791554D01*
X140624270Y-86628951D01*
X140621301Y-86626218D01*
X140446901Y-86490478D01*
X140443516Y-86488266D01*
X140286132Y-86403094D01*
X140262490Y-86373981D01*
X140266359Y-86336679D01*
X140286132Y-86316906D01*
X140443516Y-86231734D01*
X140446901Y-86229522D01*
X140621301Y-86093782D01*
X140624270Y-86091049D01*
X140773957Y-85928445D01*
X140776433Y-85925263D01*
X140841511Y-85825654D01*
X140872476Y-85804497D01*
X140909332Y-85811433D01*
X140917180Y-85817806D01*
X141752825Y-86653451D01*
X141757280Y-86658570D01*
X141758851Y-86660651D01*
X141760876Y-86664717D01*
X141764231Y-86667776D01*
X141764233Y-86667778D01*
X141769726Y-86672785D01*
X141785663Y-86706733D01*
X141772926Y-86742007D01*
X141759814Y-86752210D01*
X141681462Y-86794090D01*
X141529117Y-86919117D01*
X141404090Y-87071462D01*
X141402957Y-87073581D01*
X141402954Y-87073586D01*
X141312324Y-87243143D01*
X141312322Y-87243147D01*
X141311186Y-87245273D01*
X141310487Y-87247577D01*
X141310485Y-87247582D01*
X141257929Y-87420838D01*
X141253976Y-87433868D01*
X141253741Y-87436256D01*
X141253740Y-87436260D01*
X141244508Y-87529997D01*
X141234659Y-87630000D01*
X141234895Y-87632396D01*
X141250566Y-87791507D01*
X141253976Y-87826132D01*
X141254674Y-87828433D01*
X141310485Y-88012418D01*
X141310487Y-88012423D01*
X141311186Y-88014727D01*
X141312322Y-88016853D01*
X141312324Y-88016857D01*
X141402954Y-88186414D01*
X141402957Y-88186419D01*
X141404090Y-88188538D01*
X141529117Y-88340883D01*
X141681462Y-88465910D01*
X141683581Y-88467043D01*
X141683586Y-88467046D01*
X141853143Y-88557676D01*
X141853147Y-88557678D01*
X141855273Y-88558814D01*
X141857577Y-88559513D01*
X141857582Y-88559515D01*
X142030705Y-88612031D01*
X142043868Y-88616024D01*
X142046256Y-88616259D01*
X142046260Y-88616260D01*
X142237604Y-88635105D01*
X142240000Y-88635341D01*
X142242396Y-88635105D01*
X142433740Y-88616260D01*
X142433744Y-88616259D01*
X142436132Y-88616024D01*
X142624727Y-88558814D01*
X142716382Y-88509823D01*
X142753705Y-88506147D01*
X142774129Y-88518389D01*
X144218592Y-89962852D01*
X144232944Y-89997500D01*
X144218592Y-90032148D01*
X144183944Y-90046500D01*
X144046000Y-90046500D01*
X144011352Y-90032148D01*
X142893426Y-88914222D01*
X142887332Y-88906797D01*
X142878714Y-88893899D01*
X142876034Y-88889888D01*
X142802234Y-88840577D01*
X142797187Y-88837204D01*
X142797185Y-88837203D01*
X142793174Y-88834523D01*
X142788440Y-88833581D01*
X142788439Y-88833581D01*
X142700169Y-88816023D01*
X142695433Y-88815081D01*
X142675493Y-88819047D01*
X142665936Y-88819989D01*
X141464013Y-88819989D01*
X141454453Y-88819047D01*
X141434511Y-88815080D01*
X141429776Y-88816022D01*
X141341504Y-88833581D01*
X141341502Y-88833582D01*
X141336771Y-88834523D01*
X141253910Y-88889888D01*
X141249492Y-88896500D01*
X141242614Y-88906794D01*
X141236520Y-88914219D01*
X141033010Y-89117730D01*
X140831747Y-89318993D01*
X140797099Y-89333345D01*
X140761048Y-89317532D01*
X140624270Y-89168951D01*
X140621301Y-89166218D01*
X140446901Y-89030478D01*
X140443516Y-89028266D01*
X140286132Y-88943094D01*
X140262490Y-88913981D01*
X140266359Y-88876679D01*
X140286132Y-88856906D01*
X140443516Y-88771734D01*
X140446901Y-88769522D01*
X140621301Y-88633782D01*
X140624270Y-88631049D01*
X140773956Y-88468446D01*
X140776432Y-88465265D01*
X140897313Y-88280244D01*
X140899230Y-88276701D01*
X140988011Y-88074302D01*
X140989317Y-88070498D01*
X141034152Y-87893447D01*
X141033076Y-87886067D01*
X141030305Y-87884000D01*
X139963747Y-87884000D01*
X139956855Y-87886855D01*
X139954000Y-87893747D01*
X139954000Y-97526253D01*
X139956855Y-97533145D01*
X139963747Y-97536000D01*
X141026797Y-97536000D01*
X141033689Y-97533145D01*
X141035012Y-97529951D01*
X140989317Y-97349502D01*
X140988011Y-97345698D01*
X140899230Y-97143299D01*
X140897313Y-97139756D01*
X140776432Y-96954735D01*
X140773956Y-96951554D01*
X140624270Y-96788951D01*
X140621301Y-96786218D01*
X140446901Y-96650478D01*
X140443516Y-96648266D01*
X140286132Y-96563094D01*
X140262490Y-96533981D01*
X140266359Y-96496679D01*
X140286132Y-96476906D01*
X140443516Y-96391734D01*
X140446901Y-96389522D01*
X140621301Y-96253782D01*
X140624275Y-96251044D01*
X140634449Y-96239992D01*
X140668474Y-96224220D01*
X140703686Y-96237127D01*
X140719500Y-96273178D01*
X140719500Y-96490503D01*
X140718558Y-96500060D01*
X140714592Y-96520000D01*
X140734034Y-96617741D01*
X140746180Y-96635918D01*
X140789399Y-96700601D01*
X140793410Y-96703281D01*
X140806308Y-96711899D01*
X140813733Y-96717993D01*
X141351611Y-97255871D01*
X141365963Y-97290519D01*
X141360177Y-97313617D01*
X141352104Y-97328722D01*
X141312325Y-97403143D01*
X141311186Y-97405273D01*
X141253976Y-97593868D01*
X141234659Y-97790000D01*
X141253976Y-97986132D01*
X141311186Y-98174727D01*
X141312318Y-98176846D01*
X141312319Y-98176847D01*
X141360177Y-98266382D01*
X141363853Y-98303705D01*
X141351611Y-98324129D01*
X140813733Y-98862007D01*
X140806308Y-98868101D01*
X140789399Y-98879399D01*
X140754525Y-98931592D01*
X140734034Y-98962259D01*
X140714592Y-99060000D01*
X140715534Y-99064735D01*
X140718558Y-99079937D01*
X140719500Y-99089497D01*
X140719500Y-99306822D01*
X140705148Y-99341470D01*
X140670500Y-99355822D01*
X140634449Y-99340008D01*
X140624275Y-99328956D01*
X140621301Y-99326218D01*
X140446901Y-99190478D01*
X140443516Y-99188266D01*
X140286132Y-99103094D01*
X140262490Y-99073981D01*
X140266359Y-99036679D01*
X140286132Y-99016906D01*
X140443516Y-98931734D01*
X140446901Y-98929522D01*
X140621301Y-98793782D01*
X140624270Y-98791049D01*
X140773956Y-98628446D01*
X140776432Y-98625265D01*
X140897313Y-98440244D01*
X140899230Y-98436701D01*
X140988011Y-98234302D01*
X140989317Y-98230498D01*
X141034152Y-98053447D01*
X141033076Y-98046067D01*
X141030305Y-98044000D01*
X139963747Y-98044000D01*
X139956855Y-98046855D01*
X139954000Y-98053747D01*
X139954000Y-102606253D01*
X139956855Y-102613145D01*
X139963747Y-102616000D01*
X141026797Y-102616000D01*
X141033689Y-102613145D01*
X141035012Y-102609951D01*
X140989317Y-102429502D01*
X140988011Y-102425698D01*
X140899230Y-102223299D01*
X140897313Y-102219756D01*
X140776432Y-102034735D01*
X140773956Y-102031554D01*
X140624270Y-101868951D01*
X140621301Y-101866218D01*
X140446901Y-101730478D01*
X140443516Y-101728266D01*
X140286132Y-101643094D01*
X140262490Y-101613981D01*
X140266359Y-101576679D01*
X140286132Y-101556906D01*
X140443516Y-101471734D01*
X140446901Y-101469522D01*
X140621301Y-101333782D01*
X140624270Y-101331049D01*
X140761048Y-101182468D01*
X140795074Y-101166697D01*
X140831747Y-101181007D01*
X141407008Y-101756269D01*
X141413102Y-101763694D01*
X141424399Y-101780601D01*
X141445316Y-101794577D01*
X141445317Y-101794578D01*
X141507260Y-101835966D01*
X141605000Y-101855409D01*
X141624943Y-101851442D01*
X141634502Y-101850500D01*
X141829316Y-101850500D01*
X141863964Y-101864852D01*
X141878316Y-101899500D01*
X141863964Y-101934148D01*
X141852414Y-101942714D01*
X141683586Y-102032954D01*
X141683581Y-102032957D01*
X141681462Y-102034090D01*
X141529117Y-102159117D01*
X141404090Y-102311462D01*
X141402957Y-102313581D01*
X141402954Y-102313586D01*
X141312324Y-102483143D01*
X141312322Y-102483147D01*
X141311186Y-102485273D01*
X141310487Y-102487577D01*
X141310485Y-102487582D01*
X141271530Y-102616000D01*
X141253976Y-102673868D01*
X141234659Y-102870000D01*
X141253976Y-103066132D01*
X141254674Y-103068433D01*
X141310485Y-103252418D01*
X141310487Y-103252423D01*
X141311186Y-103254727D01*
X141312322Y-103256853D01*
X141312324Y-103256857D01*
X141402954Y-103426414D01*
X141402957Y-103426419D01*
X141404090Y-103428538D01*
X141529117Y-103580883D01*
X141681462Y-103705910D01*
X141683581Y-103707043D01*
X141683586Y-103707046D01*
X141853143Y-103797676D01*
X141853147Y-103797678D01*
X141855273Y-103798814D01*
X141857577Y-103799513D01*
X141857582Y-103799515D01*
X142041567Y-103855326D01*
X142043868Y-103856024D01*
X142046256Y-103856259D01*
X142046260Y-103856260D01*
X142237604Y-103875105D01*
X142240000Y-103875341D01*
X142242396Y-103875105D01*
X142433740Y-103856260D01*
X142433744Y-103856259D01*
X142436132Y-103856024D01*
X142438433Y-103855326D01*
X142622418Y-103799515D01*
X142622423Y-103799513D01*
X142624727Y-103798814D01*
X142626853Y-103797678D01*
X142626857Y-103797676D01*
X142796414Y-103707046D01*
X142796419Y-103707043D01*
X142798538Y-103705910D01*
X142950883Y-103580883D01*
X143075910Y-103428538D01*
X143077043Y-103426419D01*
X143077046Y-103426414D01*
X143167676Y-103256857D01*
X143167678Y-103256853D01*
X143168814Y-103254727D01*
X143169513Y-103252423D01*
X143169515Y-103252418D01*
X143225326Y-103068433D01*
X143226024Y-103066132D01*
X143245341Y-102870000D01*
X143226024Y-102673868D01*
X143198982Y-102584724D01*
X143177615Y-102514285D01*
X143181291Y-102476963D01*
X143210281Y-102453171D01*
X143247603Y-102456847D01*
X143259152Y-102465413D01*
X146360009Y-105566270D01*
X146366103Y-105573695D01*
X146377399Y-105590601D01*
X146398316Y-105604577D01*
X146398317Y-105604578D01*
X146460260Y-105645966D01*
X146558000Y-105665409D01*
X146577943Y-105661442D01*
X146587502Y-105660500D01*
X147584127Y-105660500D01*
X147618775Y-105674852D01*
X147631017Y-105695276D01*
X147660485Y-105792417D01*
X147660486Y-105792419D01*
X147661186Y-105794727D01*
X147662322Y-105796853D01*
X147662324Y-105796857D01*
X147752954Y-105966414D01*
X147752957Y-105966419D01*
X147754090Y-105968538D01*
X147755619Y-105970401D01*
X147825151Y-106055125D01*
X147879117Y-106120883D01*
X148031462Y-106245910D01*
X148033581Y-106247043D01*
X148033586Y-106247046D01*
X148203143Y-106337676D01*
X148203147Y-106337678D01*
X148205273Y-106338814D01*
X148207577Y-106339513D01*
X148207582Y-106339515D01*
X148391567Y-106395326D01*
X148393868Y-106396024D01*
X148396256Y-106396259D01*
X148396260Y-106396260D01*
X148587604Y-106415105D01*
X148590000Y-106415341D01*
X148592396Y-106415105D01*
X148783740Y-106396260D01*
X148783744Y-106396259D01*
X148786132Y-106396024D01*
X148788433Y-106395326D01*
X148972418Y-106339515D01*
X148972423Y-106339513D01*
X148974727Y-106338814D01*
X148976853Y-106337678D01*
X148976857Y-106337676D01*
X149146414Y-106247046D01*
X149146419Y-106247043D01*
X149148538Y-106245910D01*
X149300883Y-106120883D01*
X149354850Y-106055125D01*
X149424381Y-105970401D01*
X149425910Y-105968538D01*
X149427043Y-105966419D01*
X149427046Y-105966414D01*
X149517676Y-105796857D01*
X149517678Y-105796853D01*
X149518814Y-105794727D01*
X149519514Y-105792419D01*
X149519515Y-105792417D01*
X149548983Y-105695276D01*
X149572775Y-105666286D01*
X149595873Y-105660500D01*
X154130500Y-105660500D01*
X154165148Y-105674852D01*
X154179500Y-105709500D01*
X154179500Y-105794820D01*
X154188233Y-105838722D01*
X154221496Y-105888504D01*
X154271278Y-105921767D01*
X154315180Y-105930500D01*
X156744820Y-105930500D01*
X156788722Y-105921767D01*
X156838504Y-105888504D01*
X156871767Y-105838722D01*
X156880500Y-105794820D01*
X156880500Y-105025180D01*
X156871767Y-104981278D01*
X156838504Y-104931496D01*
X156788722Y-104898233D01*
X156744820Y-104889500D01*
X154315180Y-104889500D01*
X154271278Y-104898233D01*
X154221496Y-104931496D01*
X154188233Y-104981278D01*
X154179500Y-105025180D01*
X154179500Y-105110500D01*
X154165148Y-105145148D01*
X154130500Y-105159500D01*
X149595873Y-105159500D01*
X149561225Y-105145148D01*
X149548983Y-105124724D01*
X149519515Y-105027583D01*
X149519514Y-105027581D01*
X149518814Y-105025273D01*
X149517678Y-105023147D01*
X149517676Y-105023143D01*
X149427046Y-104853586D01*
X149427043Y-104853581D01*
X149425910Y-104851462D01*
X149300883Y-104699117D01*
X149148538Y-104574090D01*
X149146419Y-104572957D01*
X149146414Y-104572954D01*
X148976857Y-104482324D01*
X148976853Y-104482322D01*
X148974727Y-104481186D01*
X148972423Y-104480487D01*
X148972418Y-104480485D01*
X148788433Y-104424674D01*
X148786132Y-104423976D01*
X148783744Y-104423741D01*
X148783740Y-104423740D01*
X148592396Y-104404895D01*
X148590000Y-104404659D01*
X148587604Y-104404895D01*
X148396260Y-104423740D01*
X148396256Y-104423741D01*
X148393868Y-104423976D01*
X148391567Y-104424674D01*
X148207582Y-104480485D01*
X148207577Y-104480487D01*
X148205273Y-104481186D01*
X148203147Y-104482322D01*
X148203143Y-104482324D01*
X148033586Y-104572954D01*
X148033581Y-104572957D01*
X148031462Y-104574090D01*
X147879117Y-104699117D01*
X147754090Y-104851462D01*
X147752957Y-104853581D01*
X147752954Y-104853586D01*
X147662324Y-105023143D01*
X147662322Y-105023147D01*
X147661186Y-105025273D01*
X147660486Y-105027581D01*
X147660485Y-105027583D01*
X147631017Y-105124724D01*
X147607225Y-105153714D01*
X147584127Y-105159500D01*
X146682057Y-105159500D01*
X146647409Y-105145148D01*
X145642261Y-104140000D01*
X152146819Y-104140000D01*
X152165426Y-104257482D01*
X152167176Y-104260916D01*
X152204211Y-104333601D01*
X152219427Y-104363465D01*
X152303535Y-104447573D01*
X152306968Y-104449322D01*
X152306969Y-104449323D01*
X152356526Y-104474573D01*
X152409518Y-104501574D01*
X152413323Y-104502177D01*
X152413324Y-104502177D01*
X152523193Y-104519578D01*
X152527000Y-104520181D01*
X152530807Y-104519578D01*
X152640676Y-104502177D01*
X152640677Y-104502177D01*
X152644482Y-104501574D01*
X152697474Y-104474573D01*
X152747031Y-104449323D01*
X152747032Y-104449322D01*
X152750465Y-104447573D01*
X152793186Y-104404852D01*
X152827834Y-104390500D01*
X154130500Y-104390500D01*
X154165148Y-104404852D01*
X154179500Y-104439500D01*
X154179500Y-104524820D01*
X154188233Y-104568722D01*
X154221496Y-104618504D01*
X154271278Y-104651767D01*
X154315180Y-104660500D01*
X156744820Y-104660500D01*
X156788722Y-104651767D01*
X156838504Y-104618504D01*
X156871767Y-104568722D01*
X156880500Y-104524820D01*
X156880500Y-103755180D01*
X156871767Y-103711278D01*
X156838504Y-103661496D01*
X156788722Y-103628233D01*
X156744820Y-103619500D01*
X154315180Y-103619500D01*
X154271278Y-103628233D01*
X154221496Y-103661496D01*
X154188233Y-103711278D01*
X154179500Y-103755180D01*
X154179500Y-103840500D01*
X154165148Y-103875148D01*
X154130500Y-103889500D01*
X152827834Y-103889500D01*
X152793186Y-103875148D01*
X152750465Y-103832427D01*
X152747032Y-103830678D01*
X152747031Y-103830677D01*
X152697473Y-103805426D01*
X152644482Y-103778426D01*
X152640677Y-103777823D01*
X152640676Y-103777823D01*
X152530807Y-103760422D01*
X152527000Y-103759819D01*
X152523193Y-103760422D01*
X152413324Y-103777823D01*
X152413323Y-103777823D01*
X152409518Y-103778426D01*
X152356527Y-103805426D01*
X152306969Y-103830677D01*
X152306968Y-103830678D01*
X152303535Y-103832427D01*
X152219427Y-103916535D01*
X152165426Y-104022518D01*
X152164823Y-104026323D01*
X152164823Y-104026324D01*
X152161134Y-104049614D01*
X152146819Y-104140000D01*
X145642261Y-104140000D01*
X144704063Y-103201802D01*
X144689711Y-103167155D01*
X144704063Y-103132507D01*
X144738711Y-103118155D01*
X144748267Y-103119096D01*
X144755326Y-103120500D01*
X144755327Y-103120500D01*
X144780000Y-103125408D01*
X144799938Y-103121442D01*
X144809497Y-103120500D01*
X147584127Y-103120500D01*
X147618775Y-103134852D01*
X147631017Y-103155276D01*
X147660485Y-103252417D01*
X147660486Y-103252419D01*
X147661186Y-103254727D01*
X147662322Y-103256853D01*
X147662324Y-103256857D01*
X147752954Y-103426414D01*
X147752957Y-103426419D01*
X147754090Y-103428538D01*
X147879117Y-103580883D01*
X148031462Y-103705910D01*
X148033581Y-103707043D01*
X148033586Y-103707046D01*
X148203143Y-103797676D01*
X148203147Y-103797678D01*
X148205273Y-103798814D01*
X148207577Y-103799513D01*
X148207582Y-103799515D01*
X148391567Y-103855326D01*
X148393868Y-103856024D01*
X148396256Y-103856259D01*
X148396260Y-103856260D01*
X148587604Y-103875105D01*
X148590000Y-103875341D01*
X148592396Y-103875105D01*
X148783740Y-103856260D01*
X148783744Y-103856259D01*
X148786132Y-103856024D01*
X148788433Y-103855326D01*
X148972418Y-103799515D01*
X148972423Y-103799513D01*
X148974727Y-103798814D01*
X148976853Y-103797678D01*
X148976857Y-103797676D01*
X149146414Y-103707046D01*
X149146419Y-103707043D01*
X149148538Y-103705910D01*
X149300883Y-103580883D01*
X149425910Y-103428538D01*
X149427043Y-103426419D01*
X149427046Y-103426414D01*
X149517676Y-103256857D01*
X149517678Y-103256853D01*
X149518814Y-103254727D01*
X149519514Y-103252419D01*
X149519515Y-103252417D01*
X149548983Y-103155276D01*
X149572775Y-103126286D01*
X149595873Y-103120500D01*
X153369166Y-103120500D01*
X153403814Y-103134852D01*
X153446535Y-103177573D01*
X153449968Y-103179322D01*
X153449969Y-103179323D01*
X153494089Y-103201803D01*
X153552518Y-103231574D01*
X153556323Y-103232177D01*
X153556324Y-103232177D01*
X153666193Y-103249578D01*
X153670000Y-103250181D01*
X153673807Y-103249578D01*
X153783676Y-103232177D01*
X153783677Y-103232177D01*
X153787482Y-103231574D01*
X153845911Y-103201803D01*
X153890031Y-103179323D01*
X153890032Y-103179322D01*
X153893465Y-103177573D01*
X153936186Y-103134852D01*
X153970834Y-103120500D01*
X154130500Y-103120500D01*
X154165148Y-103134852D01*
X154179500Y-103169500D01*
X154179500Y-103254820D01*
X154188233Y-103298722D01*
X154221496Y-103348504D01*
X154271278Y-103381767D01*
X154315180Y-103390500D01*
X156744820Y-103390500D01*
X156788722Y-103381767D01*
X156838504Y-103348504D01*
X156871767Y-103298722D01*
X156880500Y-103254820D01*
X156880500Y-102485180D01*
X156871767Y-102441278D01*
X156838504Y-102391496D01*
X156788722Y-102358233D01*
X156744820Y-102349500D01*
X154315180Y-102349500D01*
X154271278Y-102358233D01*
X154221496Y-102391496D01*
X154188233Y-102441278D01*
X154179500Y-102485180D01*
X154179500Y-102570500D01*
X154165148Y-102605148D01*
X154130500Y-102619500D01*
X153970834Y-102619500D01*
X153936186Y-102605148D01*
X153893465Y-102562427D01*
X153890032Y-102560678D01*
X153890031Y-102560677D01*
X153840474Y-102535427D01*
X153787482Y-102508426D01*
X153783677Y-102507823D01*
X153783676Y-102507823D01*
X153673807Y-102490422D01*
X153670000Y-102489819D01*
X153666193Y-102490422D01*
X153556324Y-102507823D01*
X153556323Y-102507823D01*
X153552518Y-102508426D01*
X153499526Y-102535427D01*
X153449969Y-102560677D01*
X153449968Y-102560678D01*
X153446535Y-102562427D01*
X153403814Y-102605148D01*
X153369166Y-102619500D01*
X149595873Y-102619500D01*
X149561225Y-102605148D01*
X149548983Y-102584724D01*
X149519515Y-102487583D01*
X149519514Y-102487581D01*
X149518814Y-102485273D01*
X149517678Y-102483147D01*
X149517676Y-102483143D01*
X149427046Y-102313586D01*
X149427043Y-102313581D01*
X149425910Y-102311462D01*
X149300883Y-102159117D01*
X149148538Y-102034090D01*
X149146419Y-102032957D01*
X149146414Y-102032954D01*
X148976857Y-101942324D01*
X148976853Y-101942322D01*
X148974727Y-101941186D01*
X148972423Y-101940487D01*
X148972418Y-101940485D01*
X148788433Y-101884674D01*
X148786132Y-101883976D01*
X148783744Y-101883741D01*
X148783740Y-101883740D01*
X148592396Y-101864895D01*
X148590000Y-101864659D01*
X148587604Y-101864895D01*
X148396260Y-101883740D01*
X148396256Y-101883741D01*
X148393868Y-101883976D01*
X148391567Y-101884674D01*
X148207582Y-101940485D01*
X148207577Y-101940487D01*
X148205273Y-101941186D01*
X148203147Y-101942322D01*
X148203143Y-101942324D01*
X148033586Y-102032954D01*
X148033581Y-102032957D01*
X148031462Y-102034090D01*
X147879117Y-102159117D01*
X147754090Y-102311462D01*
X147752957Y-102313581D01*
X147752954Y-102313586D01*
X147662324Y-102483143D01*
X147662322Y-102483147D01*
X147661186Y-102485273D01*
X147660486Y-102487581D01*
X147660485Y-102487583D01*
X147631017Y-102584724D01*
X147607225Y-102613714D01*
X147584127Y-102619500D01*
X144904056Y-102619500D01*
X144869408Y-102605148D01*
X143128389Y-100864129D01*
X143114037Y-100829481D01*
X143119823Y-100806382D01*
X143167681Y-100716847D01*
X143167682Y-100716846D01*
X143168814Y-100714727D01*
X143226024Y-100526132D01*
X143245341Y-100330000D01*
X147584659Y-100330000D01*
X147603976Y-100526132D01*
X147604674Y-100528433D01*
X147660485Y-100712418D01*
X147660487Y-100712423D01*
X147661186Y-100714727D01*
X147662322Y-100716853D01*
X147662324Y-100716857D01*
X147752954Y-100886414D01*
X147752957Y-100886419D01*
X147754090Y-100888538D01*
X147879117Y-101040883D01*
X148031462Y-101165910D01*
X148033581Y-101167043D01*
X148033586Y-101167046D01*
X148203143Y-101257676D01*
X148203147Y-101257678D01*
X148205273Y-101258814D01*
X148207577Y-101259513D01*
X148207582Y-101259515D01*
X148350426Y-101302846D01*
X148393868Y-101316024D01*
X148396256Y-101316259D01*
X148396260Y-101316260D01*
X148587604Y-101335105D01*
X148590000Y-101335341D01*
X148592396Y-101335105D01*
X148783740Y-101316260D01*
X148783744Y-101316259D01*
X148786132Y-101316024D01*
X148829574Y-101302846D01*
X148972418Y-101259515D01*
X148972423Y-101259513D01*
X148974727Y-101258814D01*
X148976853Y-101257678D01*
X148976857Y-101257676D01*
X149146414Y-101167046D01*
X149146419Y-101167043D01*
X149148538Y-101165910D01*
X149300883Y-101040883D01*
X149425910Y-100888538D01*
X149427043Y-100886419D01*
X149427046Y-100886414D01*
X149517676Y-100716857D01*
X149517678Y-100716853D01*
X149518814Y-100714727D01*
X149519513Y-100712423D01*
X149519515Y-100712418D01*
X149575326Y-100528433D01*
X149576024Y-100526132D01*
X149595341Y-100330000D01*
X149576024Y-100133868D01*
X149562853Y-100090448D01*
X149519515Y-99947582D01*
X149519513Y-99947577D01*
X149518814Y-99945273D01*
X149517678Y-99943147D01*
X149517676Y-99943143D01*
X149427046Y-99773586D01*
X149427043Y-99773581D01*
X149425910Y-99771462D01*
X149300883Y-99619117D01*
X149148538Y-99494090D01*
X149146419Y-99492957D01*
X149146414Y-99492954D01*
X148976857Y-99402324D01*
X148976853Y-99402322D01*
X148974727Y-99401186D01*
X148972423Y-99400487D01*
X148972418Y-99400485D01*
X148788433Y-99344674D01*
X148786132Y-99343976D01*
X148783744Y-99343741D01*
X148783740Y-99343740D01*
X148592396Y-99324895D01*
X148590000Y-99324659D01*
X148587604Y-99324895D01*
X148396260Y-99343740D01*
X148396256Y-99343741D01*
X148393868Y-99343976D01*
X148391567Y-99344674D01*
X148207582Y-99400485D01*
X148207577Y-99400487D01*
X148205273Y-99401186D01*
X148203147Y-99402322D01*
X148203143Y-99402324D01*
X148033586Y-99492954D01*
X148033581Y-99492957D01*
X148031462Y-99494090D01*
X147879117Y-99619117D01*
X147754090Y-99771462D01*
X147752957Y-99773581D01*
X147752954Y-99773586D01*
X147662324Y-99943143D01*
X147662322Y-99943147D01*
X147661186Y-99945273D01*
X147660487Y-99947577D01*
X147660485Y-99947582D01*
X147617147Y-100090448D01*
X147603976Y-100133868D01*
X147584659Y-100330000D01*
X143245341Y-100330000D01*
X143226024Y-100133868D01*
X143212853Y-100090448D01*
X143169515Y-99947582D01*
X143169513Y-99947577D01*
X143168814Y-99945273D01*
X143167678Y-99943147D01*
X143167676Y-99943143D01*
X143077046Y-99773586D01*
X143077043Y-99773581D01*
X143075910Y-99771462D01*
X142950883Y-99619117D01*
X142798538Y-99494090D01*
X142796419Y-99492957D01*
X142796414Y-99492954D01*
X142626857Y-99402324D01*
X142626853Y-99402322D01*
X142624727Y-99401186D01*
X142622423Y-99400487D01*
X142622418Y-99400485D01*
X142438433Y-99344674D01*
X142436132Y-99343976D01*
X142433744Y-99343741D01*
X142433740Y-99343740D01*
X142242396Y-99324895D01*
X142240000Y-99324659D01*
X142237604Y-99324895D01*
X142046260Y-99343740D01*
X142046256Y-99343741D01*
X142043868Y-99343976D01*
X142041567Y-99344674D01*
X141857582Y-99400485D01*
X141857577Y-99400487D01*
X141855273Y-99401186D01*
X141853147Y-99402322D01*
X141853143Y-99402324D01*
X141683586Y-99492954D01*
X141683581Y-99492957D01*
X141681462Y-99494090D01*
X141529117Y-99619117D01*
X141404090Y-99771462D01*
X141402957Y-99773581D01*
X141402954Y-99773586D01*
X141312714Y-99942414D01*
X141283724Y-99966206D01*
X141246402Y-99962530D01*
X141222610Y-99933540D01*
X141220500Y-99919316D01*
X141220500Y-99184056D01*
X141234852Y-99149408D01*
X141705871Y-98678389D01*
X141740519Y-98664037D01*
X141763617Y-98669823D01*
X141855273Y-98718814D01*
X142043868Y-98776024D01*
X142046256Y-98776259D01*
X142046260Y-98776260D01*
X142237604Y-98795105D01*
X142240000Y-98795341D01*
X142242396Y-98795105D01*
X142433740Y-98776260D01*
X142433744Y-98776259D01*
X142436132Y-98776024D01*
X142438433Y-98775326D01*
X142622418Y-98719515D01*
X142622423Y-98719513D01*
X142624727Y-98718814D01*
X142626853Y-98717678D01*
X142626857Y-98717676D01*
X142796414Y-98627046D01*
X142796419Y-98627043D01*
X142798538Y-98625910D01*
X142950883Y-98500883D01*
X143075910Y-98348538D01*
X143077043Y-98346419D01*
X143077046Y-98346414D01*
X143167676Y-98176857D01*
X143167678Y-98176853D01*
X143168814Y-98174727D01*
X143169513Y-98172423D01*
X143169515Y-98172418D01*
X143206635Y-98050049D01*
X147254988Y-98050049D01*
X147300683Y-98230498D01*
X147301989Y-98234302D01*
X147390770Y-98436701D01*
X147392687Y-98440244D01*
X147513568Y-98625265D01*
X147516044Y-98628446D01*
X147665730Y-98791049D01*
X147668699Y-98793782D01*
X147843099Y-98929522D01*
X147846484Y-98931734D01*
X148040847Y-99036918D01*
X148044542Y-99038539D01*
X148253572Y-99110299D01*
X148257484Y-99111290D01*
X148326388Y-99122788D01*
X148333654Y-99121107D01*
X148336000Y-99117349D01*
X148336000Y-99114645D01*
X148844000Y-99114645D01*
X148846855Y-99121537D01*
X148850948Y-99123233D01*
X148922516Y-99111290D01*
X148926428Y-99110299D01*
X149135458Y-99038539D01*
X149139153Y-99036918D01*
X149333516Y-98931734D01*
X149336901Y-98929522D01*
X149511301Y-98793782D01*
X149514270Y-98791049D01*
X149663956Y-98628446D01*
X149666432Y-98625265D01*
X149787313Y-98440244D01*
X149789230Y-98436701D01*
X149878011Y-98234302D01*
X149879317Y-98230498D01*
X149924152Y-98053447D01*
X149923076Y-98046067D01*
X149920305Y-98044000D01*
X148853747Y-98044000D01*
X148846855Y-98046855D01*
X148844000Y-98053747D01*
X148844000Y-99114645D01*
X148336000Y-99114645D01*
X148336000Y-98053747D01*
X148333145Y-98046855D01*
X148326253Y-98044000D01*
X147263203Y-98044000D01*
X147256311Y-98046855D01*
X147254988Y-98050049D01*
X143206635Y-98050049D01*
X143225326Y-97988433D01*
X143226024Y-97986132D01*
X143245341Y-97790000D01*
X143226024Y-97593868D01*
X143205513Y-97526253D01*
X143169515Y-97407582D01*
X143169512Y-97407574D01*
X143168814Y-97405273D01*
X143167678Y-97403147D01*
X143167676Y-97403143D01*
X143077046Y-97233586D01*
X143077043Y-97233581D01*
X143075910Y-97231462D01*
X142950883Y-97079117D01*
X142798538Y-96954090D01*
X142796419Y-96952957D01*
X142796414Y-96952954D01*
X142626857Y-96862324D01*
X142626853Y-96862322D01*
X142624727Y-96861186D01*
X142622423Y-96860487D01*
X142622418Y-96860485D01*
X142438433Y-96804674D01*
X142436132Y-96803976D01*
X142433744Y-96803741D01*
X142433740Y-96803740D01*
X142242396Y-96784895D01*
X142240000Y-96784659D01*
X142237604Y-96784895D01*
X142046260Y-96803740D01*
X142046256Y-96803741D01*
X142043868Y-96803976D01*
X141855273Y-96861186D01*
X141779644Y-96901611D01*
X141763618Y-96910177D01*
X141726295Y-96913853D01*
X141705871Y-96901611D01*
X141234852Y-96430592D01*
X141220500Y-96395944D01*
X141220500Y-95660684D01*
X141234852Y-95626036D01*
X141269500Y-95611684D01*
X141304148Y-95626036D01*
X141312714Y-95637586D01*
X141402954Y-95806414D01*
X141402957Y-95806419D01*
X141404090Y-95808538D01*
X141529117Y-95960883D01*
X141681462Y-96085910D01*
X141683581Y-96087043D01*
X141683586Y-96087046D01*
X141853143Y-96177676D01*
X141853147Y-96177678D01*
X141855273Y-96178814D01*
X141857577Y-96179513D01*
X141857582Y-96179515D01*
X142041567Y-96235326D01*
X142043868Y-96236024D01*
X142046256Y-96236259D01*
X142046260Y-96236260D01*
X142237604Y-96255105D01*
X142240000Y-96255341D01*
X142242396Y-96255105D01*
X142433740Y-96236260D01*
X142433744Y-96236259D01*
X142436132Y-96236024D01*
X142438433Y-96235326D01*
X142622418Y-96179515D01*
X142622423Y-96179513D01*
X142624727Y-96178814D01*
X142626853Y-96177678D01*
X142626857Y-96177676D01*
X142796414Y-96087046D01*
X142796419Y-96087043D01*
X142798538Y-96085910D01*
X142950883Y-95960883D01*
X143075910Y-95808538D01*
X143077043Y-95806419D01*
X143077046Y-95806414D01*
X143167676Y-95636857D01*
X143167678Y-95636853D01*
X143168814Y-95634727D01*
X143169513Y-95632423D01*
X143169515Y-95632418D01*
X143225326Y-95448433D01*
X143226024Y-95446132D01*
X143229951Y-95406267D01*
X143245105Y-95252396D01*
X143245341Y-95250000D01*
X143226024Y-95053868D01*
X143209532Y-94999500D01*
X143169515Y-94867582D01*
X143169513Y-94867577D01*
X143168814Y-94865273D01*
X143167678Y-94863147D01*
X143167676Y-94863143D01*
X143077046Y-94693586D01*
X143077043Y-94693581D01*
X143075910Y-94691462D01*
X142950883Y-94539117D01*
X142798538Y-94414090D01*
X142796419Y-94412957D01*
X142796414Y-94412954D01*
X142626857Y-94322324D01*
X142626853Y-94322322D01*
X142624727Y-94321186D01*
X142622423Y-94320487D01*
X142622418Y-94320485D01*
X142438433Y-94264674D01*
X142436132Y-94263976D01*
X142433744Y-94263741D01*
X142433740Y-94263740D01*
X142242396Y-94244895D01*
X142240000Y-94244659D01*
X142237604Y-94244895D01*
X142046260Y-94263740D01*
X142046256Y-94263741D01*
X142043868Y-94263976D01*
X142041567Y-94264674D01*
X141857582Y-94320485D01*
X141857577Y-94320487D01*
X141855273Y-94321186D01*
X141853147Y-94322322D01*
X141853143Y-94322324D01*
X141683586Y-94412954D01*
X141683581Y-94412957D01*
X141681462Y-94414090D01*
X141529117Y-94539117D01*
X141404090Y-94691462D01*
X141402957Y-94693581D01*
X141402954Y-94693586D01*
X141312714Y-94862414D01*
X141283724Y-94886206D01*
X141246402Y-94882530D01*
X141222610Y-94853540D01*
X141220500Y-94839316D01*
X141220500Y-93120684D01*
X141234852Y-93086036D01*
X141269500Y-93071684D01*
X141304148Y-93086036D01*
X141312714Y-93097586D01*
X141402954Y-93266414D01*
X141402957Y-93266419D01*
X141404090Y-93268538D01*
X141529117Y-93420883D01*
X141681462Y-93545910D01*
X141683581Y-93547043D01*
X141683586Y-93547046D01*
X141853143Y-93637676D01*
X141853147Y-93637678D01*
X141855273Y-93638814D01*
X141857577Y-93639513D01*
X141857582Y-93639515D01*
X142041567Y-93695326D01*
X142043868Y-93696024D01*
X142046256Y-93696259D01*
X142046260Y-93696260D01*
X142237604Y-93715105D01*
X142240000Y-93715341D01*
X142242396Y-93715105D01*
X142433740Y-93696260D01*
X142433744Y-93696259D01*
X142436132Y-93696024D01*
X142624727Y-93638814D01*
X142716382Y-93589823D01*
X142753705Y-93586147D01*
X142774129Y-93598389D01*
X144582007Y-95406267D01*
X144588101Y-95413692D01*
X144599399Y-95430601D01*
X144682260Y-95485966D01*
X144723987Y-95494266D01*
X144755324Y-95500500D01*
X144755327Y-95500500D01*
X144780000Y-95505408D01*
X144799938Y-95501442D01*
X144809497Y-95500500D01*
X147584127Y-95500500D01*
X147618775Y-95514852D01*
X147631017Y-95535276D01*
X147660485Y-95632417D01*
X147660486Y-95632419D01*
X147661186Y-95634727D01*
X147662322Y-95636853D01*
X147662324Y-95636857D01*
X147752954Y-95806414D01*
X147752957Y-95806419D01*
X147754090Y-95808538D01*
X147879117Y-95960883D01*
X148031462Y-96085910D01*
X148033581Y-96087043D01*
X148033586Y-96087046D01*
X148202414Y-96177286D01*
X148226206Y-96206276D01*
X148222530Y-96243598D01*
X148193540Y-96267390D01*
X148179316Y-96269500D01*
X147112834Y-96269500D01*
X147078186Y-96255148D01*
X147035465Y-96212427D01*
X147032032Y-96210678D01*
X147032031Y-96210677D01*
X146982473Y-96185426D01*
X146929482Y-96158426D01*
X146925677Y-96157823D01*
X146925676Y-96157823D01*
X146815807Y-96140422D01*
X146812000Y-96139819D01*
X146808193Y-96140422D01*
X146698324Y-96157823D01*
X146698323Y-96157823D01*
X146694518Y-96158426D01*
X146641527Y-96185426D01*
X146591969Y-96210677D01*
X146591968Y-96210678D01*
X146588535Y-96212427D01*
X146504427Y-96296535D01*
X146450426Y-96402518D01*
X146449823Y-96406323D01*
X146449823Y-96406324D01*
X146438644Y-96476906D01*
X146431819Y-96520000D01*
X146450426Y-96637482D01*
X146504427Y-96743465D01*
X146588535Y-96827573D01*
X146591968Y-96829322D01*
X146591969Y-96829323D01*
X146637824Y-96852687D01*
X146694518Y-96881574D01*
X146698323Y-96882177D01*
X146698324Y-96882177D01*
X146808193Y-96899578D01*
X146812000Y-96900181D01*
X146815807Y-96899578D01*
X146925676Y-96882177D01*
X146925677Y-96882177D01*
X146929482Y-96881574D01*
X146986176Y-96852687D01*
X147032031Y-96829323D01*
X147032032Y-96829322D01*
X147035465Y-96827573D01*
X147078186Y-96784852D01*
X147112834Y-96770500D01*
X147571006Y-96770500D01*
X147605654Y-96784852D01*
X147620006Y-96819500D01*
X147607057Y-96852687D01*
X147516044Y-96951554D01*
X147513568Y-96954735D01*
X147392687Y-97139756D01*
X147390770Y-97143299D01*
X147301989Y-97345698D01*
X147300683Y-97349502D01*
X147255848Y-97526553D01*
X147256924Y-97533933D01*
X147259695Y-97536000D01*
X149916797Y-97536000D01*
X149923689Y-97533145D01*
X149925012Y-97529951D01*
X149879317Y-97349502D01*
X149878011Y-97345698D01*
X149789230Y-97143299D01*
X149787313Y-97139756D01*
X149666432Y-96954735D01*
X149663956Y-96951554D01*
X149572943Y-96852687D01*
X149560036Y-96817475D01*
X149575807Y-96783449D01*
X149608994Y-96770500D01*
X156052552Y-96770500D01*
X156087200Y-96784852D01*
X156101552Y-96819500D01*
X156101552Y-97270000D01*
X156113233Y-97328722D01*
X156146496Y-97378504D01*
X156196278Y-97411767D01*
X156255000Y-97423448D01*
X157405000Y-97423448D01*
X157406180Y-97423332D01*
X157406188Y-97423332D01*
X157417311Y-97422242D01*
X157434779Y-97420531D01*
X157490118Y-97397676D01*
X157493533Y-97394269D01*
X157493535Y-97394267D01*
X157519025Y-97368830D01*
X157553688Y-97354514D01*
X157588321Y-97368902D01*
X157591530Y-97372448D01*
X157594197Y-97375701D01*
X157594201Y-97375705D01*
X157596496Y-97378504D01*
X157646278Y-97411767D01*
X157705000Y-97423448D01*
X158705000Y-97423448D01*
X158763722Y-97411767D01*
X158813504Y-97378504D01*
X158846767Y-97328722D01*
X158858448Y-97270000D01*
X158858448Y-96819500D01*
X158872800Y-96784852D01*
X158907448Y-96770500D01*
X159084166Y-96770500D01*
X159118814Y-96784852D01*
X159120148Y-96786186D01*
X159134500Y-96820834D01*
X159134500Y-102300500D01*
X159120148Y-102335148D01*
X159085500Y-102349500D01*
X158215180Y-102349500D01*
X158171278Y-102358233D01*
X158121496Y-102391496D01*
X158088233Y-102441278D01*
X158079500Y-102485180D01*
X158079500Y-103254820D01*
X158088233Y-103298722D01*
X158121496Y-103348504D01*
X158171278Y-103381767D01*
X158215180Y-103390500D01*
X160644820Y-103390500D01*
X160688722Y-103381767D01*
X160738504Y-103348504D01*
X160771767Y-103298722D01*
X160780500Y-103254820D01*
X160780500Y-102485180D01*
X160771767Y-102441278D01*
X160738504Y-102391496D01*
X160688722Y-102358233D01*
X160644820Y-102349500D01*
X159684500Y-102349500D01*
X159649852Y-102335148D01*
X159635500Y-102300500D01*
X159635500Y-96820834D01*
X159649852Y-96786186D01*
X159692573Y-96743465D01*
X159746574Y-96637482D01*
X159765181Y-96520000D01*
X159758356Y-96476906D01*
X159747177Y-96406324D01*
X159747177Y-96406323D01*
X159746574Y-96402518D01*
X159692573Y-96296535D01*
X159608465Y-96212427D01*
X159605032Y-96210678D01*
X159605031Y-96210677D01*
X159555473Y-96185426D01*
X159502482Y-96158426D01*
X159498677Y-96157823D01*
X159498676Y-96157823D01*
X159388807Y-96140422D01*
X159385000Y-96139819D01*
X159381193Y-96140422D01*
X159271324Y-96157823D01*
X159271323Y-96157823D01*
X159267518Y-96158426D01*
X159214527Y-96185426D01*
X159164969Y-96210677D01*
X159164968Y-96210678D01*
X159161535Y-96212427D01*
X159118814Y-96255148D01*
X159084166Y-96269500D01*
X158907448Y-96269500D01*
X158872800Y-96255148D01*
X158858448Y-96220500D01*
X158858448Y-95770000D01*
X158846767Y-95711278D01*
X158813504Y-95661496D01*
X158763722Y-95628233D01*
X158705000Y-95616552D01*
X157705000Y-95616552D01*
X157703800Y-95616671D01*
X157703796Y-95616671D01*
X157694484Y-95617593D01*
X157674906Y-95619532D01*
X157671562Y-95620921D01*
X157671563Y-95620921D01*
X157624070Y-95640651D01*
X157624069Y-95640652D01*
X157619615Y-95642502D01*
X157616209Y-95645916D01*
X157616208Y-95645916D01*
X157590678Y-95671500D01*
X157556045Y-95685888D01*
X157521381Y-95671573D01*
X157517383Y-95666706D01*
X157516184Y-95665507D01*
X157513504Y-95661496D01*
X157463722Y-95628233D01*
X157405000Y-95616552D01*
X156255000Y-95616552D01*
X156196278Y-95628233D01*
X156146496Y-95661496D01*
X156113233Y-95711278D01*
X156101552Y-95770000D01*
X156101552Y-96220500D01*
X156087200Y-96255148D01*
X156052552Y-96269500D01*
X149000684Y-96269500D01*
X148966036Y-96255148D01*
X148951684Y-96220500D01*
X148966036Y-96185852D01*
X148977586Y-96177286D01*
X149146414Y-96087046D01*
X149146419Y-96087043D01*
X149148538Y-96085910D01*
X149300883Y-95960883D01*
X149425910Y-95808538D01*
X149427043Y-95806419D01*
X149427046Y-95806414D01*
X149517676Y-95636857D01*
X149517678Y-95636853D01*
X149518814Y-95634727D01*
X149519514Y-95632419D01*
X149519515Y-95632417D01*
X149548983Y-95535276D01*
X149572775Y-95506286D01*
X149595873Y-95500500D01*
X151591166Y-95500500D01*
X151625814Y-95514852D01*
X151668535Y-95557573D01*
X151671968Y-95559322D01*
X151671969Y-95559323D01*
X151721526Y-95584573D01*
X151774518Y-95611574D01*
X151778323Y-95612177D01*
X151778324Y-95612177D01*
X151888193Y-95629578D01*
X151892000Y-95630181D01*
X151895807Y-95629578D01*
X152005676Y-95612177D01*
X152005677Y-95612177D01*
X152009482Y-95611574D01*
X152062474Y-95584573D01*
X152112031Y-95559323D01*
X152112032Y-95559322D01*
X152115465Y-95557573D01*
X152199573Y-95473465D01*
X152212328Y-95448433D01*
X152230029Y-95413692D01*
X152253574Y-95367482D01*
X152272181Y-95250000D01*
X152253574Y-95132518D01*
X152213500Y-95053868D01*
X152201323Y-95029969D01*
X152201322Y-95029968D01*
X152199573Y-95026535D01*
X152115465Y-94942427D01*
X152112032Y-94940678D01*
X152112031Y-94940677D01*
X152062473Y-94915426D01*
X152009482Y-94888426D01*
X152005677Y-94887823D01*
X152005676Y-94887823D01*
X151895807Y-94870422D01*
X151892000Y-94869819D01*
X151888193Y-94870422D01*
X151778324Y-94887823D01*
X151778323Y-94887823D01*
X151774518Y-94888426D01*
X151721527Y-94915426D01*
X151671969Y-94940677D01*
X151671968Y-94940678D01*
X151668535Y-94942427D01*
X151625814Y-94985148D01*
X151591166Y-94999500D01*
X149595873Y-94999500D01*
X149561225Y-94985148D01*
X149548983Y-94964724D01*
X149519515Y-94867583D01*
X149519514Y-94867581D01*
X149518814Y-94865273D01*
X149517678Y-94863147D01*
X149517676Y-94863143D01*
X149427046Y-94693586D01*
X149427043Y-94693581D01*
X149425910Y-94691462D01*
X149300883Y-94539117D01*
X149148538Y-94414090D01*
X149146419Y-94412957D01*
X149146414Y-94412954D01*
X148976857Y-94322324D01*
X148976853Y-94322322D01*
X148974727Y-94321186D01*
X148972423Y-94320487D01*
X148972418Y-94320485D01*
X148788433Y-94264674D01*
X148786132Y-94263976D01*
X148783744Y-94263741D01*
X148783740Y-94263740D01*
X148592396Y-94244895D01*
X148590000Y-94244659D01*
X148587604Y-94244895D01*
X148396260Y-94263740D01*
X148396256Y-94263741D01*
X148393868Y-94263976D01*
X148391567Y-94264674D01*
X148207582Y-94320485D01*
X148207577Y-94320487D01*
X148205273Y-94321186D01*
X148203147Y-94322322D01*
X148203143Y-94322324D01*
X148033586Y-94412954D01*
X148033581Y-94412957D01*
X148031462Y-94414090D01*
X147879117Y-94539117D01*
X147754090Y-94691462D01*
X147752957Y-94693581D01*
X147752954Y-94693586D01*
X147662324Y-94863143D01*
X147662322Y-94863147D01*
X147661186Y-94865273D01*
X147660486Y-94867581D01*
X147660485Y-94867583D01*
X147631017Y-94964724D01*
X147607225Y-94993714D01*
X147584127Y-94999500D01*
X144904056Y-94999500D01*
X144869408Y-94985148D01*
X143128389Y-93244129D01*
X143114037Y-93209481D01*
X143119823Y-93186382D01*
X143124933Y-93176823D01*
X143168814Y-93094727D01*
X143226024Y-92906132D01*
X143227197Y-92894228D01*
X143245105Y-92712396D01*
X143245341Y-92710000D01*
X143226024Y-92513868D01*
X143194364Y-92409500D01*
X143169515Y-92327582D01*
X143169513Y-92327577D01*
X143168814Y-92325273D01*
X143167678Y-92323147D01*
X143167676Y-92323143D01*
X143077046Y-92153586D01*
X143077043Y-92153581D01*
X143075910Y-92151462D01*
X142950883Y-91999117D01*
X142798538Y-91874090D01*
X142796419Y-91872957D01*
X142796414Y-91872954D01*
X142626857Y-91782324D01*
X142626853Y-91782322D01*
X142624727Y-91781186D01*
X142622423Y-91780487D01*
X142622418Y-91780485D01*
X142438433Y-91724674D01*
X142436132Y-91723976D01*
X142433744Y-91723741D01*
X142433740Y-91723740D01*
X142242396Y-91704895D01*
X142240000Y-91704659D01*
X142237604Y-91704895D01*
X142046260Y-91723740D01*
X142046256Y-91723741D01*
X142043868Y-91723976D01*
X142041567Y-91724674D01*
X141857582Y-91780485D01*
X141857577Y-91780487D01*
X141855273Y-91781186D01*
X141853147Y-91782322D01*
X141853143Y-91782324D01*
X141683586Y-91872954D01*
X141683581Y-91872957D01*
X141681462Y-91874090D01*
X141529117Y-91999117D01*
X141404090Y-92151462D01*
X141402957Y-92153581D01*
X141402954Y-92153586D01*
X141312714Y-92322414D01*
X141283724Y-92346206D01*
X141246402Y-92342530D01*
X141222610Y-92313540D01*
X141220500Y-92299316D01*
X141220500Y-90580684D01*
X141234852Y-90546036D01*
X141269500Y-90531684D01*
X141304148Y-90546036D01*
X141312714Y-90557586D01*
X141402954Y-90726414D01*
X141402957Y-90726419D01*
X141404090Y-90728538D01*
X141529117Y-90880883D01*
X141681462Y-91005910D01*
X141683581Y-91007043D01*
X141683586Y-91007046D01*
X141853143Y-91097676D01*
X141853147Y-91097678D01*
X141855273Y-91098814D01*
X141857577Y-91099513D01*
X141857582Y-91099515D01*
X142030705Y-91152031D01*
X142043868Y-91156024D01*
X142046256Y-91156259D01*
X142046260Y-91156260D01*
X142237604Y-91175105D01*
X142240000Y-91175341D01*
X142242396Y-91175105D01*
X142433740Y-91156260D01*
X142433744Y-91156259D01*
X142436132Y-91156024D01*
X142624727Y-91098814D01*
X142626845Y-91097682D01*
X142626852Y-91097679D01*
X142716382Y-91049824D01*
X142753704Y-91046148D01*
X142774128Y-91058390D01*
X142804011Y-91088273D01*
X142810105Y-91095698D01*
X142821399Y-91112601D01*
X142842316Y-91126577D01*
X142842317Y-91126578D01*
X142904260Y-91167966D01*
X143002000Y-91187409D01*
X143021943Y-91183442D01*
X143031502Y-91182500D01*
X144952456Y-91182500D01*
X144987104Y-91196852D01*
X145001456Y-91231500D01*
X144987104Y-91266148D01*
X144939472Y-91313780D01*
X144937723Y-91317213D01*
X144937722Y-91317214D01*
X144936531Y-91319552D01*
X144878281Y-91433874D01*
X144857196Y-91567000D01*
X144857799Y-91570807D01*
X144871847Y-91659500D01*
X144878281Y-91700126D01*
X144939472Y-91820220D01*
X145034780Y-91915528D01*
X145038213Y-91917277D01*
X145038214Y-91917278D01*
X145093219Y-91945304D01*
X145154874Y-91976719D01*
X145158679Y-91977322D01*
X145158680Y-91977322D01*
X145221975Y-91987347D01*
X145279206Y-91996411D01*
X145306189Y-92010160D01*
X146178991Y-92882962D01*
X146183446Y-92888081D01*
X146185017Y-92890162D01*
X146187042Y-92894228D01*
X146190397Y-92897287D01*
X146190399Y-92897289D01*
X146222586Y-92926631D01*
X146224223Y-92928194D01*
X146238203Y-92942174D01*
X146241158Y-92944198D01*
X146246480Y-92948413D01*
X146270067Y-92969916D01*
X146274297Y-92971555D01*
X146274299Y-92971556D01*
X146284645Y-92975564D01*
X146294628Y-92980826D01*
X146307519Y-92989656D01*
X146311939Y-92990696D01*
X146311942Y-92990697D01*
X146338583Y-92996963D01*
X146345058Y-92998968D01*
X146374827Y-93010500D01*
X146390454Y-93010500D01*
X146401673Y-93011802D01*
X146412458Y-93014339D01*
X146412460Y-93014339D01*
X146416881Y-93015379D01*
X146448487Y-93010970D01*
X146455257Y-93010500D01*
X147490500Y-93010500D01*
X147525148Y-93024852D01*
X147539500Y-93059500D01*
X147539500Y-93579748D01*
X147551133Y-93638231D01*
X147595448Y-93704552D01*
X147661769Y-93748867D01*
X147720252Y-93760500D01*
X149459748Y-93760500D01*
X149518231Y-93748867D01*
X149584552Y-93704552D01*
X149628867Y-93638231D01*
X149640500Y-93579748D01*
X149640500Y-93213500D01*
X149654852Y-93178852D01*
X149689500Y-93164500D01*
X156993476Y-93164500D01*
X157025969Y-93176823D01*
X157107760Y-93249283D01*
X157247635Y-93322696D01*
X157250514Y-93323406D01*
X157250515Y-93323406D01*
X157398133Y-93359790D01*
X157398136Y-93359790D01*
X157401015Y-93360500D01*
X157558985Y-93360500D01*
X157561864Y-93359790D01*
X157561867Y-93359790D01*
X157709485Y-93323406D01*
X157709486Y-93323406D01*
X157712365Y-93322696D01*
X157852240Y-93249283D01*
X157934031Y-93176823D01*
X157966524Y-93164500D01*
X158374717Y-93164500D01*
X158380203Y-93164808D01*
X158416536Y-93168902D01*
X158416538Y-93168902D01*
X158420186Y-93169313D01*
X158478247Y-93158328D01*
X158480051Y-93158021D01*
X158538479Y-93149214D01*
X158541787Y-93147621D01*
X158545296Y-93146539D01*
X158545332Y-93146655D01*
X158547776Y-93145850D01*
X158547736Y-93145735D01*
X158551195Y-93144525D01*
X158554807Y-93143841D01*
X158576448Y-93132404D01*
X158607057Y-93116227D01*
X158608692Y-93115402D01*
X158658614Y-93091360D01*
X158658616Y-93091359D01*
X158661921Y-93089767D01*
X158664611Y-93087271D01*
X158667646Y-93085202D01*
X158667713Y-93085301D01*
X158669809Y-93083814D01*
X158669738Y-93083717D01*
X158672691Y-93081537D01*
X158675940Y-93079820D01*
X158717715Y-93038045D01*
X158719035Y-93036773D01*
X158759663Y-92999076D01*
X158759664Y-92999075D01*
X158762356Y-92996577D01*
X158764192Y-92993396D01*
X158766482Y-92990525D01*
X158766577Y-92990601D01*
X158771253Y-92984507D01*
X159731377Y-92024383D01*
X159735474Y-92020721D01*
X159764067Y-91997919D01*
X159766936Y-91995631D01*
X159800235Y-91946791D01*
X159801291Y-91945304D01*
X159834187Y-91900731D01*
X159834190Y-91900726D01*
X159836369Y-91897773D01*
X159837582Y-91894307D01*
X159839297Y-91891062D01*
X159839403Y-91891118D01*
X159840562Y-91888822D01*
X159840455Y-91888770D01*
X159842049Y-91885461D01*
X159844116Y-91882428D01*
X159856382Y-91842662D01*
X159861539Y-91825944D01*
X159862112Y-91824204D01*
X159880408Y-91771917D01*
X159880409Y-91771912D01*
X159881620Y-91768451D01*
X159881757Y-91764787D01*
X159882441Y-91761172D01*
X159882559Y-91761194D01*
X159882989Y-91758664D01*
X159882870Y-91758646D01*
X159883417Y-91755015D01*
X159884500Y-91751505D01*
X159884500Y-91692406D01*
X159884534Y-91690574D01*
X159886606Y-91635209D01*
X159886606Y-91635207D01*
X159886743Y-91631538D01*
X159885792Y-91627988D01*
X159885381Y-91624344D01*
X159885502Y-91624330D01*
X159884500Y-91616718D01*
X159884500Y-91424500D01*
X159898852Y-91389852D01*
X159933500Y-91375500D01*
X160649748Y-91375500D01*
X160708231Y-91363867D01*
X160774552Y-91319552D01*
X160818867Y-91253231D01*
X160830500Y-91194748D01*
X160830500Y-90415252D01*
X160830029Y-90412887D01*
X160829897Y-90411542D01*
X160840782Y-90375653D01*
X160861538Y-90360826D01*
X160872677Y-90356671D01*
X160878769Y-90353345D01*
X160990100Y-90270003D01*
X160995003Y-90265100D01*
X161073774Y-90159875D01*
X161106027Y-90140739D01*
X161142365Y-90150014D01*
X161161501Y-90182267D01*
X161162000Y-90189240D01*
X161162000Y-106025760D01*
X161147648Y-106060408D01*
X161113000Y-106074760D01*
X161078352Y-106060408D01*
X161073774Y-106055125D01*
X160995003Y-105949900D01*
X160990100Y-105944997D01*
X160878769Y-105861655D01*
X160872679Y-105858330D01*
X160812376Y-105835838D01*
X160784928Y-105810283D01*
X160780500Y-105789927D01*
X160780500Y-105025180D01*
X160771767Y-104981278D01*
X160738504Y-104931496D01*
X160688722Y-104898233D01*
X160644820Y-104889500D01*
X158605034Y-104889500D01*
X158570386Y-104875148D01*
X158439386Y-104744148D01*
X158425034Y-104709500D01*
X158439386Y-104674852D01*
X158474034Y-104660500D01*
X160644820Y-104660500D01*
X160688722Y-104651767D01*
X160738504Y-104618504D01*
X160771767Y-104568722D01*
X160780500Y-104524820D01*
X160780500Y-103755180D01*
X160771767Y-103711278D01*
X160738504Y-103661496D01*
X160688722Y-103628233D01*
X160644820Y-103619500D01*
X158215180Y-103619500D01*
X158171278Y-103628233D01*
X158121496Y-103661496D01*
X158088233Y-103711278D01*
X158079500Y-103755180D01*
X158079500Y-104265966D01*
X158065148Y-104300614D01*
X158030500Y-104314966D01*
X157995852Y-104300614D01*
X157744852Y-104049614D01*
X157730500Y-104014966D01*
X157730500Y-101629502D01*
X157731442Y-101619942D01*
X157734467Y-101604735D01*
X157735409Y-101600000D01*
X157715966Y-101502260D01*
X157674578Y-101440317D01*
X157674577Y-101440316D01*
X157660601Y-101419399D01*
X157643695Y-101408103D01*
X157636270Y-101402009D01*
X157019852Y-100785592D01*
X157005500Y-100750944D01*
X157005500Y-100139448D01*
X157019852Y-100104800D01*
X157054500Y-100090448D01*
X157405000Y-100090448D01*
X157406180Y-100090332D01*
X157406188Y-100090332D01*
X157417311Y-100089242D01*
X157434779Y-100087531D01*
X157490118Y-100064676D01*
X157532498Y-100022385D01*
X157555468Y-99967094D01*
X157555531Y-99907221D01*
X157532676Y-99851882D01*
X157107541Y-99214180D01*
X157100263Y-99177390D01*
X157107541Y-99159820D01*
X157532008Y-98523120D01*
X157532676Y-98522118D01*
X157545007Y-98499020D01*
X157545068Y-98498905D01*
X157545068Y-98498904D01*
X157546767Y-98495722D01*
X157558448Y-98437000D01*
X157546767Y-98378278D01*
X157513504Y-98328496D01*
X157463722Y-98295233D01*
X157405000Y-98283552D01*
X156255000Y-98283552D01*
X156196278Y-98295233D01*
X156146496Y-98328496D01*
X156113233Y-98378278D01*
X156101552Y-98437000D01*
X156101552Y-99937000D01*
X156113233Y-99995722D01*
X156146496Y-100045504D01*
X156196278Y-100078767D01*
X156255000Y-100090448D01*
X156455500Y-100090448D01*
X156490148Y-100104800D01*
X156504500Y-100139448D01*
X156504500Y-100845503D01*
X156503558Y-100855060D01*
X156499592Y-100875000D01*
X156519034Y-100972741D01*
X156538943Y-101002536D01*
X156574399Y-101055601D01*
X156578413Y-101058283D01*
X156578414Y-101058284D01*
X156591308Y-101066899D01*
X156598733Y-101072993D01*
X157215148Y-101689409D01*
X157229500Y-101724057D01*
X157229500Y-104109525D01*
X157228558Y-104119082D01*
X157224592Y-104139022D01*
X157244034Y-104236763D01*
X157244687Y-104237740D01*
X157299399Y-104319623D01*
X157303410Y-104322303D01*
X157316308Y-104330921D01*
X157323733Y-104337015D01*
X158065148Y-105078430D01*
X158079500Y-105113078D01*
X158079500Y-105789927D01*
X158065148Y-105824575D01*
X158047624Y-105835838D01*
X157987321Y-105858330D01*
X157981231Y-105861655D01*
X157869900Y-105944997D01*
X157864997Y-105949900D01*
X157781655Y-106061231D01*
X157778330Y-106067321D01*
X157729574Y-106198039D01*
X157728178Y-106203952D01*
X157722141Y-106260095D01*
X157722000Y-106262730D01*
X157722000Y-106416253D01*
X157724855Y-106423145D01*
X157731747Y-106426000D01*
X159635000Y-106426000D01*
X159669648Y-106440352D01*
X159684000Y-106475000D01*
X159684000Y-106885000D01*
X159669648Y-106919648D01*
X159635000Y-106934000D01*
X157731747Y-106934000D01*
X157724855Y-106936855D01*
X157722000Y-106943747D01*
X157722000Y-107097270D01*
X157722141Y-107099905D01*
X157728178Y-107156048D01*
X157729575Y-107161961D01*
X157770980Y-107272975D01*
X157769641Y-107310454D01*
X157742193Y-107336010D01*
X157712704Y-107335927D01*
X157712365Y-107337304D01*
X157561867Y-107300210D01*
X157561864Y-107300210D01*
X157558985Y-107299500D01*
X157401015Y-107299500D01*
X157398136Y-107300210D01*
X157398133Y-107300210D01*
X157250515Y-107336594D01*
X157250514Y-107336594D01*
X157247635Y-107337304D01*
X157107760Y-107410717D01*
X157105543Y-107412681D01*
X157076701Y-107438233D01*
X156989517Y-107515470D01*
X156987832Y-107517910D01*
X156987832Y-107517911D01*
X156963002Y-107553884D01*
X156931509Y-107574246D01*
X156894841Y-107566375D01*
X156874618Y-107535610D01*
X156872708Y-107526010D01*
X156871767Y-107521278D01*
X156838504Y-107471496D01*
X156788722Y-107438233D01*
X156744820Y-107429500D01*
X154315180Y-107429500D01*
X154271278Y-107438233D01*
X154221496Y-107471496D01*
X154188233Y-107521278D01*
X154179500Y-107565180D01*
X154179500Y-107650500D01*
X154165148Y-107685148D01*
X154130500Y-107699500D01*
X151557834Y-107699500D01*
X151523186Y-107685148D01*
X151480465Y-107642427D01*
X151477032Y-107640678D01*
X151477031Y-107640677D01*
X151427474Y-107615427D01*
X151374482Y-107588426D01*
X151370677Y-107587823D01*
X151370676Y-107587823D01*
X151260807Y-107570422D01*
X151257000Y-107569819D01*
X151253193Y-107570422D01*
X151143324Y-107587823D01*
X151143323Y-107587823D01*
X151139518Y-107588426D01*
X151086527Y-107615426D01*
X151036969Y-107640677D01*
X151036968Y-107640678D01*
X151033535Y-107642427D01*
X150949427Y-107726535D01*
X150895426Y-107832518D01*
X150876819Y-107950000D01*
X150895426Y-108067482D01*
X150949427Y-108173465D01*
X151033535Y-108257573D01*
X151036968Y-108259322D01*
X151036969Y-108259323D01*
X151086527Y-108284574D01*
X151139518Y-108311574D01*
X151143323Y-108312177D01*
X151143324Y-108312177D01*
X151253193Y-108329578D01*
X151257000Y-108330181D01*
X151260807Y-108329578D01*
X151370676Y-108312177D01*
X151370677Y-108312177D01*
X151374482Y-108311574D01*
X151427474Y-108284573D01*
X151477031Y-108259323D01*
X151477032Y-108259322D01*
X151480465Y-108257573D01*
X151523186Y-108214852D01*
X151557834Y-108200500D01*
X154130500Y-108200500D01*
X154165148Y-108214852D01*
X154179500Y-108249500D01*
X154179500Y-108334820D01*
X154188233Y-108378722D01*
X154221496Y-108428504D01*
X154271278Y-108461767D01*
X154315180Y-108470500D01*
X156744820Y-108470500D01*
X156788722Y-108461767D01*
X156838504Y-108428504D01*
X156871767Y-108378722D01*
X156874618Y-108364390D01*
X156895454Y-108333208D01*
X156932237Y-108325893D01*
X156963002Y-108346116D01*
X156989517Y-108384530D01*
X156991735Y-108386495D01*
X156991736Y-108386496D01*
X157077763Y-108462708D01*
X157107760Y-108489283D01*
X157247635Y-108562696D01*
X157250514Y-108563406D01*
X157250515Y-108563406D01*
X157398133Y-108599790D01*
X157398136Y-108599790D01*
X157401015Y-108600500D01*
X157558985Y-108600500D01*
X157561864Y-108599790D01*
X157561867Y-108599790D01*
X157709485Y-108563406D01*
X157709486Y-108563406D01*
X157712365Y-108562696D01*
X157852240Y-108489283D01*
X157934031Y-108416823D01*
X157966524Y-108404500D01*
X158019131Y-108404500D01*
X158053779Y-108418852D01*
X158059873Y-108426277D01*
X158085448Y-108464552D01*
X158151769Y-108508867D01*
X158210252Y-108520500D01*
X160649748Y-108520500D01*
X160708231Y-108508867D01*
X160774552Y-108464552D01*
X160818867Y-108398231D01*
X160830500Y-108339748D01*
X160830500Y-107560252D01*
X160830029Y-107557887D01*
X160829897Y-107556542D01*
X160840782Y-107520653D01*
X160861538Y-107505826D01*
X160872677Y-107501671D01*
X160878769Y-107498345D01*
X160990100Y-107415003D01*
X160995003Y-107410100D01*
X161073774Y-107304875D01*
X161106027Y-107285739D01*
X161142365Y-107295014D01*
X161161501Y-107327267D01*
X161162000Y-107334240D01*
X161162000Y-109043000D01*
X161147648Y-109077648D01*
X161113000Y-109092000D01*
X138607000Y-109092000D01*
X138572352Y-109077648D01*
X138558000Y-109043000D01*
X138558000Y-106300108D01*
X138572352Y-106265460D01*
X138607000Y-106251108D01*
X138643050Y-106266921D01*
X138775724Y-106411043D01*
X138778699Y-106413782D01*
X138953099Y-106549522D01*
X138956484Y-106551734D01*
X139150847Y-106656918D01*
X139154542Y-106658539D01*
X139363572Y-106730299D01*
X139367484Y-106731290D01*
X139436388Y-106742788D01*
X139443654Y-106741107D01*
X139446000Y-106737349D01*
X139446000Y-106734645D01*
X139954000Y-106734645D01*
X139956855Y-106741537D01*
X139960948Y-106743233D01*
X140032516Y-106731290D01*
X140036428Y-106730299D01*
X140182944Y-106680000D01*
X151511819Y-106680000D01*
X151530426Y-106797482D01*
X151532176Y-106800916D01*
X151575019Y-106885000D01*
X151584427Y-106903465D01*
X151668535Y-106987573D01*
X151671968Y-106989322D01*
X151671969Y-106989323D01*
X151721526Y-107014573D01*
X151774518Y-107041574D01*
X151778323Y-107042177D01*
X151778324Y-107042177D01*
X151888193Y-107059578D01*
X151892000Y-107060181D01*
X151895807Y-107059578D01*
X152005676Y-107042177D01*
X152005677Y-107042177D01*
X152009482Y-107041574D01*
X152062474Y-107014573D01*
X152112031Y-106989323D01*
X152112032Y-106989322D01*
X152115465Y-106987573D01*
X152158186Y-106944852D01*
X152192834Y-106930500D01*
X154130500Y-106930500D01*
X154165148Y-106944852D01*
X154179500Y-106979500D01*
X154179500Y-107064820D01*
X154188233Y-107108722D01*
X154221496Y-107158504D01*
X154271278Y-107191767D01*
X154315180Y-107200500D01*
X156744820Y-107200500D01*
X156788722Y-107191767D01*
X156838504Y-107158504D01*
X156871767Y-107108722D01*
X156880500Y-107064820D01*
X156880500Y-106295180D01*
X156871767Y-106251278D01*
X156838504Y-106201496D01*
X156788722Y-106168233D01*
X156744820Y-106159500D01*
X154315180Y-106159500D01*
X154271278Y-106168233D01*
X154221496Y-106201496D01*
X154188233Y-106251278D01*
X154179500Y-106295180D01*
X154179500Y-106380500D01*
X154165148Y-106415148D01*
X154130500Y-106429500D01*
X152192834Y-106429500D01*
X152158186Y-106415148D01*
X152115465Y-106372427D01*
X152112032Y-106370678D01*
X152112031Y-106370677D01*
X152062474Y-106345427D01*
X152009482Y-106318426D01*
X152005677Y-106317823D01*
X152005676Y-106317823D01*
X151895807Y-106300422D01*
X151892000Y-106299819D01*
X151888193Y-106300422D01*
X151778324Y-106317823D01*
X151778323Y-106317823D01*
X151774518Y-106318426D01*
X151721526Y-106345427D01*
X151671969Y-106370677D01*
X151671968Y-106370678D01*
X151668535Y-106372427D01*
X151584427Y-106456535D01*
X151582678Y-106459968D01*
X151582677Y-106459969D01*
X151557426Y-106509527D01*
X151530426Y-106562518D01*
X151511819Y-106680000D01*
X140182944Y-106680000D01*
X140245458Y-106658539D01*
X140249153Y-106656918D01*
X140443516Y-106551734D01*
X140446901Y-106549522D01*
X140621301Y-106413782D01*
X140624270Y-106411049D01*
X140773956Y-106248446D01*
X140776432Y-106245265D01*
X140897313Y-106060244D01*
X140899230Y-106056701D01*
X140988011Y-105854302D01*
X140989317Y-105850498D01*
X141034152Y-105673447D01*
X141033076Y-105666067D01*
X141030305Y-105664000D01*
X139963747Y-105664000D01*
X139956855Y-105666855D01*
X139954000Y-105673747D01*
X139954000Y-106734645D01*
X139446000Y-106734645D01*
X139446000Y-105410000D01*
X141234659Y-105410000D01*
X141253976Y-105606132D01*
X141254674Y-105608433D01*
X141310485Y-105792418D01*
X141310487Y-105792423D01*
X141311186Y-105794727D01*
X141312322Y-105796853D01*
X141312324Y-105796857D01*
X141402954Y-105966414D01*
X141402957Y-105966419D01*
X141404090Y-105968538D01*
X141405619Y-105970401D01*
X141475151Y-106055125D01*
X141529117Y-106120883D01*
X141681462Y-106245910D01*
X141683581Y-106247043D01*
X141683586Y-106247046D01*
X141853143Y-106337676D01*
X141853147Y-106337678D01*
X141855273Y-106338814D01*
X141857577Y-106339513D01*
X141857582Y-106339515D01*
X142041567Y-106395326D01*
X142043868Y-106396024D01*
X142046256Y-106396259D01*
X142046260Y-106396260D01*
X142237604Y-106415105D01*
X142240000Y-106415341D01*
X142242396Y-106415105D01*
X142433740Y-106396260D01*
X142433744Y-106396259D01*
X142436132Y-106396024D01*
X142438433Y-106395326D01*
X142622418Y-106339515D01*
X142622423Y-106339513D01*
X142624727Y-106338814D01*
X142626853Y-106337678D01*
X142626857Y-106337676D01*
X142796414Y-106247046D01*
X142796419Y-106247043D01*
X142798538Y-106245910D01*
X142950883Y-106120883D01*
X143004850Y-106055125D01*
X143074381Y-105970401D01*
X143075910Y-105968538D01*
X143077043Y-105966419D01*
X143077046Y-105966414D01*
X143167676Y-105796857D01*
X143167678Y-105796853D01*
X143168814Y-105794727D01*
X143169513Y-105792423D01*
X143169515Y-105792418D01*
X143225326Y-105608433D01*
X143226024Y-105606132D01*
X143245341Y-105410000D01*
X143226024Y-105213868D01*
X143208470Y-105156000D01*
X143169515Y-105027582D01*
X143169513Y-105027577D01*
X143168814Y-105025273D01*
X143167678Y-105023147D01*
X143167676Y-105023143D01*
X143077046Y-104853586D01*
X143077043Y-104853581D01*
X143075910Y-104851462D01*
X142950883Y-104699117D01*
X142798538Y-104574090D01*
X142796419Y-104572957D01*
X142796414Y-104572954D01*
X142626857Y-104482324D01*
X142626853Y-104482322D01*
X142624727Y-104481186D01*
X142622423Y-104480487D01*
X142622418Y-104480485D01*
X142438433Y-104424674D01*
X142436132Y-104423976D01*
X142433744Y-104423741D01*
X142433740Y-104423740D01*
X142242396Y-104404895D01*
X142240000Y-104404659D01*
X142237604Y-104404895D01*
X142046260Y-104423740D01*
X142046256Y-104423741D01*
X142043868Y-104423976D01*
X142041567Y-104424674D01*
X141857582Y-104480485D01*
X141857577Y-104480487D01*
X141855273Y-104481186D01*
X141853147Y-104482322D01*
X141853143Y-104482324D01*
X141683586Y-104572954D01*
X141683581Y-104572957D01*
X141681462Y-104574090D01*
X141529117Y-104699117D01*
X141404090Y-104851462D01*
X141402957Y-104853581D01*
X141402954Y-104853586D01*
X141312324Y-105023143D01*
X141312322Y-105023147D01*
X141311186Y-105025273D01*
X141310487Y-105027577D01*
X141310485Y-105027582D01*
X141271530Y-105156000D01*
X141253976Y-105213868D01*
X141234659Y-105410000D01*
X139446000Y-105410000D01*
X139446000Y-105146253D01*
X139954000Y-105146253D01*
X139956855Y-105153145D01*
X139963747Y-105156000D01*
X141026797Y-105156000D01*
X141033689Y-105153145D01*
X141035012Y-105149951D01*
X140989317Y-104969502D01*
X140988011Y-104965698D01*
X140899230Y-104763299D01*
X140897313Y-104759756D01*
X140776432Y-104574735D01*
X140773956Y-104571554D01*
X140624270Y-104408951D01*
X140621301Y-104406218D01*
X140446901Y-104270478D01*
X140443516Y-104268266D01*
X140286132Y-104183094D01*
X140262490Y-104153981D01*
X140266359Y-104116679D01*
X140286132Y-104096906D01*
X140443516Y-104011734D01*
X140446901Y-104009522D01*
X140621301Y-103873782D01*
X140624270Y-103871049D01*
X140773956Y-103708446D01*
X140776432Y-103705265D01*
X140897313Y-103520244D01*
X140899230Y-103516701D01*
X140988011Y-103314302D01*
X140989317Y-103310498D01*
X141034152Y-103133447D01*
X141033076Y-103126067D01*
X141030305Y-103124000D01*
X139963747Y-103124000D01*
X139956855Y-103126855D01*
X139954000Y-103133747D01*
X139954000Y-105146253D01*
X139446000Y-105146253D01*
X139446000Y-83765355D01*
X139443145Y-83758463D01*
X139439052Y-83756767D01*
X139367484Y-83768710D01*
X139363572Y-83769701D01*
X139154542Y-83841461D01*
X139150847Y-83843082D01*
X138956484Y-83948266D01*
X138953099Y-83950478D01*
X138778699Y-84086218D01*
X138775724Y-84088957D01*
X138643050Y-84233079D01*
X138609025Y-84248850D01*
X138573813Y-84235942D01*
X138558000Y-84199892D01*
X138558000Y-82550000D01*
X138694659Y-82550000D01*
X138694895Y-82552396D01*
X138712717Y-82733345D01*
X138713976Y-82746132D01*
X138714674Y-82748433D01*
X138770485Y-82932418D01*
X138770487Y-82932423D01*
X138771186Y-82934727D01*
X138772322Y-82936853D01*
X138772324Y-82936857D01*
X138862954Y-83106414D01*
X138862957Y-83106419D01*
X138864090Y-83108538D01*
X138989117Y-83260883D01*
X139141462Y-83385910D01*
X139143581Y-83387043D01*
X139143586Y-83387046D01*
X139313143Y-83477676D01*
X139313147Y-83477678D01*
X139315273Y-83478814D01*
X139317577Y-83479513D01*
X139317582Y-83479515D01*
X139501231Y-83535224D01*
X139503868Y-83536024D01*
X139506256Y-83536259D01*
X139506260Y-83536260D01*
X139697604Y-83555105D01*
X139700000Y-83555341D01*
X139702396Y-83555105D01*
X139893740Y-83536260D01*
X139893744Y-83536259D01*
X139896132Y-83536024D01*
X139898769Y-83535224D01*
X140082418Y-83479515D01*
X140082423Y-83479513D01*
X140084727Y-83478814D01*
X140086853Y-83477678D01*
X140086857Y-83477676D01*
X140256414Y-83387046D01*
X140256419Y-83387043D01*
X140258538Y-83385910D01*
X140410883Y-83260883D01*
X140535910Y-83108538D01*
X140537043Y-83106419D01*
X140537046Y-83106414D01*
X140627676Y-82936857D01*
X140627678Y-82936853D01*
X140628814Y-82934727D01*
X140629513Y-82932423D01*
X140629515Y-82932418D01*
X140685326Y-82748433D01*
X140686024Y-82746132D01*
X140687284Y-82733345D01*
X140705105Y-82552396D01*
X140705341Y-82550000D01*
X140702459Y-82520739D01*
X140686260Y-82356260D01*
X140686259Y-82356256D01*
X140686024Y-82353868D01*
X140682946Y-82343722D01*
X140629515Y-82167582D01*
X140629513Y-82167577D01*
X140628814Y-82165273D01*
X140627678Y-82163147D01*
X140627676Y-82163143D01*
X140537046Y-81993586D01*
X140537043Y-81993581D01*
X140535910Y-81991462D01*
X140410883Y-81839117D01*
X140258538Y-81714090D01*
X140256419Y-81712957D01*
X140256414Y-81712954D01*
X140086857Y-81622324D01*
X140086853Y-81622322D01*
X140084727Y-81621186D01*
X140082423Y-81620487D01*
X140082418Y-81620485D01*
X139898433Y-81564674D01*
X139896132Y-81563976D01*
X139893744Y-81563741D01*
X139893740Y-81563740D01*
X139702396Y-81544895D01*
X139700000Y-81544659D01*
X139697604Y-81544895D01*
X139506260Y-81563740D01*
X139506256Y-81563741D01*
X139503868Y-81563976D01*
X139501567Y-81564674D01*
X139317582Y-81620485D01*
X139317577Y-81620487D01*
X139315273Y-81621186D01*
X139313147Y-81622322D01*
X139313143Y-81622324D01*
X139143586Y-81712954D01*
X139143581Y-81712957D01*
X139141462Y-81714090D01*
X138989117Y-81839117D01*
X138864090Y-81991462D01*
X138862957Y-81993581D01*
X138862954Y-81993586D01*
X138772324Y-82163143D01*
X138772322Y-82163147D01*
X138771186Y-82165273D01*
X138770487Y-82167577D01*
X138770485Y-82167582D01*
X138717054Y-82343722D01*
X138713976Y-82353868D01*
X138713741Y-82356256D01*
X138713740Y-82356260D01*
X138697541Y-82520739D01*
X138694659Y-82550000D01*
X138558000Y-82550000D01*
X138558000Y-78917000D01*
X138572352Y-78882352D01*
X138607000Y-78868000D01*
X154148864Y-78868000D01*
X154183512Y-78882352D01*
G37*
G04 #@! TD.AperFunction*
G04 #@! TA.AperFunction,Conductor*
G36*
X161142365Y-82530014D02*
G01*
X161161501Y-82562267D01*
X161162000Y-82569240D01*
X161162000Y-87610760D01*
X161147648Y-87645408D01*
X161113000Y-87659760D01*
X161078352Y-87645408D01*
X161073774Y-87640125D01*
X160995003Y-87534900D01*
X160990100Y-87529997D01*
X160878769Y-87446655D01*
X160872679Y-87443330D01*
X160812376Y-87420838D01*
X160784928Y-87395283D01*
X160780500Y-87374927D01*
X160780500Y-86610180D01*
X160771767Y-86566278D01*
X160738504Y-86516496D01*
X160688722Y-86483233D01*
X160644820Y-86474500D01*
X158215180Y-86474500D01*
X158171278Y-86483233D01*
X158121496Y-86516496D01*
X158088233Y-86566278D01*
X158079500Y-86610180D01*
X158079500Y-87374927D01*
X158065148Y-87409575D01*
X158047624Y-87420838D01*
X157987321Y-87443330D01*
X157981231Y-87446655D01*
X157869900Y-87529997D01*
X157864997Y-87534900D01*
X157781655Y-87646231D01*
X157778330Y-87652321D01*
X157729574Y-87783039D01*
X157728178Y-87788952D01*
X157722141Y-87845095D01*
X157722000Y-87847730D01*
X157722000Y-88001253D01*
X157724855Y-88008145D01*
X157731747Y-88011000D01*
X159635000Y-88011000D01*
X159669648Y-88025352D01*
X159684000Y-88060000D01*
X159684000Y-89740000D01*
X159669648Y-89774648D01*
X159635000Y-89789000D01*
X157731747Y-89789000D01*
X157724855Y-89791855D01*
X157722000Y-89798747D01*
X157722000Y-89952270D01*
X157722141Y-89954905D01*
X157728178Y-90011048D01*
X157729574Y-90016961D01*
X157778330Y-90147679D01*
X157781655Y-90153769D01*
X157864997Y-90265100D01*
X157869900Y-90270003D01*
X157981231Y-90353345D01*
X157987323Y-90356671D01*
X157998462Y-90360826D01*
X158025911Y-90386381D01*
X158030103Y-90411542D01*
X158029971Y-90412887D01*
X158029500Y-90415252D01*
X158029500Y-91194748D01*
X158041133Y-91253231D01*
X158085448Y-91319552D01*
X158151769Y-91363867D01*
X158210252Y-91375500D01*
X158926500Y-91375500D01*
X158961148Y-91389852D01*
X158975500Y-91424500D01*
X158975500Y-91474444D01*
X158961148Y-91509092D01*
X158229091Y-92241148D01*
X158194443Y-92255500D01*
X157966524Y-92255500D01*
X157934031Y-92243177D01*
X157854457Y-92172681D01*
X157852240Y-92170717D01*
X157712365Y-92097304D01*
X157709486Y-92096594D01*
X157709485Y-92096594D01*
X157561867Y-92060210D01*
X157561864Y-92060210D01*
X157558985Y-92059500D01*
X157401015Y-92059500D01*
X157398136Y-92060210D01*
X157398133Y-92060210D01*
X157250515Y-92096594D01*
X157250514Y-92096594D01*
X157247635Y-92097304D01*
X157107760Y-92170717D01*
X157105543Y-92172681D01*
X157025969Y-92243177D01*
X156993476Y-92255500D01*
X149689500Y-92255500D01*
X149654852Y-92241148D01*
X149640500Y-92206500D01*
X149640500Y-91840252D01*
X149628867Y-91781769D01*
X149613429Y-91758664D01*
X149587232Y-91719459D01*
X149584552Y-91715448D01*
X149518231Y-91671133D01*
X149459748Y-91659500D01*
X147720252Y-91659500D01*
X147661769Y-91671133D01*
X147595448Y-91715448D01*
X147592768Y-91719459D01*
X147566572Y-91758664D01*
X147551133Y-91781769D01*
X147539500Y-91840252D01*
X147539500Y-92360500D01*
X147525148Y-92395148D01*
X147490500Y-92409500D01*
X146575767Y-92409500D01*
X146541119Y-92395148D01*
X145731160Y-91585189D01*
X145717411Y-91558206D01*
X145698322Y-91437680D01*
X145698322Y-91437679D01*
X145697719Y-91433874D01*
X145639469Y-91319552D01*
X145638278Y-91317214D01*
X145638277Y-91317213D01*
X145636528Y-91313780D01*
X145588896Y-91266148D01*
X145574544Y-91231500D01*
X145588896Y-91196852D01*
X145623544Y-91182500D01*
X150956166Y-91182500D01*
X150990814Y-91196852D01*
X151033535Y-91239573D01*
X151036968Y-91241322D01*
X151036969Y-91241323D01*
X151051043Y-91248494D01*
X151139518Y-91293574D01*
X151143323Y-91294177D01*
X151143324Y-91294177D01*
X151234504Y-91308618D01*
X151240212Y-91309522D01*
X151253193Y-91311578D01*
X151257000Y-91312181D01*
X151260807Y-91311578D01*
X151273789Y-91309522D01*
X151279496Y-91308618D01*
X151370676Y-91294177D01*
X151370677Y-91294177D01*
X151374482Y-91293574D01*
X151462957Y-91248494D01*
X151477031Y-91241323D01*
X151477032Y-91241322D01*
X151480465Y-91239573D01*
X151564573Y-91155465D01*
X151601876Y-91082254D01*
X151630393Y-91057898D01*
X151645535Y-91055500D01*
X154130500Y-91055500D01*
X154165148Y-91069852D01*
X154179500Y-91104500D01*
X154179500Y-91189820D01*
X154188233Y-91233722D01*
X154221496Y-91283504D01*
X154271278Y-91316767D01*
X154315180Y-91325500D01*
X156744820Y-91325500D01*
X156788722Y-91316767D01*
X156838504Y-91283504D01*
X156871767Y-91233722D01*
X156880500Y-91189820D01*
X156880500Y-90420180D01*
X156871767Y-90376278D01*
X156838504Y-90326496D01*
X156788722Y-90293233D01*
X156744820Y-90284500D01*
X154315180Y-90284500D01*
X154271278Y-90293233D01*
X154221496Y-90326496D01*
X154188233Y-90376278D01*
X154179500Y-90420180D01*
X154179500Y-90505500D01*
X154165148Y-90540148D01*
X154130500Y-90554500D01*
X151413497Y-90554500D01*
X151403940Y-90553558D01*
X151384000Y-90549592D01*
X151330052Y-90560323D01*
X151312830Y-90560661D01*
X151265507Y-90553166D01*
X151257000Y-90551819D01*
X151246020Y-90553558D01*
X151143324Y-90569823D01*
X151143323Y-90569823D01*
X151139518Y-90570426D01*
X151119386Y-90580684D01*
X151036969Y-90622677D01*
X151036968Y-90622678D01*
X151033535Y-90624427D01*
X150990814Y-90667148D01*
X150956166Y-90681500D01*
X143182804Y-90681500D01*
X143148156Y-90667148D01*
X143133804Y-90632500D01*
X143139590Y-90609401D01*
X143167681Y-90556847D01*
X143167682Y-90556846D01*
X143168814Y-90554727D01*
X143212249Y-90411542D01*
X143225326Y-90368433D01*
X143226024Y-90366132D01*
X143226947Y-90356769D01*
X143245105Y-90172396D01*
X143245341Y-90170000D01*
X143237423Y-90089602D01*
X143248310Y-90053713D01*
X143281384Y-90036035D01*
X143317273Y-90046922D01*
X143320835Y-90050151D01*
X143723951Y-90453267D01*
X143730045Y-90460692D01*
X143741343Y-90477601D01*
X143824204Y-90532966D01*
X143860310Y-90540148D01*
X143897268Y-90547500D01*
X143897271Y-90547500D01*
X143921944Y-90552408D01*
X143941882Y-90548442D01*
X143951441Y-90547500D01*
X150211503Y-90547500D01*
X150221060Y-90548442D01*
X150241000Y-90552408D01*
X150338741Y-90532966D01*
X150378465Y-90506423D01*
X150421601Y-90477601D01*
X150431846Y-90462268D01*
X150463028Y-90441433D01*
X150480255Y-90441095D01*
X150491188Y-90442827D01*
X150491193Y-90442827D01*
X150495000Y-90443430D01*
X150498807Y-90442827D01*
X150614934Y-90424435D01*
X150614935Y-90424435D01*
X150618740Y-90423832D01*
X150674553Y-90395394D01*
X150726933Y-90368705D01*
X150726934Y-90368704D01*
X150730367Y-90366955D01*
X150818955Y-90278367D01*
X150875832Y-90166740D01*
X150877887Y-90153769D01*
X150894827Y-90046807D01*
X150895430Y-90043000D01*
X150893023Y-90027801D01*
X150901778Y-89991334D01*
X150906772Y-89985488D01*
X151434269Y-89457991D01*
X151468917Y-89443639D01*
X151503565Y-89457991D01*
X151517917Y-89492639D01*
X151517314Y-89500304D01*
X151513321Y-89525517D01*
X151511819Y-89535000D01*
X151512422Y-89538807D01*
X151525980Y-89624408D01*
X151530426Y-89652482D01*
X151532176Y-89655916D01*
X151575019Y-89740000D01*
X151584427Y-89758465D01*
X151668535Y-89842573D01*
X151671968Y-89844322D01*
X151671969Y-89844323D01*
X151721527Y-89869574D01*
X151774518Y-89896574D01*
X151778323Y-89897177D01*
X151778324Y-89897177D01*
X151888193Y-89914578D01*
X151892000Y-89915181D01*
X151895807Y-89914578D01*
X152005676Y-89897177D01*
X152005677Y-89897177D01*
X152009482Y-89896574D01*
X152062474Y-89869573D01*
X152112031Y-89844323D01*
X152112032Y-89844322D01*
X152115465Y-89842573D01*
X152158186Y-89799852D01*
X152192834Y-89785500D01*
X154130500Y-89785500D01*
X154165148Y-89799852D01*
X154179500Y-89834500D01*
X154179500Y-89919820D01*
X154188233Y-89963722D01*
X154221496Y-90013504D01*
X154271278Y-90046767D01*
X154315180Y-90055500D01*
X156744820Y-90055500D01*
X156788722Y-90046767D01*
X156838504Y-90013504D01*
X156871767Y-89963722D01*
X156880500Y-89919820D01*
X156880500Y-89271253D01*
X157722000Y-89271253D01*
X157724855Y-89278145D01*
X157731747Y-89281000D01*
X159166253Y-89281000D01*
X159173145Y-89278145D01*
X159176000Y-89271253D01*
X159176000Y-88528747D01*
X159173145Y-88521855D01*
X159166253Y-88519000D01*
X157731747Y-88519000D01*
X157724855Y-88521855D01*
X157722000Y-88528747D01*
X157722000Y-88682270D01*
X157722141Y-88684905D01*
X157728178Y-88741048D01*
X157729574Y-88746961D01*
X157779554Y-88880962D01*
X157778226Y-88881457D01*
X157781702Y-88913807D01*
X157779538Y-88919032D01*
X157779554Y-88919038D01*
X157729574Y-89053039D01*
X157728178Y-89058952D01*
X157722141Y-89115095D01*
X157722000Y-89117730D01*
X157722000Y-89271253D01*
X156880500Y-89271253D01*
X156880500Y-89150180D01*
X156871767Y-89106278D01*
X156838504Y-89056496D01*
X156788722Y-89023233D01*
X156744820Y-89014500D01*
X154315180Y-89014500D01*
X154271278Y-89023233D01*
X154221496Y-89056496D01*
X154188233Y-89106278D01*
X154179500Y-89150180D01*
X154179500Y-89235500D01*
X154165148Y-89270148D01*
X154130500Y-89284500D01*
X153583056Y-89284500D01*
X153548408Y-89270148D01*
X153534056Y-89235500D01*
X153548408Y-89200852D01*
X154101396Y-88647864D01*
X154136044Y-88633512D01*
X154170692Y-88647864D01*
X154184101Y-88672949D01*
X154188233Y-88693722D01*
X154221496Y-88743504D01*
X154271278Y-88776767D01*
X154315180Y-88785500D01*
X156744820Y-88785500D01*
X156788722Y-88776767D01*
X156838504Y-88743504D01*
X156871767Y-88693722D01*
X156880500Y-88649820D01*
X156880500Y-87880180D01*
X156871767Y-87836278D01*
X156838504Y-87786496D01*
X156788722Y-87753233D01*
X156744820Y-87744500D01*
X154315180Y-87744500D01*
X154271278Y-87753233D01*
X154221496Y-87786496D01*
X154188233Y-87836278D01*
X154179500Y-87880180D01*
X154179500Y-87961534D01*
X154165148Y-87996182D01*
X154131874Y-88009965D01*
X154130000Y-88009592D01*
X154125264Y-88010534D01*
X154036994Y-88028092D01*
X154036993Y-88028092D01*
X154032259Y-88029034D01*
X154002464Y-88048943D01*
X153949399Y-88084399D01*
X153946717Y-88088413D01*
X153946716Y-88088414D01*
X153938101Y-88101308D01*
X153932007Y-88108733D01*
X153245103Y-88795637D01*
X153210455Y-88809989D01*
X152737861Y-88809989D01*
X152703213Y-88795637D01*
X152688861Y-88760989D01*
X152703213Y-88726341D01*
X152715615Y-88717330D01*
X152747031Y-88701323D01*
X152747032Y-88701322D01*
X152750465Y-88699573D01*
X152834573Y-88615465D01*
X152888574Y-88509482D01*
X152891421Y-88491510D01*
X152906578Y-88395807D01*
X152907181Y-88392000D01*
X152890178Y-88284646D01*
X152898933Y-88248179D01*
X152903927Y-88242333D01*
X153886408Y-87259852D01*
X153921056Y-87245500D01*
X154130500Y-87245500D01*
X154165148Y-87259852D01*
X154179500Y-87294500D01*
X154179500Y-87379820D01*
X154188233Y-87423722D01*
X154221496Y-87473504D01*
X154271278Y-87506767D01*
X154315180Y-87515500D01*
X156744820Y-87515500D01*
X156788722Y-87506767D01*
X156838504Y-87473504D01*
X156871767Y-87423722D01*
X156880500Y-87379820D01*
X156880500Y-86675484D01*
X156894852Y-86640836D01*
X156929500Y-86626484D01*
X156939054Y-86627425D01*
X156956511Y-86630897D01*
X156961247Y-86629955D01*
X157049517Y-86612397D01*
X157049518Y-86612397D01*
X157054252Y-86611455D01*
X157084047Y-86591546D01*
X157137112Y-86556090D01*
X157148410Y-86539181D01*
X157154504Y-86531756D01*
X157382267Y-86303993D01*
X157389692Y-86297899D01*
X157402590Y-86289281D01*
X157406601Y-86286601D01*
X157453904Y-86215806D01*
X157461966Y-86203741D01*
X157464261Y-86192206D01*
X157480466Y-86110736D01*
X157481408Y-86106000D01*
X157477442Y-86086060D01*
X157476500Y-86076503D01*
X157476500Y-85989834D01*
X157490852Y-85955186D01*
X157525500Y-85940834D01*
X157560148Y-85955186D01*
X157637535Y-86032573D01*
X157640968Y-86034322D01*
X157640969Y-86034323D01*
X157654743Y-86041341D01*
X157743518Y-86086574D01*
X157747323Y-86087177D01*
X157747324Y-86087177D01*
X157857193Y-86104578D01*
X157861000Y-86105181D01*
X157978482Y-86086574D01*
X158008748Y-86071153D01*
X158046134Y-86068210D01*
X158074651Y-86092566D01*
X158079500Y-86109133D01*
X158079500Y-86109820D01*
X158079970Y-86112181D01*
X158079970Y-86112185D01*
X158080239Y-86113535D01*
X158088233Y-86153722D01*
X158121496Y-86203504D01*
X158171278Y-86236767D01*
X158215180Y-86245500D01*
X160644820Y-86245500D01*
X160688722Y-86236767D01*
X160738504Y-86203504D01*
X160771767Y-86153722D01*
X160780500Y-86109820D01*
X160780500Y-85340180D01*
X160771767Y-85296278D01*
X160738504Y-85246496D01*
X160688722Y-85213233D01*
X160644820Y-85204500D01*
X158215180Y-85204500D01*
X158171278Y-85213233D01*
X158121496Y-85246496D01*
X158088233Y-85296278D01*
X158087292Y-85301011D01*
X158079971Y-85337814D01*
X158079500Y-85340180D01*
X158079500Y-85340471D01*
X158062077Y-85373066D01*
X158026188Y-85383952D01*
X158008750Y-85378848D01*
X157978482Y-85363426D01*
X157861000Y-85344819D01*
X157857193Y-85345422D01*
X157747324Y-85362823D01*
X157747323Y-85362823D01*
X157743518Y-85363426D01*
X157690527Y-85390426D01*
X157640969Y-85415677D01*
X157640968Y-85415678D01*
X157637535Y-85417427D01*
X157560148Y-85494814D01*
X157525500Y-85509166D01*
X157490852Y-85494814D01*
X157476500Y-85460166D01*
X157476500Y-84754500D01*
X157490852Y-84719852D01*
X157525500Y-84705500D01*
X158030500Y-84705500D01*
X158065148Y-84719852D01*
X158079500Y-84754500D01*
X158079500Y-84839820D01*
X158088233Y-84883722D01*
X158121496Y-84933504D01*
X158171278Y-84966767D01*
X158215180Y-84975500D01*
X160644820Y-84975500D01*
X160688722Y-84966767D01*
X160738504Y-84933504D01*
X160771767Y-84883722D01*
X160780500Y-84839820D01*
X160780500Y-84070180D01*
X160771767Y-84026278D01*
X160738504Y-83976496D01*
X160688722Y-83943233D01*
X160644820Y-83934500D01*
X158215180Y-83934500D01*
X158171278Y-83943233D01*
X158121496Y-83976496D01*
X158088233Y-84026278D01*
X158079500Y-84070180D01*
X158079500Y-84155500D01*
X158065148Y-84190148D01*
X158030500Y-84204500D01*
X157525500Y-84204500D01*
X157490852Y-84190148D01*
X157476500Y-84155500D01*
X157476500Y-84113056D01*
X157490852Y-84078408D01*
X158001396Y-83567865D01*
X158036044Y-83553513D01*
X158070692Y-83567865D01*
X158084101Y-83592950D01*
X158088233Y-83613722D01*
X158121496Y-83663504D01*
X158171278Y-83696767D01*
X158215180Y-83705500D01*
X160644820Y-83705500D01*
X160688722Y-83696767D01*
X160738504Y-83663504D01*
X160771767Y-83613722D01*
X160780500Y-83569820D01*
X160780500Y-82805073D01*
X160794852Y-82770425D01*
X160812376Y-82759162D01*
X160872679Y-82736670D01*
X160878769Y-82733345D01*
X160990100Y-82650003D01*
X160995003Y-82645100D01*
X161073774Y-82539875D01*
X161106027Y-82520739D01*
X161142365Y-82530014D01*
G37*
G04 #@! TD.AperFunction*
M02*
